<?xml version="1.0" encoding="UTF-8" standalone="no"?>
<!-- Created with Inkscape (http://www.inkscape.org/) -->
<svg xmlns="http://www.w3.org/2000/svg" height="64" width="64" version="1.1" xmlns:xlink="http://www.w3.org/1999/xlink">
 <defs id="defs4">
  <linearGradient id="linearGradient6715" x1="302.86" gradientUnits="userSpaceOnUse" y1="366.65" gradientTransform="matrix(2.774389,0,0,1.969706,-1892.179,-872.8854)" x2="302.86" y2="609.51">
   <stop id="stop5050" stop-color="#000" stop-opacity="0" offset="0"/>
   <stop id="stop5056" stop-color="#000" offset="0.5"/>
   <stop id="stop5052" stop-color="#000" stop-opacity="0" offset="1"/>
  </linearGradient>
  <radialGradient id="radialGradient6717" cx="605.71" xlink:href="#linearGradient5060" gradientUnits="userSpaceOnUse" cy="486.65" r="117.14" gradientTransform="matrix(2.774389,0,0,1.969706,-1891.633,-872.8854)"/>
  <linearGradient id="linearGradient5060">
   <stop id="stop5062" stop-color="#000" offset="0"/>
   <stop id="stop5064" stop-color="#000" stop-opacity="0" offset="1"/>
  </linearGradient>
  <radialGradient id="radialGradient6719" cx="605.71" xlink:href="#linearGradient5060" gradientUnits="userSpaceOnUse" cy="486.65" r="117.14" gradientTransform="matrix(-2.774389,0,0,1.969706,112.7623,-872.8854)"/>
  <radialGradient id="radialGradient2171" cx="24.218" gradientUnits="userSpaceOnUse" cy="33.769" r="17.678" gradientTransform="matrix(1,0,0,0.695,0,10.29969)">
   <stop id="stop2167" stop-color="#000" offset="0"/>
   <stop id="stop2169" stop-color="#000" stop-opacity="0" offset="1"/>
  </radialGradient>
  <linearGradient id="linearGradient4234" x1="7.6046" gradientUnits="userSpaceOnUse" y1="28.481" gradientTransform="translate(0,-1.944537)" x2="36.183" y2="40.944">
   <stop id="stop4230" stop-color="#BBB" offset="0"/>
   <stop id="stop4232" stop-color="#9f9f9f" offset="1"/>
  </linearGradient>
  <radialGradient id="radialGradient4250" cx="15.571" gradientUnits="userSpaceOnUse" cy="2.9585" r="20.936" gradientTransform="matrix(1.286242,0.781698,-0.710782,1.169552,-2.354348,-6.821398)">
   <stop id="stop4246" stop-color="#e4e4e4" offset="0"/>
   <stop id="stop4248" stop-color="#d3d3d3" offset="1"/>
  </radialGradient>
  <linearGradient id="linearGradient4260" x1="12.378" gradientUnits="userSpaceOnUse" y1="4.4331" gradientTransform="translate(0,-1.944537)" x2="44.096" y2="47.621">
   <stop id="stop4256" stop-color="#FFF" offset="0"/>
   <stop id="stop4258" stop-color="#FFF" stop-opacity="0" offset="1"/>
  </linearGradient>
  <linearGradient id="linearGradient2321" x1="24.307" gradientUnits="userSpaceOnUse" y1="33.693" x2="24.307" y2="37.609">
   <stop id="stop2353" stop-color="#656565" offset="0"/>
   <stop id="stop2355" stop-color="#656565" stop-opacity="0" offset="1"/>
  </linearGradient>
  <linearGradient id="linearGradient2155" x1="14.997" gradientUnits="userSpaceOnUse" y1="11.188" gradientTransform="matrix(0.952531,0,0,0.656725,1.345471,19.22026)" x2="32.511" y2="34.307">
   <stop id="stop3034" stop-color="#ebebeb" offset="0"/>
   <stop id="stop3036" stop-color="#FFF" offset="0.5"/>
   <stop id="stop3038" stop-color="#ebebeb" offset="1"/>
  </linearGradient>
  <linearGradient id="linearGradient2343" x1="26.333" gradientUnits="userSpaceOnUse" y1="34.172" gradientTransform="matrix(0.800126,0,0,0.551649,4.725541,20.59938)" x2="26.194" y2="21.988">
   <stop id="stop2347" stop-color="#d9d9d9" offset="0"/>
   <stop id="stop2349" stop-color="#EEE" stop-opacity="0" offset="1"/>
  </linearGradient>
  <linearGradient id="linearGradient2161" x1="10.502" gradientUnits="userSpaceOnUse" y1="3.61" gradientTransform="matrix(0.738933,0,0,0.509459,6.215767,21.99197)" x2="48.799" y2="54.698">
   <stop id="stop6038" stop-color="#FFF" offset="0"/>
   <stop id="stop6040" stop-color="#FFF" stop-opacity="0" offset="1"/>
  </linearGradient>
  <linearGradient id="linearGradient2341" x1="24.307" gradientUnits="userSpaceOnUse" y1="32.791" gradientTransform="matrix(1,0,0,0.799429,0,6.604619)" x2="24.307" y2="34.201">
   <stop id="stop2317" stop-color="#656565" offset="0"/>
   <stop id="stop2319" stop-color="#656565" stop-opacity="0" offset="1"/>
  </linearGradient>
  <linearGradient id="linearGradient2335" x1="23.375" xlink:href="#linearGradient5060" gradientUnits="userSpaceOnUse" y1="28.434" x2="23.375" y2="32.938"/>
  <radialGradient id="radialGradient3245" gradientUnits="userSpaceOnUse" cx="24.218" cy="33.769" r="17.678" gradientTransform="matrix(0.666667,0,0,0.46333356,0.247378,6.8664643)">
   <stop id="stop2167-7" stop-color="#000" offset="0"/>
   <stop id="stop2169-6" stop-color="#000" stop-opacity="0" offset="1"/>
  </radialGradient>
  <linearGradient id="linearGradient3242" y2="40.944" gradientUnits="userSpaceOnUse" y1="28.481" gradientTransform="matrix(0.668957,0,0,0.672779,-0.189894,-1.342733)" x2="36.183" x1="7.6046">
   <stop id="stop4230-3" stop-color="#BBB" offset="0"/>
   <stop id="stop4232-6" stop-color="#9f9f9f" offset="1"/>
  </linearGradient>
  <radialGradient id="radialGradient3239" gradientUnits="userSpaceOnUse" cx="15.571" cy="2.9585" r="20.936" gradientTransform="matrix(0.860178,0.52591,-0.475338,0.78685,-1.755064,-4.623781)">
   <stop id="stop4246-6" stop-color="#e4e4e4" offset="0"/>
   <stop id="stop4248-3" stop-color="#d3d3d3" offset="1"/>
  </radialGradient>
  <linearGradient id="linearGradient3235" y2="47.621" gradientUnits="userSpaceOnUse" y1="4.4331" gradientTransform="matrix(0.661072,0,0,0.660739,0.01875956,-1.060589)" x2="44.096" x1="12.378">
   <stop id="stop4256-4" stop-color="#FFF" offset="0"/>
   <stop id="stop4258-8" stop-color="#FFF" stop-opacity="0" offset="1"/>
  </linearGradient>
  <linearGradient id="linearGradient3232" y2="37.609" gradientUnits="userSpaceOnUse" y1="33.693" gradientTransform="matrix(0.632733,0,0,0.595816,0.620297,0.221355)" x2="24.307" x1="24.307">
   <stop id="stop2353-2" stop-color="#656565" offset="0"/>
   <stop id="stop2355-9" stop-color="#656565" stop-opacity="0" offset="1"/>
  </linearGradient>
  <linearGradient id="linearGradient3229" y2="34.307" gradientUnits="userSpaceOnUse" y1="11.188" gradientTransform="matrix(0.584017,0,0,0.370997,1.919752,12.07619)" x2="32.511" x1="14.997">
   <stop id="stop3034-9" stop-color="#ebebeb" offset="0"/>
   <stop id="stop3036-0" stop-color="#FFF" offset="0.5"/>
   <stop id="stop3038-8" stop-color="#ebebeb" offset="1"/>
  </linearGradient>
  <linearGradient id="linearGradient3226" y2="21.988" gradientUnits="userSpaceOnUse" y1="34.172" gradientTransform="matrix(0.506266,0,0,0.328681,3.610303,12.4948)" x2="26.194" x1="26.333">
   <stop id="stop2347-5" stop-color="#d9d9d9" offset="0"/>
   <stop id="stop2349-0" stop-color="#EEE" stop-opacity="0" offset="1"/>
  </linearGradient>
  <linearGradient id="linearGradient3221" y2="54.698" gradientUnits="userSpaceOnUse" y1="3.61" gradientTransform="matrix(0.453055,0,0,0.287804,4.905831,13.64199)" x2="48.799" x1="10.502">
   <stop id="stop6038-6" stop-color="#FFF" offset="0"/>
   <stop id="stop6040-3" stop-color="#FFF" stop-opacity="0" offset="1"/>
  </linearGradient>
  <linearGradient id="linearGradient3218" y2="34.201" gradientUnits="userSpaceOnUse" y1="32.791" gradientTransform="matrix(0.632733,0,0,0.671124,0.620297,-2.006758)" x2="24.307" x1="24.307">
   <stop id="stop2317-5" stop-color="#656565" offset="0"/>
   <stop id="stop2319-6" stop-color="#656565" stop-opacity="0" offset="1"/>
  </linearGradient>
  <linearGradient id="linearGradient2036" x1="23.375" xlink:href="#linearGradient5060" gradientUnits="userSpaceOnUse" y1="28.434" gradientTransform="matrix(0.672717,0,0,0.672779,-0.359488,-0.034489)" x2="23.375" y2="32.938"/>
  <linearGradient id="linearGradient2038" x1="23.375" xlink:href="#linearGradient5060" gradientUnits="userSpaceOnUse" y1="28.434" gradientTransform="matrix(0.672717,0,0,0.672779,-0.359488,-0.03448922)" x2="23.375" y2="32.938"/>
  <linearGradient id="linearGradient3933">
   <stop id="stop3935" stop-color="#000" stop-opacity="0.302" offset="0"/>
   <stop id="stop3941" stop-color="#000" stop-opacity="0.2" offset="0.88501"/>
   <stop id="stop3937" stop-color="#000" stop-opacity="0" offset="1"/>
  </linearGradient>
  <filter id="filter3391" height="1.336" width="1.1344" color-interpolation-filters="sRGB" y="-0.168" x="-0.067199998">
   <feGaussianBlur id="feGaussianBlur3393" stdDeviation="0.14"/>
  </filter>
  <linearGradient id="linearGradient3198">
   <stop id="stop3200" stop-color="#FFF" offset="0"/>
   <stop id="stop3202" stop-color="#FFF" stop-opacity="0" offset="1"/>
  </linearGradient>
  <filter id="filter3391-9" height="1.336" width="1.1344" color-interpolation-filters="sRGB" y="-0.168" x="-0.067199998">
   <feGaussianBlur id="feGaussianBlur3393-0" stdDeviation="0.14"/>
  </filter>
  <linearGradient id="linearGradient3052" y2="25.5" gradientUnits="userSpaceOnUse" x2="20.5" gradientTransform="translate(-8.0000004,15.967633)" y1="27.5" x1="16">
   <stop id="stop3375" stop-color="#000" offset="0"/>
   <stop id="stop3377" stop-color="#373737" stop-opacity="0" offset="1"/>
  </linearGradient>
  <linearGradient id="linearGradient3054" y2="27" gradientUnits="userSpaceOnUse" x2="21.5" gradientTransform="translate(-8.0000004,15.967633)" y1="27" x1="16">
   <stop id="stop3444" stop-color="#000" offset="0"/>
   <stop id="stop3446" stop-color="#000" stop-opacity="0" offset="1"/>
  </linearGradient>
  <radialGradient id="radialGradient3319" gradientUnits="userSpaceOnUse" cy="14.19" cx="18" gradientTransform="matrix(0.5171097,0,0,0.09372595,295.71991,44.846526)" r="5.5055">
   <stop id="stop3454-5" stop-color="#FFF" offset="0"/>
   <stop id="stop3456-4" stop-color="#FFF" stop-opacity="0" offset="1"/>
  </radialGradient>
  <linearGradient id="linearGradient3324" y2="18.312" xlink:href="#linearGradient3198" gradientUnits="userSpaceOnUse" x2="23" gradientTransform="matrix(0.5171097,0,0,0.509783,292.0317,35.706174)" y1="18.312" x1="17.605"/>
  <linearGradient id="linearGradient3327" y2="19" xlink:href="#linearGradient3198" gradientUnits="userSpaceOnUse" x2="22" gradientTransform="matrix(0.51465215,0,0,0.51427415,291.66575,36.071594)" y1="25.27" x1="30.376"/>
  <radialGradient id="radialGradient3330" gradientUnits="userSpaceOnUse" cy="13.192" cx="25.017" gradientTransform="matrix(0.6409233,0,0,0.23260484,289.25876,43.172933)" r="9.7513">
   <stop id="stop3173-2" stop-color="#fd0000" offset="0"/>
   <stop id="stop3175-4" stop-color="#6a0000" offset="1"/>
  </radialGradient>
  <linearGradient id="linearGradient3332" y2="7.1352" gradientUnits="userSpaceOnUse" x2="22.036" gradientTransform="matrix(0.6409233,0,0,0.4699064,289.25876,40.562616)" y1="15.984" x1="27.217">
   <stop id="stop4404-2" stop-color="#e80000" offset="0"/>
   <stop id="stop4406-1" stop-color="#490000" offset="1"/>
  </linearGradient>
  <radialGradient id="radialGradient3335" gradientUnits="userSpaceOnUse" cy="26.577" cx="26.625" gradientTransform="matrix(0.4905733,-0.1612076,0.0594676,0.1758752,290.71541,48.376273)" r="12.5">
   <stop id="stop3191-6" stop-color="#e40000" offset="0"/>
   <stop id="stop3193-5" stop-color="#490000" offset="1"/>
  </radialGradient>
  <linearGradient id="linearGradient3338" y2="27" gradientUnits="userSpaceOnUse" x2="19" gradientTransform="matrix(0.5171097,0,0,0.5097831,291.58937,36.045709)" y1="33" x1="29">
   <stop id="stop3222-8" stop-color="#373737" offset="0"/>
   <stop id="stop3224-5" stop-color="#FFF" offset="1"/>
  </linearGradient>
  <linearGradient id="linearGradient3341" y2="5.0354" xlink:href="#linearGradient3198" gradientUnits="userSpaceOnUse" x2="17.799" gradientTransform="matrix(0.7042341,0,0,0.4625263,287.80262,49.412231)" y1="12.038" x1="25.269"/>
  <linearGradient id="linearGradient3344" y2="9.277" gradientUnits="userSpaceOnUse" x2="21.44" gradientTransform="matrix(0.6372376,0,0,0.5144393,289.34354,48.841188)" y1="14.243" x1="27.681">
   <stop id="stop3230-47" stop-color="#373737" offset="0"/>
   <stop id="stop3232-9" stop-color="#cfcfcf" stop-opacity="0.67826086" offset="1"/>
  </linearGradient>
  <radialGradient id="radialGradient3347" gradientUnits="userSpaceOnUse" cy="22.614" cx="27.5" gradientTransform="matrix(0.7955532,-0.039214,0.04965997,0.9791288,282.80915,27.21674)" r="6.5">
   <stop id="stop3348-2" stop-color="#737373" offset="0"/>
   <stop id="stop3350-2" stop-color="#000" stop-opacity="0" offset="1"/>
  </radialGradient>
  <radialGradient id="radialGradient3350" gradientUnits="userSpaceOnUse" cy="33.188" cx="37.375" gradientTransform="matrix(0.2103491,0,0,0.05208649,295.79979,45.30668)" r="14.625">
   <stop id="stop4335-63" stop-color="#000" offset="0"/>
   <stop id="stop4337-0" stop-color="#000" stop-opacity="0" offset="1"/>
  </radialGradient>
  <radialGradient id="radialGradient3115" gradientUnits="userSpaceOnUse" cy="14.19" cx="18" gradientTransform="matrix(1.0342194,0,0,0.1874519,175.43981,33.693031)" r="5.5055">
   <stop id="stop3454-4" stop-color="#FFF" offset="0"/>
   <stop id="stop3456-9" stop-color="#FFF" stop-opacity="0" offset="1"/>
  </radialGradient>
  <linearGradient id="linearGradient3120" y2="18.312" xlink:href="#linearGradient3198" gradientUnits="userSpaceOnUse" x2="23" gradientTransform="matrix(1.0342194,0,0,1.019566,168.0634,15.412329)" y1="18.312" x1="17.605"/>
  <linearGradient id="linearGradient3123" y2="19" xlink:href="#linearGradient3198" gradientUnits="userSpaceOnUse" x2="22" gradientTransform="matrix(1.0293043,0,0,1.0285483,167.3315,16.143168)" y1="25.27" x1="30.376"/>
  <radialGradient id="radialGradient3126" gradientUnits="userSpaceOnUse" cy="13.192" cx="25.017" gradientTransform="matrix(1.2818465,0,0,0.46520969,162.51753,30.345846)" r="9.7513">
   <stop id="stop3173-5" stop-color="#fd0000" offset="0"/>
   <stop id="stop3175-8" stop-color="#6a0000" offset="1"/>
  </radialGradient>
  <linearGradient id="linearGradient3128" y2="7.1352" gradientUnits="userSpaceOnUse" x2="22.036" gradientTransform="matrix(1.2818465,0,0,0.9398128,162.51753,25.125212)" y1="15.984" x1="27.217">
   <stop id="stop4404-1" stop-color="#e80000" offset="0"/>
   <stop id="stop4406-5" stop-color="#490000" offset="1"/>
  </linearGradient>
  <radialGradient id="radialGradient3132" gradientUnits="userSpaceOnUse" cy="26.577" cx="26.625" gradientTransform="matrix(0.9811466,-0.3224151,0.1189352,0.3517503,165.43081,40.752527)" r="12.5">
   <stop id="stop3191-9" stop-color="#e40000" offset="0"/>
   <stop id="stop3193-7" stop-color="#490000" offset="1"/>
  </radialGradient>
  <linearGradient id="linearGradient3135" y2="27" gradientUnits="userSpaceOnUse" x2="19" gradientTransform="matrix(1.0342194,0,0,1.0195661,167.17874,16.091399)" y1="33" x1="29">
   <stop id="stop3222-6" stop-color="#373737" offset="0"/>
   <stop id="stop3224-3" stop-color="#FFF" offset="1"/>
  </linearGradient>
  <linearGradient id="linearGradient3138" y2="5.0354" xlink:href="#linearGradient3198" gradientUnits="userSpaceOnUse" x2="17.799" gradientTransform="matrix(1.2818465,0,0,0.9398128,162.51753,42.162079)" y1="12.038" x1="25.269"/>
  <linearGradient id="linearGradient3141" y2="9.277" gradientUnits="userSpaceOnUse" x2="21.44" gradientTransform="matrix(1.2744752,0,0,1.0288787,162.68707,41.182354)" y1="14.243" x1="27.681">
   <stop id="stop3230-4" stop-color="#373737" offset="0"/>
   <stop id="stop3232-6" stop-color="#cfcfcf" stop-opacity="0.67826086" offset="1"/>
  </linearGradient>
  <radialGradient id="radialGradient3144" gradientUnits="userSpaceOnUse" cy="22.614" cx="27.5" gradientTransform="matrix(1.5911065,-0.078428,0.09931994,1.9582576,149.61831,-1.566539)" r="6.5">
   <stop id="stop3348-7" stop-color="#737373" offset="0"/>
   <stop id="stop3350-0" stop-color="#000" stop-opacity="0" offset="1"/>
  </radialGradient>
  <radialGradient id="radialGradient3148" gradientUnits="userSpaceOnUse" cy="33.188" cx="37.375" gradientTransform="matrix(0.4206982,0,0,0.10417298,175.59958,34.613341)" r="14.625">
   <stop id="stop4335-6" stop-color="#000" offset="0"/>
   <stop id="stop4337-5" stop-color="#000" stop-opacity="0" offset="1"/>
  </radialGradient>
  <radialGradient id="radialGradient3926" gradientUnits="userSpaceOnUse" cy="14.19" cx="18" gradientTransform="matrix(1.551329,0,0,0.2811779,7.1597166,22.539516)" r="5.5055">
   <stop id="stop3454" stop-color="#FFF" offset="0"/>
   <stop id="stop3456" stop-color="#FFF" stop-opacity="0" offset="1"/>
  </radialGradient>
  <linearGradient id="linearGradient3930" y2="18.312" xlink:href="#linearGradient3198" gradientUnits="userSpaceOnUse" x2="23" gradientTransform="matrix(1.551329,0,0,1.5293489,-3.904902,-4.881536)" y1="18.312" x1="17.605"/>
  <linearGradient id="linearGradient3934" y2="19" xlink:href="#linearGradient3198" gradientUnits="userSpaceOnUse" x2="22" gradientTransform="matrix(1.5439563,0,0,1.5428223,-5.002754,-3.785278)" y1="25.27" x1="30.376"/>
  <radialGradient id="radialGradient3937" gradientUnits="userSpaceOnUse" cy="13.192" cx="25.017" gradientTransform="matrix(1.9227697,0,0,0.69781448,-12.223704,17.518739)" r="9.7513">
   <stop id="stop3173" stop-color="#fd0000" offset="0"/>
   <stop id="stop3175" stop-color="#6a0000" offset="1"/>
  </radialGradient>
  <linearGradient id="linearGradient3939" y2="7.1352" gradientUnits="userSpaceOnUse" x2="22.036" gradientTransform="matrix(1.9227697,0,0,1.4097191,-12.223704,9.6877877)" y1="15.984" x1="27.217">
   <stop id="stop4404" stop-color="#e80000" offset="0"/>
   <stop id="stop4406" stop-color="#490000" offset="1"/>
  </linearGradient>
  <radialGradient id="radialGradient3942" gradientUnits="userSpaceOnUse" cy="26.577" cx="26.625" gradientTransform="matrix(1.4717199,-0.4836227,0.1784028,0.5276254,-7.853782,33.128759)" r="12.5">
   <stop id="stop3191" stop-color="#e40000" offset="0"/>
   <stop id="stop3193" stop-color="#490000" offset="1"/>
  </radialGradient>
  <linearGradient id="linearGradient3945" y2="27" gradientUnits="userSpaceOnUse" x2="19" gradientTransform="matrix(1.551329,0,0,1.529349,-5.231894,-3.862931)" y1="33" x1="29">
   <stop id="stop3222" stop-color="#373737" offset="0"/>
   <stop id="stop3224" stop-color="#FFF" offset="1"/>
  </linearGradient>
  <linearGradient id="linearGradient3948" y2="5.0354" xlink:href="#linearGradient3198" gradientUnits="userSpaceOnUse" x2="17.799" gradientTransform="matrix(1.9227697,0,0,1.4097191,-12.223704,34.901493)" y1="12.038" x1="25.269"/>
  <linearGradient id="linearGradient3951" y2="9.277" gradientUnits="userSpaceOnUse" x2="21.44" gradientTransform="matrix(1.9227697,0,0,1.4097191,-12.223704,34.922047)" y1="19.122" x1="29.455">
   <stop id="stop3230" stop-color="#373737" offset="0"/>
   <stop id="stop3232" stop-color="#373737" stop-opacity="0" offset="1"/>
  </linearGradient>
  <radialGradient id="radialGradient3955" gradientUnits="userSpaceOnUse" cy="22.614" cx="27.5" gradientTransform="matrix(2.3866597,-0.117642,0.1489799,2.9373862,-31.572536,-30.349836)" r="6.5">
   <stop id="stop3348" stop-color="#737373" offset="0"/>
   <stop id="stop3350" stop-color="#000" stop-opacity="0" offset="1"/>
  </radialGradient>
  <radialGradient id="radialGradient3958" xlink:href="#linearGradient3933" gradientUnits="userSpaceOnUse" cy="55.076" cx="31.071" gradientTransform="matrix(1.1299037,0.00293243,-0.00104388,0.40221964,-2.8919247,29.673628)" r="8.5533"/>
  <radialGradient id="radialGradient3961" gradientUnits="userSpaceOnUse" cy="33.188" cx="37.375" gradientTransform="matrix(0.6310473,0,0,0.15625948,7.3993769,23.919982)" r="14.625">
   <stop id="stop4335" stop-color="#000" offset="0"/>
   <stop id="stop4337" stop-color="#000" stop-opacity="0" offset="1"/>
  </radialGradient>
  <radialGradient id="radialGradient3965" xlink:href="#linearGradient3933" gradientUnits="userSpaceOnUse" cy="55.076" cx="31.071" gradientTransform="matrix(0.76667705,0.00198975,-7.0830713e-4,0.27291933,168.20209,38.465153)" r="8.5533"/>
 </defs>
 <rect id="icon:48-32" height="48" width="48" y="8" x="8" fill="none"/>
 <g id="layer2" transform="translate(8.1250018,8)">
  <g id="g6707" fill-rule="nonzero" transform="matrix(0.0245274,0,0,0.02086758,45.69054,34.82775)">
   <rect id="rect6709" opacity="0.40206" style="color:#000000;" height="478.36" width="1339.6" y="-150.7" x="-1559.3" fill="url(#linearGradient6715)"/>
   <path id="path6711" opacity="0.40206185" style="color:#000000;" d="m-219.62-150.68v478.33c142.87,0.90045,345.4-107.17,345.4-239.2s-159.44-239.13-345.4-239.13z" fill="url(#radialGradient6717)"/>
   <path id="path6713" opacity="0.40206185" style="color:#000000;" d="m-1559.3-150.68v478.33c-142.87,0.90045-345.4-107.17-345.4-239.2s159.44-239.13,345.4-239.13z" fill="url(#radialGradient6719)"/>
  </g>
  <path id="path4196" stroke-linejoin="round" style="stroke-dasharray:none;" d="m11.286,6.0181c-0.625,0-1.0312,0.29018-1.2812,0.84375-0.000001,0-6.4688,17.104-6.4688,17.104s-0.25,0.67156-0.25,1.7812v9.65c0,1.0826,0.65779,1.625,1.6562,1.625h38.562c0.98485,0,1.5938-0.71818,1.5938-1.8438v-9.65s0.10596-0.77042-0.09375-1.3125l-6.718-17.198c-0.185-0.5119-0.637-0.9881-1.125-1h-25.875z" stroke="#535353" stroke-linecap="round" stroke-miterlimit="4" stroke-width="2" fill="none"/>
  <path id="path2163" opacity="0.56571428" style="color:#000000;" d="m41.896,33.769a17.678,12.286,0,1,1,-35.355,0,17.678,12.286,0,1,1,35.355,0z" fill-rule="evenodd" transform="translate(0.883883,1.260942e-6)" fill="url(#radialGradient2171)"/>
  <path id="path4170" fill-rule="evenodd" fill="url(#linearGradient4234)" d="m3.2736,25.052,0.7646-0.69222,37.61,0.0625,3.4624,0.3173,0,10.439c0,1.1256-0.60702,1.8433-1.5919,1.8433h-38.583c-0.99846,0-1.6618-0.54205-1.6618-1.6247v-10.345z"/>
  <path id="path3093" fill-rule="evenodd" fill="url(#radialGradient4250)" d="m3.5491,23.97c-0.71429,1.4643-0.0006156,2.3929,1.0357,2.3929h39c1.119-0.02381,1.8452-1.0119,1.4286-2.1429l-6.715-17.211c-0.184-0.5119-0.655-0.9881-1.143-1h-25.857c-0.625,0-1.0357,0.30357-1.2857,0.85715,0,0-6.4643,17.104-6.4643,17.104z"/>
  <path id="path4201" fill-rule="evenodd" fill="#FFF" d="m44.796,23.684c0.06352,1.25-0.414,2.3158-1.3221,2.3438,0,0-38.119-0.000001-38.119,0-1.2892,0-1.8677-0.32495-2.0841-0.86806,0.091761,0.94433,0.82582,1.6493,2.0841,1.6493-1E-7-0.000001,38.119,0,38.119,0,1.076-0.03307,1.7528-1.424,1.3522-2.9948l-0.03005-0.13021z"/>
  <path id="path4252" stroke-linejoin="round" style="stroke-dasharray:none;" d="m11.643,6.4712c-0.60169,0-0.99279,0.27936-1.2335,0.81229-0.000001,0-6.415,16.591-6.415,16.591s-0.24068,0.64652-0.24068,1.7148v9.2901c0,1.3547,0.44406,1.6269,1.5945,1.6269h37.687c1.3231,0,1.5343-0.3164,1.5343-1.8375v-9.2901s0.10201-0.74169-0.09025-1.2636l-6.594-16.805c-0.178-0.4928-0.551-0.8263-1.021-0.8377h-25.223z" stroke="url(#linearGradient4260)" stroke-linecap="round" stroke-miterlimit="4" stroke-width="1.00000024" fill="none"/>
  <g id="g2142" transform="matrix(0.933652,0,0,0.933652,1.612716,-0.367774)">
   <rect id="rect2151" style="color:#000000;" fill-rule="evenodd" height="3.865" width="37.931" y="32.363" x="5.3414" fill="url(#linearGradient2321)"/>
   <path id="path3040" fill-rule="nonzero" fill="url(#linearGradient2155)" d="m7.9921,31.81c-0.27494,0.83102-0.46875,1.7034-0.46875,2.5938-0.000001,6.3702,7.4479,11.469,16.687,11.469,9.2396,0,16.656-5.0985,16.656-11.469,0-0.88658-0.16482-1.766-0.4375-2.5938h-15.563c1.8398,0.24517,3.3438,1.2594,3.3438,2.5938,0,1.5105-1.8092,2.75-4,2.75s-4-1.2395-4-2.75c0.000001-1.3344,1.5039-2.3486,3.3438-2.5938h-15.562z"/>
   <path id="path3049" d="m7.8359,32.342c-0.17255,0.66581-0.3125,1.3613-0.3125,2.0625,0,6.3702,7.4479,11.469,16.687,11.469,9.2396,0,16.656-5.0985,16.656-11.469,0-0.70121-0.13995-1.3967-0.3125-2.0625h-32.719z" fill-rule="nonzero" stroke="#808080" stroke-miterlimit="4" fill="url(#linearGradient2343)"/>
   <path id="path3051" opacity="0.10999995" fill-rule="nonzero" d="m16.572,31.835c-0.77349,0.91998-1.325,1.4593-1.325,2.5876-0.000001,3.473,4.1104,6.2064,9.0306,6.2064,5.0374-0.000001,9.0306-2.8141,9.0306-6.2064,0-1.1449-0.58624-1.673-1.3598-2.5876h-5.377c1.6779,0.54343,2.6224,1.2369,2.6224,2.5876,0.000001,1.8577-2.2219,3.3821-4.9163,3.3821s-4.9163-1.5245-4.9163-3.3821c0-1.3514,0.91933-2.0446,2.5988-2.5876h-5.3882z"/>
   <path id="path4214" d="m18.574,44.743,3.7888-7.5308c-0.87715-0.21569-1.5486-0.63911-1.9724-1.1963l-10.378,3.5883c1.7499,2.3854,4.7947,4.2405,8.5621,5.1389z" fill-opacity="0.41807915" fill-rule="nonzero" fill="#FFF"/>
   <path id="path5264" opacity="0.54644811" d="m8.9118,32.268c-0.24877,0.73987-0.40404,1.6796-0.40404,2.4734,0,5.5906,7.5944,10.072,15.703,10.072,8.1087-0.000001,15.502-4.4816,15.502-10.072-0.000001-0.79429-0.1838-1.7331-0.4329-2.4734h-30.368z" stroke="url(#linearGradient2161)" stroke-miterlimit="4" fill="none"/>
   <rect id="rect4963" style="color:#000000;" fill-rule="evenodd" height="1.1912" width="37.864" y="31.627" x="5.3414" fill="url(#linearGradient2341)"/>
  </g>
  <path id="path2325" opacity="0.36000001" d="m26.312,30.25,13.75,0s0.54146,1.121-0.0625,3.375c0,0-13.312-0.5-13.312-0.5,1.8504-1.8504-0.375-2.875-0.375-2.875z" fill-rule="evenodd" fill="url(#linearGradient2335)"/>
  <path id="path2327" opacity="0.36000001" d="m22.098,30.25-13.75,0s-0.54146,1.121,0.0625,3.375c0,0,13.312-0.5,13.312-0.5-1.8504-1.8504,0.375-2.875,0.375-2.875z" fill-rule="evenodd" fill="url(#linearGradient2335)"/>
  <g transform="matrix(0.66,0,0,0.66,20,10)" id="g3985">
    <path id="path4331" opacity="0.07000002" fill="url(#radialGradient3961)" d="m40.214,29.106a9.2291,2.2853,0,0,1,-18.458,0,9.2291,2.2853,0,1,1,18.458,0z"/>
    <path id="path3420" fill="url(#radialGradient3958)" d="m42.261,52a10.426,3.4403,0,0,1,-20.852,0,10.426,3.4403,0,1,1,20.852,0z"/>
    <path id="path3159" fill-rule="evenodd" fill="url(#radialGradient3955)" d="m39.757,12.195c-0.77566-1.5293-14.738-1.5293-15.513,0,0,2.294-2.327,9.1761-2.327,15.293,0,6.1174,7.7566,9.9408,10.084,9.9408,2.327,0,10.084-3.8234,10.084-9.9408s-2.327-12.999-2.327-15.293z"/>
    <path id="path2385" stroke-linejoin="round" style="stroke-dasharray:none;" d="m39.757,12.216a7.7566,1.5499,0,0,1,-15.513,0,7.7566,1.5499,0,1,1,15.513,0z" stroke="#919191" stroke-linecap="round" stroke-miterlimit="0" stroke-width="1.01098025" fill="none"/>
    <path id="path3157" stroke-linejoin="round" style="stroke-dasharray:none;" d="m40.532,50.429a8.5323,3.0793,0,0,1,-17.065,0,8.5323,3.0793,0,1,1,17.065,0z" stroke="#888a85" stroke-linecap="round" stroke-miterlimit="0" stroke-width="1.01098025" fill="url(#linearGradient3951)"/>
    <path id="path3236" stroke-linejoin="round" style="stroke-dasharray:none;" d="m39.5,50.408a7.5,1.9084,0,0,1,-15,0,7.5,1.9084,0,1,1,15,0z" stroke="url(#linearGradient3948)" stroke-linecap="round" stroke-miterlimit="0" stroke-width="1.01098025" fill="none"/>
    <path id="path3163" stroke-linejoin="miter" d="m28.122,35.9c1.5513,1.5293,3.1027,3.8234,3.1027,12.235,0,1.5293,0.20982,2.294,0.77566,2.294,0.56585,0,0.77566-0.76467,0.77566-2.294,0-8.4114,1.5513-10.705,3.1027-12.235" fill-rule="evenodd" stroke="#888a85" stroke-linecap="round" stroke-width="1px" fill="url(#linearGradient3945)"/>
    <path id="path3179" fill-rule="evenodd" fill="url(#radialGradient3942)" d="m22,25c0,9,7.673,12.429,10,12.429s10-3.429,10-12.429"/>
    <path id="path5788" stroke-linejoin="round" style="stroke-dasharray:none;" d="m41.5,25.195a9.5,2.294,0,0,1,-19,0,9.5,2.294,0,1,1,19,0z" stroke="url(#linearGradient3939)" stroke-linecap="round" stroke-miterlimit="0" stroke-width="1.01098025" fill="url(#radialGradient3937)"/>
    <path id="path3196" stroke-linejoin="miter" d="m23,25.5c-1.5,6.5,6.5,11,9,11s11-4.5,9-12c-0.5-4-1-6-2-9.5" stroke="url(#linearGradient3934)" stroke-linecap="round" stroke-width="1px" fill="none"/>
    <path id="path3266" fill-rule="evenodd" fill="url(#linearGradient3930)" d="M26.346,15,31,15s-2.327,9.1761-2.327,12.999c0,2.294,1.5513,3.8234,0.77566,4.588-0.77566,0.76468-4.654-2.2183-4.654-6.1174,0-1.5293,0.77566-6.1174,1.5513-11.47z"/>
    <path id="path3358" stroke-linejoin="round" d="M39.5,13.5c-0.5,0.5-3.462,1.05-7.743,1.05-4.282,0-6.757-0.55-7.257-1.05" stroke="#FFF" stroke-linecap="round" stroke-miterlimit="0" stroke-width="1.01098013" fill="none"/>
    <path id="path3450" stroke-linejoin="round" d="m41,24.5c0,0.85555-3.5,2-9.019,2.0499-5.519,0.05-8.981-1.194-8.981-2.05" stroke="url(#radialGradient3926)" stroke-linecap="round" stroke-miterlimit="0" stroke-width="1.01098013" fill="none"/>
    <path id="path3395" opacity="0.35" stroke-linejoin="round" d="m30,38s0.5,1,2,0.95884c1.5-0.041,2-0.959,2-0.959" stroke="#000" stroke-linecap="round" stroke-width="1px" fill="none"/>
    <path id="path3363" stroke-linejoin="round" d="m8,43.468,2.5-1,2.4688,0.125-4.9687,0.875z" fill-rule="evenodd" transform="matrix(1.551329,0,0,1.5293489,19.589369,-16.477177)" filter="url(#filter3391)" stroke="url(#linearGradient3054)" stroke-linecap="round" stroke-width="0.64922434px" fill="url(#linearGradient3052)"/>
    <path id="path3354" stroke-linejoin="miter" d="m39.757,12.195c-0.77566-2.294-14.738-2.294-15.513,0,0,2.294-2.327,9.1761-2.327,15.293,0,6.1174,7.7566,9.9408,10.084,9.9408,2.327,0,10.084-3.8234,10.084-9.9408s-2.327-12.999-2.327-15.293z" stroke="#919191" stroke-linecap="round" stroke-width="1px" fill="none"/>
    
   </g>
 </g>
</svg>
