<?xml version="1.0" encoding="UTF-8" standalone="no"?>
<!-- Created with Inkscape (http://www.inkscape.org/) -->
<svg xmlns="http://www.w3.org/2000/svg" height="64" width="64" version="1.1" xmlns:xlink="http://www.w3.org/1999/xlink">
 <defs id="defs4">
  <linearGradient id="linearGradient24230">
   <stop id="stop24232" stop-color="#677579" offset="0"/>
   <stop id="stop24234" stop-color="#333" offset="1"/>
  </linearGradient>
  <linearGradient id="linearGradient2997" y2="2.8075" xlink:href="#linearGradient24230" gradientUnits="userSpaceOnUse" x2="12.513" gradientTransform="matrix(0.795857,0,0,-0.439927,296.9955,-38.54704)" y1="23.064" x1="12.513"/>
  <linearGradient id="linearGradient3002" y2="8.7531" xlink:href="#linearGradient24230" gradientUnits="userSpaceOnUse" x2="12.513" gradientTransform="matrix(0.795857,0,0,0.436245,290.9955,38.584055)" y1="30.586" x1="12.513"/>
  <radialGradient id="radialGradient3006" gradientUnits="userSpaceOnUse" cy="35.878" cx="24.446" gradientTransform="matrix(0.744104,0,0,0.828761,286.88219,25.102219)" r="20.531">
   <stop id="stop11522" stop-color="#FFF" offset="0"/>
   <stop id="stop11524" stop-color="#dcdcdc" offset="1"/>
  </radialGradient>
  <linearGradient id="linearGradient5060">
   <stop id="stop5062" stop-color="#000" offset="0"/>
   <stop id="stop5064" stop-color="#000" stop-opacity="0" offset="1"/>
  </linearGradient>
  <filter id="filter3436" color-interpolation-filters="sRGB" width="1.1580106" y="-0.14008497" x="-0.079005308" height="1.2801698">
   <feGaussianBlur id="feGaussianBlur3438" stdDeviation="0.3190069"/>
  </filter>
  <linearGradient id="linearGradient3198">
   <stop id="stop3200" stop-color="#FFF" offset="0"/>
   <stop id="stop3202" stop-color="#FFF" stop-opacity="0" offset="1"/>
  </linearGradient>
  <filter id="filter3391" color-interpolation-filters="sRGB" width="1.1344" y="-0.168" x="-0.067199998" height="1.336">
   <feGaussianBlur id="feGaussianBlur3393" stdDeviation="0.14"/>
  </filter>
  <linearGradient id="linearGradient3348" y2="609.51" gradientUnits="userSpaceOnUse" x2="302.86" gradientTransform="matrix(2.774389,0,0,1.969706,-1892.179,-872.8854)" y1="366.65" x1="302.86">
   <stop id="stop5050" stop-color="#000" stop-opacity="0" offset="0"/>
   <stop id="stop5056" stop-color="#000" offset="0.5"/>
   <stop id="stop5052" stop-color="#000" stop-opacity="0" offset="1"/>
  </linearGradient>
  <radialGradient id="radialGradient3350" xlink:href="#linearGradient5060" gradientUnits="userSpaceOnUse" cy="486.65" cx="605.71" gradientTransform="matrix(2.774389,0,0,1.969706,-1891.633,-872.8854)" r="117.14"/>
  <radialGradient id="radialGradient3352" xlink:href="#linearGradient5060" gradientUnits="userSpaceOnUse" cy="486.65" cx="605.71" gradientTransform="matrix(-2.774389,0,0,1.969706,112.7623,-872.8854)" r="117.14"/>
  <radialGradient id="radialGradient3354" gradientUnits="userSpaceOnUse" cy="35.878" cx="24.446" gradientTransform="matrix(1.594876,0,0,1.324258,-16.15047,-5.0116565)" r="20.531">
   <stop id="stop11522-0" stop-color="#FFF" offset="0"/>
   <stop id="stop11524-8" stop-color="#dcdcdc" offset="1"/>
  </radialGradient>
  <linearGradient id="linearGradient3356" y2="16.886" xlink:href="#linearGradient24230" gradientUnits="userSpaceOnUse" x2="12.513" gradientTransform="matrix(1,0,0,0.587604,0.0823339,20.598333)" y1="30.586" x1="12.513"/>
  <linearGradient id="linearGradient3358" y2="16.886" xlink:href="#linearGradient24230" gradientUnits="userSpaceOnUse" x2="12.513" gradientTransform="matrix(1,0,0,0.587604,8.0563099,20.572313)" y1="30.586" x1="12.513"/>
  <linearGradient id="linearGradient3360" y2="16.886" xlink:href="#linearGradient24230" gradientUnits="userSpaceOnUse" x2="12.513" gradientTransform="matrix(1,0,0,0.587604,16.05631,20.572313)" y1="30.586" x1="12.513"/>
  <linearGradient id="linearGradient3362" y2="12.687" gradientUnits="userSpaceOnUse" x2="23.5" gradientTransform="translate(-4.0563127,1.1420025)" y1="19.812" x1="23.5">
   <stop id="stop24268" stop-color="#a5a5a5" offset="0"/>
   <stop id="stop24270" stop-color="#a5a5a5" stop-opacity="0" offset="1"/>
  </linearGradient>
  <linearGradient id="linearGradient3364" y2="40.25" gradientUnits="userSpaceOnUse" x2="26.312" gradientTransform="translate(-4.0000001,3.0467535)" y1="19.062" x1="24.531">
   <stop id="stop24292" stop-color="#000" offset="0"/>
   <stop id="stop24294" stop-color="#000" stop-opacity="0" offset="1"/>
  </linearGradient>
  <radialGradient id="radialGradient3366" gradientUnits="userSpaceOnUse" cy="33.188" cx="37.375" gradientTransform="matrix(1,0,0,0.226496,0,25.67067)" r="14.625">
   <stop id="stop4335" stop-color="#000" offset="0"/>
   <stop id="stop4337" stop-color="#000" stop-opacity="0" offset="1"/>
  </radialGradient>
  <radialGradient id="radialGradient3368" gradientUnits="userSpaceOnUse" cy="22.614" cx="27.5" gradientTransform="matrix(1.5911065,-0.078428,0.09931994,1.9582576,-1.87394,-10.578996)" r="6.5">
   <stop id="stop3348" stop-color="#737373" offset="0"/>
   <stop id="stop3350" stop-color="#000" stop-opacity="0" offset="1"/>
  </radialGradient>
  <linearGradient id="linearGradient3370" y2="9.277" gradientUnits="userSpaceOnUse" x2="21.44" y1="14.243" x1="27.681">
   <stop id="stop3230" stop-color="#373737" offset="0"/>
   <stop id="stop3232" stop-color="#cfcfcf" stop-opacity="0.67826086" offset="1"/>
  </linearGradient>
  <linearGradient id="linearGradient3372" y2="5.0354" xlink:href="#linearGradient3198" gradientUnits="userSpaceOnUse" x2="17.799" y1="12.038" x1="25.269"/>
  <linearGradient id="linearGradient3374" y2="27" gradientUnits="userSpaceOnUse" x2="19" gradientTransform="matrix(1.0342194,0,0,1.0195661,15.686489,7.0789419)" y1="33" x1="29">
   <stop id="stop3222" stop-color="#373737" offset="0"/>
   <stop id="stop3224" stop-color="#FFF" offset="1"/>
  </linearGradient>
  <radialGradient id="radialGradient3377" gradientUnits="userSpaceOnUse" cy="26.577" cx="26.625" gradientTransform="matrix(0.9811466,-0.3224151,0.1189352,0.3517503,13.938563,31.74007)" r="12.5">
   <stop id="stop3191" stop-color="#e40000" offset="0"/>
   <stop id="stop3193" stop-color="#490000" offset="1"/>
  </radialGradient>
  <radialGradient id="radialGradient3379" gradientUnits="userSpaceOnUse" cy="13.192" cx="25.017" gradientTransform="matrix(1,0,0,0.4950025,0,5.5549725)" r="9.7513">
   <stop id="stop3173" stop-color="#fd0000" offset="0"/>
   <stop id="stop3175" stop-color="#6a0000" offset="1"/>
  </radialGradient>
  <linearGradient id="linearGradient3381" y2="7.1352" gradientUnits="userSpaceOnUse" x2="22.036" y1="15.984" x1="27.217">
   <stop id="stop4404" stop-color="#e80000" offset="0"/>
   <stop id="stop4406" stop-color="#490000" offset="1"/>
  </linearGradient>
  <linearGradient id="linearGradient3383" y2="19" xlink:href="#linearGradient3198" gradientUnits="userSpaceOnUse" x2="22" gradientTransform="matrix(1.0293043,0,0,1.0285483,-8.6685031,-7.8568524)" y1="25.27" x1="30.376"/>
  <linearGradient id="linearGradient3385" y2="18.312" xlink:href="#linearGradient3198" gradientUnits="userSpaceOnUse" x2="23" gradientTransform="matrix(1.0342194,0,0,1.019566,16.57115,6.3998719)" y1="18.312" x1="17.605"/>
  <radialGradient id="radialGradient3387" gradientUnits="userSpaceOnUse" cy="14.19" cx="18" gradientTransform="matrix(1.0342194,0,0,0.1874519,23.947563,24.680574)" r="5.5055">
   <stop id="stop3454" stop-color="#FFF" offset="0"/>
   <stop id="stop3456" stop-color="#FFF" stop-opacity="0" offset="1"/>
  </radialGradient>
  <linearGradient id="linearGradient3389" y2="25.5" gradientUnits="userSpaceOnUse" x2="20.5" gradientTransform="translate(-8.0000004,15.967633)" y1="27.5" x1="16">
   <stop id="stop3375" stop-color="#000" offset="0"/>
   <stop id="stop3377" stop-color="#373737" stop-opacity="0" offset="1"/>
  </linearGradient>
  <linearGradient id="linearGradient3391" y2="27" gradientUnits="userSpaceOnUse" x2="21.5" gradientTransform="translate(-8.0000004,15.967633)" y1="27" x1="16">
   <stop id="stop3444" stop-color="#000" offset="0"/>
   <stop id="stop3446" stop-color="#000" stop-opacity="0" offset="1"/>
  </linearGradient>
  <filter id="filter3391-3" color-interpolation-filters="sRGB" width="1.1344" y="-0.168" x="-0.067199998" height="1.336">
   <feGaussianBlur id="feGaussianBlur3393-3" stdDeviation="0.14"/>
  </filter>
  <linearGradient id="linearGradient3734" y2="609.51" gradientUnits="userSpaceOnUse" x2="302.86" gradientTransform="matrix(0.03662518,0,0,0.02740202,1.2617744,14.792332)" y1="366.65" x1="302.86">
   <stop id="stop5050-3" stop-color="#000" stop-opacity="0" offset="0"/>
   <stop id="stop5056-0" stop-color="#000" offset="0.5"/>
   <stop id="stop5052-4" stop-color="#000" stop-opacity="0" offset="1"/>
  </linearGradient>
  <radialGradient id="radialGradient3736" xlink:href="#linearGradient5060" gradientUnits="userSpaceOnUse" cy="486.65" cx="605.71" gradientTransform="matrix(0.03662518,0,0,0.02740202,1.2689822,14.792332)" r="117.14"/>
  <radialGradient id="radialGradient3738" xlink:href="#linearGradient5060" gradientUnits="userSpaceOnUse" cy="486.65" cx="605.71" gradientTransform="matrix(-0.03662518,0,0,0.02740202,27.729345,14.792332)" r="117.14"/>
  <radialGradient id="radialGradient3740" gradientUnits="userSpaceOnUse" cy="35.878" cx="24.446" gradientTransform="matrix(1.095586,0,0,0.943193,-10.703538,-5.059135)" r="20.531">
   <stop id="stop11522-6" stop-color="#FFF" offset="0"/>
   <stop id="stop11524-3" stop-color="#dcdcdc" offset="1"/>
  </radialGradient>
  <linearGradient id="linearGradient3742" y2="16.886" xlink:href="#linearGradient24230" gradientUnits="userSpaceOnUse" x2="12.513" gradientTransform="matrix(0.596894,0,0,0.391736,13.031061,14.083158)" y1="30.586" x1="12.513"/>
  <linearGradient id="linearGradient3744" y2="16.886" xlink:href="#linearGradient24230" gradientUnits="userSpaceOnUse" x2="12.513" gradientTransform="matrix(0.596894,0,0,0.391736,1.0310616,14.083158)" y1="30.586" x1="12.513"/>
  <linearGradient id="linearGradient3746" y2="12.687" gradientUnits="userSpaceOnUse" x2="23.5" gradientTransform="matrix(0.65,0,0,0.676986,-1.7499984,0.622064)" y1="19.812" x1="23.5">
   <stop id="stop24268-6" stop-color="#a5a5a5" offset="0"/>
   <stop id="stop24270-2" stop-color="#a5a5a5" stop-opacity="0" offset="1"/>
  </linearGradient>
  <linearGradient id="linearGradient3748" y2="40.25" gradientUnits="userSpaceOnUse" x2="26.312" gradientTransform="matrix(1.014084,0,0,0.966018,-2.0845025,2.723794)" y1="19.062" x1="24.531">
   <stop id="stop24292-7" stop-color="#000" offset="0"/>
   <stop id="stop24294-8" stop-color="#000" stop-opacity="0" offset="1"/>
  </linearGradient>
  <linearGradient id="linearGradient3750" y2="16.886" xlink:href="#linearGradient24230" gradientUnits="userSpaceOnUse" x2="12.513" gradientTransform="matrix(0.596894,0,0,0.391736,7.0310616,14.083158)" y1="30.586" x1="12.513"/>
  <radialGradient id="radialGradient3754" gradientUnits="userSpaceOnUse" cy="22.614" cx="27.5" gradientTransform="matrix(1.1933298,-0.058821,0.07448995,1.468693,-5.286267,-11.630861)" r="6.5">
   <stop id="stop3348-8" stop-color="#737373" offset="0"/>
   <stop id="stop3350-5" stop-color="#000" stop-opacity="0" offset="1"/>
  </radialGradient>
  <linearGradient id="linearGradient3756" y2="9.277" gradientUnits="userSpaceOnUse" x2="21.44" y1="19.122" x1="29.455">
   <stop id="stop3230-7" stop-color="#373737" offset="0"/>
   <stop id="stop3232-5" stop-color="#373737" stop-opacity="0" offset="1"/>
  </linearGradient>
  <linearGradient id="linearGradient3764" y2="27" gradientUnits="userSpaceOnUse" x2="19" gradientTransform="matrix(0.7756645,0,0,0.7646745,7.8840529,1.6128575)" y1="33" x1="29">
   <stop id="stop3222-8" stop-color="#373737" offset="0"/>
   <stop id="stop3224-6" stop-color="#FFF" offset="1"/>
  </linearGradient>
  <radialGradient id="radialGradient3766" gradientUnits="userSpaceOnUse" cy="26.577" cx="26.625" gradientTransform="matrix(0.73586,-0.2418113,0.0892014,0.2638127,6.5731095,20.108436)" r="12.5">
   <stop id="stop3191-4" stop-color="#e40000" offset="0"/>
   <stop id="stop3193-8" stop-color="#490000" offset="1"/>
  </radialGradient>
  <linearGradient id="linearGradient3772" y2="19" xlink:href="#linearGradient3198" gradientUnits="userSpaceOnUse" x2="22" gradientTransform="matrix(0.7719782,0,0,0.7714112,-6.5013771,-5.8926391)" y1="25.27" x1="30.376"/>
  <linearGradient id="linearGradient3775" y2="18.312" xlink:href="#linearGradient3198" gradientUnits="userSpaceOnUse" x2="23" gradientTransform="matrix(0.7756645,0,0,0.7646744,8.5475493,1.1032895)" y1="18.312" x1="17.605"/>
  <radialGradient id="radialGradient3777" gradientUnits="userSpaceOnUse" cy="14.19" cx="18" gradientTransform="matrix(0.7756645,0,0,0.1405889,14.079858,14.813815)" r="5.5055">
   <stop id="stop3454-3" stop-color="#FFF" offset="0"/>
   <stop id="stop3456-0" stop-color="#FFF" stop-opacity="0" offset="1"/>
  </radialGradient>
  <linearGradient id="linearGradient3933">
   <stop id="stop3935" stop-color="#000" stop-opacity="0.302" offset="0"/>
   <stop id="stop3941" stop-color="#000" stop-opacity="0.2" offset="0.88501"/>
   <stop id="stop3937" stop-color="#000" stop-opacity="0" offset="1"/>
  </linearGradient>
  <filter id="filter3391" height="1.336" width="1.1344" color-interpolation-filters="sRGB" y="-0.168" x="-0.067199998">
   <feGaussianBlur id="feGaussianBlur3393" stdDeviation="0.14"/>
  </filter>
  <linearGradient id="linearGradient3198">
   <stop id="stop3200" stop-color="#FFF" offset="0"/>
   <stop id="stop3202" stop-color="#FFF" stop-opacity="0" offset="1"/>
  </linearGradient>
  <filter id="filter3391-9" height="1.336" width="1.1344" color-interpolation-filters="sRGB" y="-0.168" x="-0.067199998">
   <feGaussianBlur id="feGaussianBlur3393-0" stdDeviation="0.14"/>
  </filter>
  <linearGradient id="linearGradient3052" y2="25.5" gradientUnits="userSpaceOnUse" x2="20.5" gradientTransform="translate(-8.0000004,15.967633)" y1="27.5" x1="16">
   <stop id="stop3375" stop-color="#000" offset="0"/>
   <stop id="stop3377" stop-color="#373737" stop-opacity="0" offset="1"/>
  </linearGradient>
  <linearGradient id="linearGradient3054" y2="27" gradientUnits="userSpaceOnUse" x2="21.5" gradientTransform="translate(-8.0000004,15.967633)" y1="27" x1="16">
   <stop id="stop3444" stop-color="#000" offset="0"/>
   <stop id="stop3446" stop-color="#000" stop-opacity="0" offset="1"/>
  </linearGradient>
  <radialGradient id="radialGradient3319" gradientUnits="userSpaceOnUse" cy="14.19" cx="18" gradientTransform="matrix(0.5171097,0,0,0.09372595,295.71991,44.846526)" r="5.5055">
   <stop id="stop3454-5" stop-color="#FFF" offset="0"/>
   <stop id="stop3456-4" stop-color="#FFF" stop-opacity="0" offset="1"/>
  </radialGradient>
  <linearGradient id="linearGradient3324" y2="18.312" xlink:href="#linearGradient3198" gradientUnits="userSpaceOnUse" x2="23" gradientTransform="matrix(0.5171097,0,0,0.509783,292.0317,35.706174)" y1="18.312" x1="17.605"/>
  <linearGradient id="linearGradient3327" y2="19" xlink:href="#linearGradient3198" gradientUnits="userSpaceOnUse" x2="22" gradientTransform="matrix(0.51465215,0,0,0.51427415,291.66575,36.071594)" y1="25.27" x1="30.376"/>
  <radialGradient id="radialGradient3330" gradientUnits="userSpaceOnUse" cy="13.192" cx="25.017" gradientTransform="matrix(0.6409233,0,0,0.23260484,289.25876,43.172933)" r="9.7513">
   <stop id="stop3173-2" stop-color="#fd0000" offset="0"/>
   <stop id="stop3175-4" stop-color="#6a0000" offset="1"/>
  </radialGradient>
  <linearGradient id="linearGradient3332" y2="7.1352" gradientUnits="userSpaceOnUse" x2="22.036" gradientTransform="matrix(0.6409233,0,0,0.4699064,289.25876,40.562616)" y1="15.984" x1="27.217">
   <stop id="stop4404-2" stop-color="#e80000" offset="0"/>
   <stop id="stop4406-1" stop-color="#490000" offset="1"/>
  </linearGradient>
  <radialGradient id="radialGradient3335" gradientUnits="userSpaceOnUse" cy="26.577" cx="26.625" gradientTransform="matrix(0.4905733,-0.1612076,0.0594676,0.1758752,290.71541,48.376273)" r="12.5">
   <stop id="stop3191-6" stop-color="#e40000" offset="0"/>
   <stop id="stop3193-5" stop-color="#490000" offset="1"/>
  </radialGradient>
  <linearGradient id="linearGradient3338" y2="27" gradientUnits="userSpaceOnUse" x2="19" gradientTransform="matrix(0.5171097,0,0,0.5097831,291.58937,36.045709)" y1="33" x1="29">
   <stop id="stop3222-8" stop-color="#373737" offset="0"/>
   <stop id="stop3224-5" stop-color="#FFF" offset="1"/>
  </linearGradient>
  <linearGradient id="linearGradient3341" y2="5.0354" xlink:href="#linearGradient3198" gradientUnits="userSpaceOnUse" x2="17.799" gradientTransform="matrix(0.7042341,0,0,0.4625263,287.80262,49.412231)" y1="12.038" x1="25.269"/>
  <linearGradient id="linearGradient3344" y2="9.277" gradientUnits="userSpaceOnUse" x2="21.44" gradientTransform="matrix(0.6372376,0,0,0.5144393,289.34354,48.841188)" y1="14.243" x1="27.681">
   <stop id="stop3230-47" stop-color="#373737" offset="0"/>
   <stop id="stop3232-9" stop-color="#cfcfcf" stop-opacity="0.67826086" offset="1"/>
  </linearGradient>
  <radialGradient id="radialGradient3347" gradientUnits="userSpaceOnUse" cy="22.614" cx="27.5" gradientTransform="matrix(0.7955532,-0.039214,0.04965997,0.9791288,282.80915,27.21674)" r="6.5">
   <stop id="stop3348-2" stop-color="#737373" offset="0"/>
   <stop id="stop3350-2" stop-color="#000" stop-opacity="0" offset="1"/>
  </radialGradient>
  <radialGradient id="radialGradient3350" gradientUnits="userSpaceOnUse" cy="33.188" cx="37.375" gradientTransform="matrix(0.2103491,0,0,0.05208649,295.79979,45.30668)" r="14.625">
   <stop id="stop4335-63" stop-color="#000" offset="0"/>
   <stop id="stop4337-0" stop-color="#000" stop-opacity="0" offset="1"/>
  </radialGradient>
  <radialGradient id="radialGradient3115" gradientUnits="userSpaceOnUse" cy="14.19" cx="18" gradientTransform="matrix(1.0342194,0,0,0.1874519,175.43981,33.693031)" r="5.5055">
   <stop id="stop3454-4" stop-color="#FFF" offset="0"/>
   <stop id="stop3456-9" stop-color="#FFF" stop-opacity="0" offset="1"/>
  </radialGradient>
  <linearGradient id="linearGradient3120" y2="18.312" xlink:href="#linearGradient3198" gradientUnits="userSpaceOnUse" x2="23" gradientTransform="matrix(1.0342194,0,0,1.019566,168.0634,15.412329)" y1="18.312" x1="17.605"/>
  <linearGradient id="linearGradient3123" y2="19" xlink:href="#linearGradient3198" gradientUnits="userSpaceOnUse" x2="22" gradientTransform="matrix(1.0293043,0,0,1.0285483,167.3315,16.143168)" y1="25.27" x1="30.376"/>
  <radialGradient id="radialGradient3126" gradientUnits="userSpaceOnUse" cy="13.192" cx="25.017" gradientTransform="matrix(1.2818465,0,0,0.46520969,162.51753,30.345846)" r="9.7513">
   <stop id="stop3173-5" stop-color="#fd0000" offset="0"/>
   <stop id="stop3175-8" stop-color="#6a0000" offset="1"/>
  </radialGradient>
  <linearGradient id="linearGradient3128" y2="7.1352" gradientUnits="userSpaceOnUse" x2="22.036" gradientTransform="matrix(1.2818465,0,0,0.9398128,162.51753,25.125212)" y1="15.984" x1="27.217">
   <stop id="stop4404-1" stop-color="#e80000" offset="0"/>
   <stop id="stop4406-5" stop-color="#490000" offset="1"/>
  </linearGradient>
  <radialGradient id="radialGradient3132" gradientUnits="userSpaceOnUse" cy="26.577" cx="26.625" gradientTransform="matrix(0.9811466,-0.3224151,0.1189352,0.3517503,165.43081,40.752527)" r="12.5">
   <stop id="stop3191-9" stop-color="#e40000" offset="0"/>
   <stop id="stop3193-7" stop-color="#490000" offset="1"/>
  </radialGradient>
  <linearGradient id="linearGradient3135" y2="27" gradientUnits="userSpaceOnUse" x2="19" gradientTransform="matrix(1.0342194,0,0,1.0195661,167.17874,16.091399)" y1="33" x1="29">
   <stop id="stop3222-6" stop-color="#373737" offset="0"/>
   <stop id="stop3224-3" stop-color="#FFF" offset="1"/>
  </linearGradient>
  <linearGradient id="linearGradient3138" y2="5.0354" xlink:href="#linearGradient3198" gradientUnits="userSpaceOnUse" x2="17.799" gradientTransform="matrix(1.2818465,0,0,0.9398128,162.51753,42.162079)" y1="12.038" x1="25.269"/>
  <linearGradient id="linearGradient3141" y2="9.277" gradientUnits="userSpaceOnUse" x2="21.44" gradientTransform="matrix(1.2744752,0,0,1.0288787,162.68707,41.182354)" y1="14.243" x1="27.681">
   <stop id="stop3230-4" stop-color="#373737" offset="0"/>
   <stop id="stop3232-6" stop-color="#cfcfcf" stop-opacity="0.67826086" offset="1"/>
  </linearGradient>
  <radialGradient id="radialGradient3144" gradientUnits="userSpaceOnUse" cy="22.614" cx="27.5" gradientTransform="matrix(1.5911065,-0.078428,0.09931994,1.9582576,149.61831,-1.566539)" r="6.5">
   <stop id="stop3348-7" stop-color="#737373" offset="0"/>
   <stop id="stop3350-0" stop-color="#000" stop-opacity="0" offset="1"/>
  </radialGradient>
  <radialGradient id="radialGradient3148" gradientUnits="userSpaceOnUse" cy="33.188" cx="37.375" gradientTransform="matrix(0.4206982,0,0,0.10417298,175.59958,34.613341)" r="14.625">
   <stop id="stop4335-6" stop-color="#000" offset="0"/>
   <stop id="stop4337-5" stop-color="#000" stop-opacity="0" offset="1"/>
  </radialGradient>
  <radialGradient id="radialGradient3926" gradientUnits="userSpaceOnUse" cy="14.19" cx="18" gradientTransform="matrix(1.551329,0,0,0.2811779,7.1597166,22.539516)" r="5.5055">
   <stop id="stop3454" stop-color="#FFF" offset="0"/>
   <stop id="stop3456" stop-color="#FFF" stop-opacity="0" offset="1"/>
  </radialGradient>
  <linearGradient id="linearGradient3930" y2="18.312" xlink:href="#linearGradient3198" gradientUnits="userSpaceOnUse" x2="23" gradientTransform="matrix(1.551329,0,0,1.5293489,-3.904902,-4.881536)" y1="18.312" x1="17.605"/>
  <linearGradient id="linearGradient3934" y2="19" xlink:href="#linearGradient3198" gradientUnits="userSpaceOnUse" x2="22" gradientTransform="matrix(1.5439563,0,0,1.5428223,-5.002754,-3.785278)" y1="25.27" x1="30.376"/>
  <radialGradient id="radialGradient3937" gradientUnits="userSpaceOnUse" cy="13.192" cx="25.017" gradientTransform="matrix(1.9227697,0,0,0.69781448,-12.223704,17.518739)" r="9.7513">
   <stop id="stop3173" stop-color="#fd0000" offset="0"/>
   <stop id="stop3175" stop-color="#6a0000" offset="1"/>
  </radialGradient>
  <linearGradient id="linearGradient3939" y2="7.1352" gradientUnits="userSpaceOnUse" x2="22.036" gradientTransform="matrix(1.9227697,0,0,1.4097191,-12.223704,9.6877877)" y1="15.984" x1="27.217">
   <stop id="stop4404" stop-color="#e80000" offset="0"/>
   <stop id="stop4406" stop-color="#490000" offset="1"/>
  </linearGradient>
  <radialGradient id="radialGradient3942" gradientUnits="userSpaceOnUse" cy="26.577" cx="26.625" gradientTransform="matrix(1.4717199,-0.4836227,0.1784028,0.5276254,-7.853782,33.128759)" r="12.5">
   <stop id="stop3191" stop-color="#e40000" offset="0"/>
   <stop id="stop3193" stop-color="#490000" offset="1"/>
  </radialGradient>
  <linearGradient id="linearGradient3945" y2="27" gradientUnits="userSpaceOnUse" x2="19" gradientTransform="matrix(1.551329,0,0,1.529349,-5.231894,-3.862931)" y1="33" x1="29">
   <stop id="stop3222" stop-color="#373737" offset="0"/>
   <stop id="stop3224" stop-color="#FFF" offset="1"/>
  </linearGradient>
  <linearGradient id="linearGradient3948" y2="5.0354" xlink:href="#linearGradient3198" gradientUnits="userSpaceOnUse" x2="17.799" gradientTransform="matrix(1.9227697,0,0,1.4097191,-12.223704,34.901493)" y1="12.038" x1="25.269"/>
  <linearGradient id="linearGradient3951" y2="9.277" gradientUnits="userSpaceOnUse" x2="21.44" gradientTransform="matrix(1.9227697,0,0,1.4097191,-12.223704,34.922047)" y1="19.122" x1="29.455">
   <stop id="stop3230" stop-color="#373737" offset="0"/>
   <stop id="stop3232" stop-color="#373737" stop-opacity="0" offset="1"/>
  </linearGradient>
  <radialGradient id="radialGradient3955" gradientUnits="userSpaceOnUse" cy="22.614" cx="27.5" gradientTransform="matrix(2.3866597,-0.117642,0.1489799,2.9373862,-31.572536,-30.349836)" r="6.5">
   <stop id="stop3348" stop-color="#737373" offset="0"/>
   <stop id="stop3350" stop-color="#000" stop-opacity="0" offset="1"/>
  </radialGradient>
  <radialGradient id="radialGradient3958" xlink:href="#linearGradient3933" gradientUnits="userSpaceOnUse" cy="55.076" cx="31.071" gradientTransform="matrix(1.1299037,0.00293243,-0.00104388,0.40221964,-2.8919247,29.673628)" r="8.5533"/>
  <radialGradient id="radialGradient3961" gradientUnits="userSpaceOnUse" cy="33.188" cx="37.375" gradientTransform="matrix(0.6310473,0,0,0.15625948,7.3993769,23.919982)" r="14.625">
   <stop id="stop4335" stop-color="#000" offset="0"/>
   <stop id="stop4337" stop-color="#000" stop-opacity="0" offset="1"/>
  </radialGradient>
  <radialGradient id="radialGradient3965" xlink:href="#linearGradient3933" gradientUnits="userSpaceOnUse" cy="55.076" cx="31.071" gradientTransform="matrix(0.76667705,0.00198975,-7.0830713e-4,0.27291933,168.20209,38.465153)" r="8.5533"/>
 </defs>
 <g id="g3430" transform="translate(7.99628,8)">
  <g id="g6707" fill-rule="nonzero" transform="matrix(0.01980175,0,0,0.02086758,38.3611,40.449893)">
   <rect id="rect6709" opacity="0.40206" height="478.36" width="1339.6" y="-150.7" x="-1559.3" fill="url(#linearGradient3348)"/>
   <path id="path6711" opacity="0.40206185" d="m-219.62-150.68v478.33c142.87,0.90045,345.4-107.17,345.4-239.2s-159.44-239.13-345.4-239.13z" fill="url(#radialGradient3350)"/>
   <path id="path6713" opacity="0.40206185" d="m-1559.3-150.68v478.33c-142.87,0.90045-345.4-107.17-345.4-239.2s159.44-239.13,345.4-239.13z" fill="url(#radialGradient3352)"/>
  <g transform="matrix(0.66,0,0,0.66,20,10)" id="g3985">
    <path id="path4331" opacity="0.07000002" fill="url(#radialGradient3961)" d="m40.214,29.106a9.2291,2.2853,0,0,1,-18.458,0,9.2291,2.2853,0,1,1,18.458,0z"/>
    <path id="path3420" fill="url(#radialGradient3958)" d="m42.261,52a10.426,3.4403,0,0,1,-20.852,0,10.426,3.4403,0,1,1,20.852,0z"/>
    <path id="path3159" fill-rule="evenodd" fill="url(#radialGradient3955)" d="m39.757,12.195c-0.77566-1.5293-14.738-1.5293-15.513,0,0,2.294-2.327,9.1761-2.327,15.293,0,6.1174,7.7566,9.9408,10.084,9.9408,2.327,0,10.084-3.8234,10.084-9.9408s-2.327-12.999-2.327-15.293z"/>
    <path id="path2385" stroke-linejoin="round" style="stroke-dasharray:none;" d="m39.757,12.216a7.7566,1.5499,0,0,1,-15.513,0,7.7566,1.5499,0,1,1,15.513,0z" stroke="#919191" stroke-linecap="round" stroke-miterlimit="0" stroke-width="1.01098025" fill="none"/>
    <path id="path3157" stroke-linejoin="round" style="stroke-dasharray:none;" d="m40.532,50.429a8.5323,3.0793,0,0,1,-17.065,0,8.5323,3.0793,0,1,1,17.065,0z" stroke="#888a85" stroke-linecap="round" stroke-miterlimit="0" stroke-width="1.01098025" fill="url(#linearGradient3951)"/>
    <path id="path3236" stroke-linejoin="round" style="stroke-dasharray:none;" d="m39.5,50.408a7.5,1.9084,0,0,1,-15,0,7.5,1.9084,0,1,1,15,0z" stroke="url(#linearGradient3948)" stroke-linecap="round" stroke-miterlimit="0" stroke-width="1.01098025" fill="none"/>
    <path id="path3163" stroke-linejoin="miter" d="m28.122,35.9c1.5513,1.5293,3.1027,3.8234,3.1027,12.235,0,1.5293,0.20982,2.294,0.77566,2.294,0.56585,0,0.77566-0.76467,0.77566-2.294,0-8.4114,1.5513-10.705,3.1027-12.235" fill-rule="evenodd" stroke="#888a85" stroke-linecap="round" stroke-width="1px" fill="url(#linearGradient3945)"/>
    <path id="path3179" fill-rule="evenodd" fill="url(#radialGradient3942)" d="m22,25c0,9,7.673,12.429,10,12.429s10-3.429,10-12.429"/>
    <path id="path5788" stroke-linejoin="round" style="stroke-dasharray:none;" d="m41.5,25.195a9.5,2.294,0,0,1,-19,0,9.5,2.294,0,1,1,19,0z" stroke="url(#linearGradient3939)" stroke-linecap="round" stroke-miterlimit="0" stroke-width="1.01098025" fill="url(#radialGradient3937)"/>
    <path id="path3196" stroke-linejoin="miter" d="m23,25.5c-1.5,6.5,6.5,11,9,11s11-4.5,9-12c-0.5-4-1-6-2-9.5" stroke="url(#linearGradient3934)" stroke-linecap="round" stroke-width="1px" fill="none"/>
    <path id="path3266" fill-rule="evenodd" fill="url(#linearGradient3930)" d="M26.346,15,31,15s-2.327,9.1761-2.327,12.999c0,2.294,1.5513,3.8234,0.77566,4.588-0.77566,0.76468-4.654-2.2183-4.654-6.1174,0-1.5293,0.77566-6.1174,1.5513-11.47z"/>
    <path id="path3358" stroke-linejoin="round" d="M39.5,13.5c-0.5,0.5-3.462,1.05-7.743,1.05-4.282,0-6.757-0.55-7.257-1.05" stroke="#FFF" stroke-linecap="round" stroke-miterlimit="0" stroke-width="1.01098013" fill="none"/>
    <path id="path3450" stroke-linejoin="round" d="m41,24.5c0,0.85555-3.5,2-9.019,2.0499-5.519,0.05-8.981-1.194-8.981-2.05" stroke="url(#radialGradient3926)" stroke-linecap="round" stroke-miterlimit="0" stroke-width="1.01098013" fill="none"/>
    <path id="path3395" opacity="0.35" stroke-linejoin="round" d="m30,38s0.5,1,2,0.95884c1.5-0.041,2-0.959,2-0.959" stroke="#000" stroke-linecap="round" stroke-width="1px" fill="none"/>
    <path id="path3363" stroke-linejoin="round" d="m8,43.468,2.5-1,2.4688,0.125-4.9687,0.875z" fill-rule="evenodd" transform="matrix(1.551329,0,0,1.5293489,19.589369,-16.477177)" filter="url(#filter3391)" stroke="url(#linearGradient3054)" stroke-linecap="round" stroke-width="0.64922434px" fill="url(#linearGradient3052)"/>
    <path id="path3354" stroke-linejoin="miter" d="m39.757,12.195c-0.77566-2.294-14.738-2.294-15.513,0,0,2.294-2.327,9.1761-2.327,15.293,0,6.1174,7.7566,9.9408,10.084,9.9408,2.327,0,10.084-3.8234,10.084-9.9408s-2.327-12.999-2.327-15.293z" stroke="#919191" stroke-linecap="round" stroke-width="1px" fill="none"/>
    
   </g>
  </g>
  <rect id="rect11518-9" stroke-linejoin="bevel" style="stroke-dasharray:none;" fill-rule="evenodd" stroke-dashoffset="0" rx="0.85864" ry="0.85864" height="23.868" width="32.026" stroke="#9b9b9b" stroke-linecap="butt" stroke-miterlimit="10" y="19.642" x="4.526" stroke-width="1" fill="url(#radialGradient3354)"/>
  <rect id="rect11528-6" stroke-linejoin="bevel" style="stroke-dasharray:none;" stroke-dashoffset="0" rx="0" ry="0" height="21.868" width="30.026" stroke="#FFF" stroke-linecap="butt" stroke-miterlimit="10" y="20.642" x="5.526" stroke-width="1" fill="none"/>
  <rect id="rect23355-3" fill-rule="nonzero" height="9.974" width="5.026" y="30" x="10.082" fill="url(#linearGradient3356)"/>
  <rect id="rect24238" fill-rule="nonzero" height="9.974" width="5.026" y="29.974" x="18.056" fill="url(#linearGradient3358)"/>
  <rect id="rect24242" fill-rule="nonzero" height="9.974" width="5.026" y="29.974" x="26.056" fill="url(#linearGradient3360)"/>
  <rect id="rect24246-8" stroke-linejoin="miter" style="stroke-dasharray:none;" fill-rule="nonzero" stroke-dashoffset="0" height="5.019" width="6" stroke="#9b9b9b" stroke-linecap="butt" stroke-miterlimit="4" y="29.481" x="9.6084" stroke-width="1" fill="#eeeeec"/>
  <rect id="rect24248" stroke-linejoin="miter" style="stroke-dasharray:none;" fill-rule="nonzero" stroke-dashoffset="0" height="5.019" width="6" stroke="#9b9b9b" stroke-linecap="butt" stroke-miterlimit="4" y="35.481" x="17.608" stroke-width="1" fill="#eeeeec"/>
  <rect id="rect24250" stroke-linejoin="miter" style="stroke-dasharray:none;" fill-rule="nonzero" stroke-dashoffset="0" height="5.019" width="6" stroke="#9b9b9b" stroke-linecap="butt" stroke-miterlimit="4" y="35.481" x="25.608" stroke-width="1" fill="#eeeeec"/>
  <rect id="rect24252-5" stroke-linejoin="miter" style="stroke-dasharray:none;" stroke-dashoffset="0" height="3.0468" width="4.1084" stroke="#FFF" stroke-linecap="butt" stroke-miterlimit="4" y="30.47" x="10.578" stroke-width="1" fill="none"/>
  <rect id="rect24254" stroke-linejoin="miter" style="stroke-dasharray:none;" stroke-dashoffset="0" height="3.0468" width="4.1084" stroke="#FFF" stroke-linecap="butt" stroke-miterlimit="4" y="36.5" x="18.5" stroke-width="1" fill="none"/>
  <rect id="rect24256" stroke-linejoin="miter" style="stroke-dasharray:none;" stroke-dashoffset="0" height="3.0468" width="4.1084" stroke="#FFF" stroke-linecap="butt" stroke-miterlimit="4" y="36.5" x="26.5" stroke-width="1" fill="none"/>
  <path id="path24258" stroke-linejoin="miter" style="stroke-dasharray:none;" d="m4.4437,21.642-3.5-10,40,0-4.3125,10-32.187,0z" fill-rule="nonzero" stroke-dashoffset="0" stroke="#787878" stroke-linecap="butt" stroke-miterlimit="4" stroke-width="0.99999964" fill="url(#linearGradient3362)"/>
  <rect id="rect24260" stroke-linejoin="miter" style="stroke-dasharray:none;" fill-rule="nonzero" stroke-dashoffset="0" height="3" width="41" stroke="#9f9f9f" stroke-linecap="butt" stroke-miterlimit="4" y="11.546" x="0.49969" stroke-width="1" fill="#DDD"/>
  <rect id="rect24262" stroke-linejoin="miter" style="stroke-dasharray:none;" fill-rule="nonzero" stroke-dashoffset="0" rx="1" ry="1" height="2" width="5.5625" stroke="#9f9f9f" stroke-linecap="butt" stroke-miterlimit="4" y="20.642" x="7.4437" stroke-width="1" fill="#DDD"/>
  <rect id="rect24264" stroke-linejoin="miter" style="stroke-dasharray:none;" fill-rule="nonzero" stroke-dashoffset="0" rx="1" ry="1" height="2" width="5.5625" stroke="#9f9f9f" stroke-linecap="butt" stroke-miterlimit="4" y="20.642" x="27.881" stroke-width="1" fill="#DDD"/>
  <rect id="rect24284" opacity="0.43407" fill-rule="nonzero" rx="1" ry="1" height="2" width="16.062" y="25.047" x="9" fill="#9f9f9f"/>
  <path id="path24286" opacity="0.83406587" d="m1,14.047,0-2,40,0-1,1-38,0-1,1z" fill-rule="nonzero" fill="#FFF"/>
  <path id="path24288" opacity="0.09890113" d="m5,22.234,0,7.0303,1-0.8125c16.722,0.469,20.771,0.136,29,5.22l1.0625,1.3125-0.0625-12.875-31,0.125z" fill-rule="nonzero" fill="url(#linearGradient3364)"/>
  <path id="path4331" opacity="0.07000002" d="m52,33.188a14.625,3.3125,0,1,1,-29.25,0,14.625,3.3125,0,1,1,29.25,0z" transform="matrix(0.4206982,0,0,0.459933,24.107337,13.794096)" fill="url(#radialGradient3366)"/>
  <path id="path3420" opacity="0.2" stroke-linejoin="round" style="stroke-dasharray:none;" d="m27.438,11a4.4375,2.1843,0,1,1,-8.875,0,4.4375,2.1843,0,1,1,8.875,0z" transform="matrix(1.2818465,0,0,0.9398128,11.025282,33.968861)" filter="url(#filter3436)" stroke="#000" stroke-linecap="round" stroke-miterlimit="0" stroke-width="0.61406273" fill="#000"/>
  <path id="path3159" d="m45.679,17.784c-0.51711-1.0196-9.8251-1.0196-10.342,0,0,1.5293-1.5513,6.1174-1.5513,10.196,0,4.0783,5.1711,6.6272,6.7224,6.6272s6.7224-2.5489,6.7224-6.6272-1.5513-8.6663-1.5513-10.196z" fill-rule="evenodd" fill="url(#radialGradient3368)"/>
  <path id="path3157" stroke-linejoin="round" style="stroke-dasharray:none;" d="m27.299,11a4.2985,1.9228,0,1,1,-8.597,0,4.2985,1.9228,0,1,1,8.597,0z" transform="matrix(1.2744752,0,0,1.0288787,11.194822,32.169897)" stroke="#888a85" stroke-linecap="round" stroke-miterlimit="0" stroke-width="0.91109008" fill="url(#linearGradient3370)"/>
  <path id="path3236" stroke-linejoin="round" style="stroke-dasharray:none;" d="m26.511,11a3.5106,1.3537,0,1,1,-7.0211,0,3.5106,1.3537,0,1,1,7.0211,0z" transform="matrix(1.2818465,0,0,0.9398128,11.025283,33.149622)" stroke="url(#linearGradient3372)" stroke-linecap="round" stroke-miterlimit="0" stroke-width="0.91109008" fill="none"/>
  <path id="path3163" stroke-linejoin="miter" d="m37.922,33.588c1.0342,1.0196,2.0684,2.5489,2.0684,8.1565,0,1.0196,0.13988,1.5293,0.51711,1.5293s0.51711-0.50978,0.51711-1.5293c0-5.6076,1.0342-7.137,2.0684-8.1565" fill-rule="evenodd" stroke="#888a85" stroke-linecap="round" stroke-width="1" fill="url(#linearGradient3374)"/>
  <path id="path3179" d="m33.508,26.488c0,6,5.4487,8.1197,7,8.1197s7-2.1197,7-8.1197" fill-rule="evenodd" fill="url(#radialGradient3377)"/>
  <path id="path5788" stroke-linejoin="round" style="stroke-dasharray:none;" d="m27.941,11a4.9408,1.6273,0,1,1,-9.8816,0,4.9408,1.6273,0,1,1,9.8816,0z" transform="matrix(1.2818465,0,0,0.9398128,11.025282,16.112755)" stroke="url(#linearGradient3381)" stroke-linecap="round" stroke-miterlimit="0" stroke-width="0.61406273" fill="url(#radialGradient3379)"/>
  <path id="path10032" stroke-linejoin="miter" d="m20.594,4.8125-10.5,6.9062c-0.47185,2.1071,0.57612,3.8839,1.9688,5.1562,0.69977,0.63931,1.4779,1.1545,2.1875,1.5,0.70965,0.3455,1.3655,0.53125,1.75,0.53125,0.38459,0,1.0458-0.20765,1.7812-0.5625,0.73541-0.35485,1.5613-0.85244,2.2812-1.5312,1.4399-1.3576,2.4993-3.3228,1.8438-5.7812a0.10694,0.10694,0,0,1,0,-0.03125c-0.326-2.6112-0.671-3.939-1.312-6.1885z" transform="translate(24.558925,15.031671)" stroke="url(#linearGradient3383)" stroke-linecap="round" stroke-width="1" fill="none"/>
  <path id="path3266" d="m36.738,19.654,3.1027,0s-1.5513,6.1174-1.5513,8.6663c0,1.5293,1.0342,2.5489,0.51711,3.0587-0.51711,0.50978-3.1027-1.4789-3.1027-4.0783,0-1.0196,0.51711-4.0783,1.0342-7.6467z" fill-rule="evenodd" fill="url(#linearGradient3385)"/>
  <path id="path2385" stroke-linejoin="round" style="stroke-dasharray:none;" d="m27.034,11a4.0341,1.3945,0,1,1,-0.00061,-0.02423" transform="matrix(1.2850783,0,0,0.8891994,10.950951,7.9332781)" stroke="#919191" stroke-linecap="round" stroke-miterlimit="0" stroke-width="0.91109008" fill="none"/>
  <path id="path3358" stroke-linejoin="round" d="m45.508,18.953c-0.33333,0.33333-2.3078,0.69994-5.1622,0.69994s-4.5044-0.3666-4.8378-0.69994" stroke="#FFF" stroke-linecap="round" stroke-miterlimit="0" stroke-width="0.67398679" fill="none"/>
  <path id="path3450" stroke-linejoin="round" d="m46.508,25.988c0,0.57036-2.3333,1.3333-6.0127,1.3666-3.6793,0.03327-5.9873-0.79624-5.9873-1.3666" stroke="url(#radialGradient3387)" stroke-linecap="round" stroke-miterlimit="0" stroke-width="0.67398679" fill="none"/>
  <path id="path3395" opacity="0.35" stroke-linejoin="round" d="m39.174,34.988s0.33333,0.66667,1.3333,0.63923c1-0.02744,1.3333-0.63923,1.3333-0.63923" stroke="#000" stroke-linecap="round" stroke-width="0.66666669px" fill="none"/>
  <path id="path3363" stroke-linejoin="round" d="m8,43.468,2.5-1,2.4688,0.125-4.9687,0.875z" fill-rule="evenodd" transform="matrix(1.0342194,0,0,1.019566,32.233998,-1.330556)" filter="url(#filter3391)" stroke="url(#linearGradient3391)" stroke-linecap="round" stroke-width="0.64922434px" fill="url(#linearGradient3389)"/>
  <path id="path3354" stroke-linejoin="miter" d="m45.679,17.784c-0.6711-1.7968-9.6711-1.7968-10.342,0,0,1.5293-1.8289,6.1249-1.8289,10.203,0,4.0783,5.4487,6.6197,7,6.6197s7-2.5414,7-6.6197-1.8289-8.6738-1.8289-10.203z" stroke="#919191" stroke-linecap="round" stroke-width="1" fill="none"/>
 </g>
 <rect id="icon:48-32" height="48" width="48" y="8" x="8" fill="none"/>
</svg>
