<?xml version="1.0" encoding="UTF-8" standalone="no"?>
<!-- Created with Inkscape (http://www.inkscape.org/) -->
<svg xmlns="http://www.w3.org/2000/svg" height="64" width="64" version="1.1" xmlns:xlink="http://www.w3.org/1999/xlink">
 <defs id="defs4">
  <linearGradient id="linearGradient5060">
   <stop id="stop5062" stop-color="#000" offset="0"/>
   <stop id="stop5064" stop-color="#000" stop-opacity="0" offset="1"/>
  </linearGradient>
  <linearGradient id="linearGradient2736">
   <stop id="stop2738" stop-color="#5a7aa4" offset="0"/>
   <stop id="stop2740" stop-color="#3b516c" offset="1"/>
  </linearGradient>
  <linearGradient id="linearGradient2965" y2="37.515" xlink:href="#linearGradient2736" gradientUnits="userSpaceOnUse" x2="6.5973" gradientTransform="matrix(1.0642,0,0,0.92734783,6.3973575,6.5062914)" y1="35.292" x1="6.521"/>
  <linearGradient id="linearGradient2971" y2="37.515" xlink:href="#linearGradient2736" gradientUnits="userSpaceOnUse" x2="6.5973" gradientTransform="matrix(-1.0642,0,0,0.92734783,56.512425,6.5062914)" y1="35.292" x1="6.521"/>
  <linearGradient id="linearGradient2977" y2="37.515" xlink:href="#linearGradient2736" gradientUnits="userSpaceOnUse" x2="6.5973" gradientTransform="matrix(-1.0642,0,0,0.92734783,56.45869,6.6520357)" y1="35.292" x1="6.521"/>
  <linearGradient id="linearGradient2990" y2="50.645" gradientUnits="userSpaceOnUse" x2="27.987" gradientTransform="matrix(1.4059436,0,0,0.70100449,7.5379416,6.8605361)" y1="21.553" x1="5.9931">
   <stop id="stop6978-6" stop-color="#c1c3ae" offset="0"/>
   <stop id="stop6980-1" stop-color="#818373" offset="1"/>
  </linearGradient>
  <radialGradient id="radialGradient2999" xlink:href="#linearGradient5060" gradientUnits="userSpaceOnUse" cy="486.65" cx="605.71" gradientTransform="matrix(-0.06558731,0,0,0.041103,55.692226,20.549424)" r="117.14"/>
  <radialGradient id="radialGradient3002" xlink:href="#linearGradient5060" gradientUnits="userSpaceOnUse" cy="486.65" cx="605.71" gradientTransform="matrix(0.06558731,0,0,0.041103,8.3077801,20.549424)" r="117.14"/>
  <linearGradient id="linearGradient3005" y2="609.51" gradientUnits="userSpaceOnUse" x2="302.86" gradientTransform="matrix(0.06558731,0,0,0.041103,8.2948726,20.549424)" y1="366.65" x1="302.86">
   <stop id="stop5050-0" stop-color="#000" stop-opacity="0" offset="0"/>
   <stop id="stop5056-8" stop-color="#000" offset="0.5"/>
   <stop id="stop5052-8" stop-color="#000" stop-opacity="0" offset="1"/>
  </linearGradient>
  <linearGradient id="linearGradient3047" y2="37.515" xlink:href="#linearGradient2736" gradientUnits="userSpaceOnUse" x2="6.5973" gradientTransform="matrix(0.71678762,0,0,0.70983654,174.80843,21.004724)" y1="35.292" x1="6.521"/>
  <linearGradient id="linearGradient3053" y2="37.515" xlink:href="#linearGradient2736" gradientUnits="userSpaceOnUse" x2="6.5973" gradientTransform="matrix(-0.71637258,0,0,0.70983654,208.5512,21.004724)" y1="35.292" x1="6.521"/>
  <linearGradient id="linearGradient3059" y2="37.515" xlink:href="#linearGradient2736" gradientUnits="userSpaceOnUse" x2="6.5973" gradientTransform="matrix(-0.71678762,0,0,0.68006311,208.52704,21.207496)" y1="35.292" x1="6.521"/>
  <linearGradient id="linearGradient3072" y2="50.645" gradientUnits="userSpaceOnUse" x2="27.987" gradientTransform="matrix(0.94696662,0,0,0.47894518,175.57668,22.821015)" y1="21.553" x1="5.9931">
   <stop id="stop6978" stop-color="#c1c3ae" offset="0"/>
   <stop id="stop6980" stop-color="#818373" offset="1"/>
  </linearGradient>
  <radialGradient id="radialGradient3081" xlink:href="#linearGradient5060" gradientUnits="userSpaceOnUse" cy="486.65" cx="605.71" gradientTransform="matrix(-0.0437249,0,0,0.02740202,207.79483,32.366284)" r="117.14"/>
  <radialGradient id="radialGradient3084" xlink:href="#linearGradient5060" gradientUnits="userSpaceOnUse" cy="486.65" cx="605.71" gradientTransform="matrix(0.0437249,0,0,0.02740202,176.20517,32.366284)" r="117.14"/>
  <linearGradient id="linearGradient3087" y2="609.51" gradientUnits="userSpaceOnUse" x2="302.86" gradientTransform="matrix(0.0437249,0,0,0.02740202,176.19657,32.366284)" y1="366.65" x1="302.86">
   <stop id="stop5050" stop-color="#000" stop-opacity="0" offset="0"/>
   <stop id="stop5056" stop-color="#000" offset="0.5"/>
   <stop id="stop5052" stop-color="#000" stop-opacity="0" offset="1"/>
  </linearGradient>
  <linearGradient id="linearGradient3933">
   <stop id="stop3935" stop-color="#000" stop-opacity="0.302" offset="0"/>
   <stop id="stop3941" stop-color="#000" stop-opacity="0.2" offset="0.88501"/>
   <stop id="stop3937" stop-color="#000" stop-opacity="0" offset="1"/>
  </linearGradient>
  <filter id="filter3391" height="1.336" width="1.1344" color-interpolation-filters="sRGB" y="-0.168" x="-0.067199998">
   <feGaussianBlur id="feGaussianBlur3393" stdDeviation="0.14"/>
  </filter>
  <linearGradient id="linearGradient3198">
   <stop id="stop3200" stop-color="#FFF" offset="0"/>
   <stop id="stop3202" stop-color="#FFF" stop-opacity="0" offset="1"/>
  </linearGradient>
  <filter id="filter3391-9" height="1.336" width="1.1344" color-interpolation-filters="sRGB" y="-0.168" x="-0.067199998">
   <feGaussianBlur id="feGaussianBlur3393-0" stdDeviation="0.14"/>
  </filter>
  <linearGradient id="linearGradient3052" y2="25.5" gradientUnits="userSpaceOnUse" x2="20.5" gradientTransform="translate(-8.0000004,15.967633)" y1="27.5" x1="16">
   <stop id="stop3375" stop-color="#000" offset="0"/>
   <stop id="stop3377" stop-color="#373737" stop-opacity="0" offset="1"/>
  </linearGradient>
  <linearGradient id="linearGradient3054" y2="27" gradientUnits="userSpaceOnUse" x2="21.5" gradientTransform="translate(-8.0000004,15.967633)" y1="27" x1="16">
   <stop id="stop3444" stop-color="#000" offset="0"/>
   <stop id="stop3446" stop-color="#000" stop-opacity="0" offset="1"/>
  </linearGradient>
  <radialGradient id="radialGradient3319" gradientUnits="userSpaceOnUse" cy="14.19" cx="18" gradientTransform="matrix(0.5171097,0,0,0.09372595,295.71991,44.846526)" r="5.5055">
   <stop id="stop3454-5" stop-color="#FFF" offset="0"/>
   <stop id="stop3456-4" stop-color="#FFF" stop-opacity="0" offset="1"/>
  </radialGradient>
  <linearGradient id="linearGradient3324" y2="18.312" xlink:href="#linearGradient3198" gradientUnits="userSpaceOnUse" x2="23" gradientTransform="matrix(0.5171097,0,0,0.509783,292.0317,35.706174)" y1="18.312" x1="17.605"/>
  <linearGradient id="linearGradient3327" y2="19" xlink:href="#linearGradient3198" gradientUnits="userSpaceOnUse" x2="22" gradientTransform="matrix(0.51465215,0,0,0.51427415,291.66575,36.071594)" y1="25.27" x1="30.376"/>
  <radialGradient id="radialGradient3330" gradientUnits="userSpaceOnUse" cy="13.192" cx="25.017" gradientTransform="matrix(0.6409233,0,0,0.23260484,289.25876,43.172933)" r="9.7513">
   <stop id="stop3173-2" stop-color="#fd0000" offset="0"/>
   <stop id="stop3175-4" stop-color="#6a0000" offset="1"/>
  </radialGradient>
  <linearGradient id="linearGradient3332" y2="7.1352" gradientUnits="userSpaceOnUse" x2="22.036" gradientTransform="matrix(0.6409233,0,0,0.4699064,289.25876,40.562616)" y1="15.984" x1="27.217">
   <stop id="stop4404-2" stop-color="#e80000" offset="0"/>
   <stop id="stop4406-1" stop-color="#490000" offset="1"/>
  </linearGradient>
  <radialGradient id="radialGradient3335" gradientUnits="userSpaceOnUse" cy="26.577" cx="26.625" gradientTransform="matrix(0.4905733,-0.1612076,0.0594676,0.1758752,290.71541,48.376273)" r="12.5">
   <stop id="stop3191-6" stop-color="#e40000" offset="0"/>
   <stop id="stop3193-5" stop-color="#490000" offset="1"/>
  </radialGradient>
  <linearGradient id="linearGradient3338" y2="27" gradientUnits="userSpaceOnUse" x2="19" gradientTransform="matrix(0.5171097,0,0,0.5097831,291.58937,36.045709)" y1="33" x1="29">
   <stop id="stop3222-8" stop-color="#373737" offset="0"/>
   <stop id="stop3224-5" stop-color="#FFF" offset="1"/>
  </linearGradient>
  <linearGradient id="linearGradient3341" y2="5.0354" xlink:href="#linearGradient3198" gradientUnits="userSpaceOnUse" x2="17.799" gradientTransform="matrix(0.7042341,0,0,0.4625263,287.80262,49.412231)" y1="12.038" x1="25.269"/>
  <linearGradient id="linearGradient3344" y2="9.277" gradientUnits="userSpaceOnUse" x2="21.44" gradientTransform="matrix(0.6372376,0,0,0.5144393,289.34354,48.841188)" y1="14.243" x1="27.681">
   <stop id="stop3230-47" stop-color="#373737" offset="0"/>
   <stop id="stop3232-9" stop-color="#cfcfcf" stop-opacity="0.67826086" offset="1"/>
  </linearGradient>
  <radialGradient id="radialGradient3347" gradientUnits="userSpaceOnUse" cy="22.614" cx="27.5" gradientTransform="matrix(0.7955532,-0.039214,0.04965997,0.9791288,282.80915,27.21674)" r="6.5">
   <stop id="stop3348-2" stop-color="#737373" offset="0"/>
   <stop id="stop3350-2" stop-color="#000" stop-opacity="0" offset="1"/>
  </radialGradient>
  <radialGradient id="radialGradient3350" gradientUnits="userSpaceOnUse" cy="33.188" cx="37.375" gradientTransform="matrix(0.2103491,0,0,0.05208649,295.79979,45.30668)" r="14.625">
   <stop id="stop4335-63" stop-color="#000" offset="0"/>
   <stop id="stop4337-0" stop-color="#000" stop-opacity="0" offset="1"/>
  </radialGradient>
  <radialGradient id="radialGradient3115" gradientUnits="userSpaceOnUse" cy="14.19" cx="18" gradientTransform="matrix(1.0342194,0,0,0.1874519,175.43981,33.693031)" r="5.5055">
   <stop id="stop3454-4" stop-color="#FFF" offset="0"/>
   <stop id="stop3456-9" stop-color="#FFF" stop-opacity="0" offset="1"/>
  </radialGradient>
  <linearGradient id="linearGradient3120" y2="18.312" xlink:href="#linearGradient3198" gradientUnits="userSpaceOnUse" x2="23" gradientTransform="matrix(1.0342194,0,0,1.019566,168.0634,15.412329)" y1="18.312" x1="17.605"/>
  <linearGradient id="linearGradient3123" y2="19" xlink:href="#linearGradient3198" gradientUnits="userSpaceOnUse" x2="22" gradientTransform="matrix(1.0293043,0,0,1.0285483,167.3315,16.143168)" y1="25.27" x1="30.376"/>
  <radialGradient id="radialGradient3126" gradientUnits="userSpaceOnUse" cy="13.192" cx="25.017" gradientTransform="matrix(1.2818465,0,0,0.46520969,162.51753,30.345846)" r="9.7513">
   <stop id="stop3173-5" stop-color="#fd0000" offset="0"/>
   <stop id="stop3175-8" stop-color="#6a0000" offset="1"/>
  </radialGradient>
  <linearGradient id="linearGradient3128" y2="7.1352" gradientUnits="userSpaceOnUse" x2="22.036" gradientTransform="matrix(1.2818465,0,0,0.9398128,162.51753,25.125212)" y1="15.984" x1="27.217">
   <stop id="stop4404-1" stop-color="#e80000" offset="0"/>
   <stop id="stop4406-5" stop-color="#490000" offset="1"/>
  </linearGradient>
  <radialGradient id="radialGradient3132" gradientUnits="userSpaceOnUse" cy="26.577" cx="26.625" gradientTransform="matrix(0.9811466,-0.3224151,0.1189352,0.3517503,165.43081,40.752527)" r="12.5">
   <stop id="stop3191-9" stop-color="#e40000" offset="0"/>
   <stop id="stop3193-7" stop-color="#490000" offset="1"/>
  </radialGradient>
  <linearGradient id="linearGradient3135" y2="27" gradientUnits="userSpaceOnUse" x2="19" gradientTransform="matrix(1.0342194,0,0,1.0195661,167.17874,16.091399)" y1="33" x1="29">
   <stop id="stop3222-6" stop-color="#373737" offset="0"/>
   <stop id="stop3224-3" stop-color="#FFF" offset="1"/>
  </linearGradient>
  <linearGradient id="linearGradient3138" y2="5.0354" xlink:href="#linearGradient3198" gradientUnits="userSpaceOnUse" x2="17.799" gradientTransform="matrix(1.2818465,0,0,0.9398128,162.51753,42.162079)" y1="12.038" x1="25.269"/>
  <linearGradient id="linearGradient3141" y2="9.277" gradientUnits="userSpaceOnUse" x2="21.44" gradientTransform="matrix(1.2744752,0,0,1.0288787,162.68707,41.182354)" y1="14.243" x1="27.681">
   <stop id="stop3230-4" stop-color="#373737" offset="0"/>
   <stop id="stop3232-6" stop-color="#cfcfcf" stop-opacity="0.67826086" offset="1"/>
  </linearGradient>
  <radialGradient id="radialGradient3144" gradientUnits="userSpaceOnUse" cy="22.614" cx="27.5" gradientTransform="matrix(1.5911065,-0.078428,0.09931994,1.9582576,149.61831,-1.566539)" r="6.5">
   <stop id="stop3348-7" stop-color="#737373" offset="0"/>
   <stop id="stop3350-0" stop-color="#000" stop-opacity="0" offset="1"/>
  </radialGradient>
  <radialGradient id="radialGradient3148" gradientUnits="userSpaceOnUse" cy="33.188" cx="37.375" gradientTransform="matrix(0.4206982,0,0,0.10417298,175.59958,34.613341)" r="14.625">
   <stop id="stop4335-6" stop-color="#000" offset="0"/>
   <stop id="stop4337-5" stop-color="#000" stop-opacity="0" offset="1"/>
  </radialGradient>
  <radialGradient id="radialGradient3926" gradientUnits="userSpaceOnUse" cy="14.19" cx="18" gradientTransform="matrix(1.551329,0,0,0.2811779,7.1597166,22.539516)" r="5.5055">
   <stop id="stop3454" stop-color="#FFF" offset="0"/>
   <stop id="stop3456" stop-color="#FFF" stop-opacity="0" offset="1"/>
  </radialGradient>
  <linearGradient id="linearGradient3930" y2="18.312" xlink:href="#linearGradient3198" gradientUnits="userSpaceOnUse" x2="23" gradientTransform="matrix(1.551329,0,0,1.5293489,-3.904902,-4.881536)" y1="18.312" x1="17.605"/>
  <linearGradient id="linearGradient3934" y2="19" xlink:href="#linearGradient3198" gradientUnits="userSpaceOnUse" x2="22" gradientTransform="matrix(1.5439563,0,0,1.5428223,-5.002754,-3.785278)" y1="25.27" x1="30.376"/>
  <radialGradient id="radialGradient3937" gradientUnits="userSpaceOnUse" cy="13.192" cx="25.017" gradientTransform="matrix(1.9227697,0,0,0.69781448,-12.223704,17.518739)" r="9.7513">
   <stop id="stop3173" stop-color="#fd0000" offset="0"/>
   <stop id="stop3175" stop-color="#6a0000" offset="1"/>
  </radialGradient>
  <linearGradient id="linearGradient3939" y2="7.1352" gradientUnits="userSpaceOnUse" x2="22.036" gradientTransform="matrix(1.9227697,0,0,1.4097191,-12.223704,9.6877877)" y1="15.984" x1="27.217">
   <stop id="stop4404" stop-color="#e80000" offset="0"/>
   <stop id="stop4406" stop-color="#490000" offset="1"/>
  </linearGradient>
  <radialGradient id="radialGradient3942" gradientUnits="userSpaceOnUse" cy="26.577" cx="26.625" gradientTransform="matrix(1.4717199,-0.4836227,0.1784028,0.5276254,-7.853782,33.128759)" r="12.5">
   <stop id="stop3191" stop-color="#e40000" offset="0"/>
   <stop id="stop3193" stop-color="#490000" offset="1"/>
  </radialGradient>
  <linearGradient id="linearGradient3945" y2="27" gradientUnits="userSpaceOnUse" x2="19" gradientTransform="matrix(1.551329,0,0,1.529349,-5.231894,-3.862931)" y1="33" x1="29">
   <stop id="stop3222" stop-color="#373737" offset="0"/>
   <stop id="stop3224" stop-color="#FFF" offset="1"/>
  </linearGradient>
  <linearGradient id="linearGradient3948" y2="5.0354" xlink:href="#linearGradient3198" gradientUnits="userSpaceOnUse" x2="17.799" gradientTransform="matrix(1.9227697,0,0,1.4097191,-12.223704,34.901493)" y1="12.038" x1="25.269"/>
  <linearGradient id="linearGradient3951" y2="9.277" gradientUnits="userSpaceOnUse" x2="21.44" gradientTransform="matrix(1.9227697,0,0,1.4097191,-12.223704,34.922047)" y1="19.122" x1="29.455">
   <stop id="stop3230" stop-color="#373737" offset="0"/>
   <stop id="stop3232" stop-color="#373737" stop-opacity="0" offset="1"/>
  </linearGradient>
  <radialGradient id="radialGradient3955" gradientUnits="userSpaceOnUse" cy="22.614" cx="27.5" gradientTransform="matrix(2.3866597,-0.117642,0.1489799,2.9373862,-31.572536,-30.349836)" r="6.5">
   <stop id="stop3348" stop-color="#737373" offset="0"/>
   <stop id="stop3350" stop-color="#000" stop-opacity="0" offset="1"/>
  </radialGradient>
  <radialGradient id="radialGradient3958" xlink:href="#linearGradient3933" gradientUnits="userSpaceOnUse" cy="55.076" cx="31.071" gradientTransform="matrix(1.1299037,0.00293243,-0.00104388,0.40221964,-2.8919247,29.673628)" r="8.5533"/>
  <radialGradient id="radialGradient3961" gradientUnits="userSpaceOnUse" cy="33.188" cx="37.375" gradientTransform="matrix(0.6310473,0,0,0.15625948,7.3993769,23.919982)" r="14.625">
   <stop id="stop4335" stop-color="#000" offset="0"/>
   <stop id="stop4337" stop-color="#000" stop-opacity="0" offset="1"/>
  </radialGradient>
  <radialGradient id="radialGradient3965" xlink:href="#linearGradient3933" gradientUnits="userSpaceOnUse" cy="55.076" cx="31.071" gradientTransform="matrix(0.76667705,0.00198975,-7.0830713e-4,0.27291933,168.20209,38.465153)" r="8.5533"/>
 </defs>
 <rect id="icon:48-32" height="48" width="48" y="8" x="8" fill="none"/>
 <g id="g3007">
  <rect id="rect6709-7" opacity="0.40206" style="color:#000000;" fill-rule="nonzero" height="9.9822" width="31.669" y="35.62" x="16.165" fill="url(#linearGradient3005)"/>
  <path id="path6711-6" opacity="0.40206185" style="color:#000000;" d="m47.835,35.62v9.9816c3.3776,0.01879,8.1654-2.2364,8.1654-4.9914,0-2.7551-3.7691-4.9902-8.1654-4.9902z" fill-rule="nonzero" fill="url(#radialGradient3002)"/>
  <path id="path6713-3" opacity="0.40206185" style="color:#000000;" d="m16.165,35.62v9.9816c-3.3776,0.01879-8.1654-2.2364-8.1654-4.9914,0-2.7551,3.7691-4.9902,8.1654-4.9902z" fill-rule="nonzero" fill="url(#radialGradient2999)"/>
  <path id="path6215-7" stroke-linejoin="round" d="m17.714,23.236-5.8519,17.242c-0.16526,0.48692,0.2108,1.0227,0.66772,1.0222l38.342-0.04031c0.66978-0.000704,1.1443-0.78002,0.87335-1.4691l-6.522-16.59c-0.18502-0.47057-0.80775-0.87603-1.4088-0.87662l-24.878-0.02449c-0.47059-0.000463-1.0083,0.10788-1.2215,0.73606z" fill-rule="evenodd" stroke="#404040" stroke-linecap="round" stroke-miterlimit="4" stroke-width="1.00000048" fill="url(#linearGradient2990)"/>
  <path id="path6984-5" d="m12.406,40.9,5.7806-17.526,0.85188-0.37962,24.826,0.06327,0.85188,0.82251-25.313,0-0.36509,0.18981-5.1722,15.691-1.4604,1.1389z" fill-opacity="0.40935669" fill-rule="evenodd" fill="#FFF"/>
  <path id="path2344-9" d="m12.649,41.279,38.213,0.06327,0.54764-0.69597-6.6325-17.146,5.9632,16.324-37.118,0.12654-0.97358,1.3287z" fill-opacity="0.12865499" fill-rule="evenodd" fill="#000"/>
  <path id="path2726-2" stroke-linejoin="round" style="color:#000000;" d="m12.329,36.174c0.09146-0.21864,0.30772-0.37644,0.62306-0.37259l1.9452,0.02378,3.1001,3.8369s-0.51061,1.3141-0.29499,2.1537c0.44357,0.4115-0.0089,0.68434-0.0089,0.68434h-6.3218c-0.48629,0-1.0929-1.2837-0.79022-2.0453,0.77502-1.9501,0.90053-2.2558,1.7476-4.2808z" fill-rule="evenodd" stroke-dashoffset="0" stroke="#272840" stroke-linecap="round" stroke-miterlimit="4" stroke-width="1.00000036" fill="url(#linearGradient2977)"/>
  <path id="path2744-1" d="m12.8,36.364-1.778,4.2808,6.0482,0-5.258-0.53906,1.4437-3.4088,1.4133-0.34881-1.8692,0.01586z" fill-opacity="0.48538011" fill-rule="evenodd" fill="#FFF"/>
  <path id="path2746-8" stroke-linejoin="round" style="color:#000000;" d="m51.672,36.174c-0.09146-0.21864-0.30772-0.37644-0.62306-0.37259l-1.9452,0.02378-3.1001,3.8369s0.51061,1.3141,0.29499,2.1537c-0.44357,0.4115,0.0089,0.68434,0.0089,0.68434h6.3218c0.48629,0,1.0929-1.2837,0.79022-2.0453-0.77502-1.9501-0.90053-2.2558-1.7476-4.2808z" fill-rule="evenodd" stroke-dashoffset="0" stroke="#272840" stroke-linecap="round" stroke-miterlimit="4" stroke-width="1.00000036" fill="url(#linearGradient2977)"/>
  <path id="path2750-5" style="color:#000000;" d="m51.126,36.322-1.7838,0-2.7939,3.4306s0.2364,0.82962,0.27938,1.2781c0.04298,0.44844-0.10746,1.009-0.10746,1.009s0.64474-0.9193,0.55877-1.4126c-0.08596-0.49329-0.19342-0.89688-0.19342-0.89688l2.4715-3.1391,1.5689-0.26906z" fill-opacity="0.48538011" fill-rule="evenodd" fill="#FFF"/>
  <path id="path2752-4" stroke-linejoin="round" style="color:#000000;" d="m17.041,25.077,5.2761-2.6906c0.35016-0.17857-0.29797-0.98657-0.68772-0.98657h-4.2123l-1.2035,3.2288c-0.17129,0.45953,0.32205,1.8984,0.48355,1.435l0.34386-0.98657z" fill-rule="evenodd" stroke-dashoffset="0" stroke="#272840" stroke-linecap="round" stroke-miterlimit="4" stroke-width="0.80000037" fill="url(#linearGradient2971)"/>
  <path id="path2756-1" style="color:#000000;" d="m16.665,25.57c-0.12785-0.27934-0.18118-0.58414-0.01075-1.0314l1.0423-2.7355,3.9006,0.01121-3.4816,0.43723-1.268,2.3319c-0.31268,0.57504-0.23068,0.63493-0.18268,0.98657z" fill-opacity="0.48538011" fill-rule="evenodd" fill="#FFF"/>
  <path id="path2758-5" stroke-linejoin="round" style="color:#000000;" d="m45.869,25.077-5.2761-2.6906c-0.35016-0.17857,0.29797-0.98657,0.68772-0.98657h4.2123l1.2035,3.2288c0.17129,0.45953-0.32205,1.8984-0.48355,1.435l-0.34386-0.98657z" fill-rule="evenodd" stroke-dashoffset="0" stroke="#272840" stroke-linecap="round" stroke-miterlimit="4" stroke-width="0.80000037" fill="url(#linearGradient2965)"/>
  <path id="path2762-9" style="color:#000000;" d="m45.229,21.825s-3.6776-0.04756-3.9055-0.03171c-0.22795,0.01585-0.37991,0.30124-0.37991,0.30124s4.9845,2.5368,5.106,2.616c0.12157,0.07928,0.24314,0.36466,0.24314,0.36466s0.04558-0.41222-0.18236-0.60248c-0.22795-0.19026-3.9028-2.2057-4.559-2.4575,2.0497-0.17978,2.3757-0.13212,3.6776-0.19026z" fill-opacity="0.48538011" fill-rule="evenodd" fill="#FFF"/>
  <g transform="matrix(0.66,0,0,0.66,28,16)" id="g3985">
    <path id="path4331" opacity="0.07000002" fill="url(#radialGradient3961)" d="m40.214,29.106a9.2291,2.2853,0,0,1,-18.458,0,9.2291,2.2853,0,1,1,18.458,0z"/>
    <path id="path3420" fill="url(#radialGradient3958)" d="m42.261,52a10.426,3.4403,0,0,1,-20.852,0,10.426,3.4403,0,1,1,20.852,0z"/>
    <path id="path3159" fill-rule="evenodd" fill="url(#radialGradient3955)" d="m39.757,12.195c-0.77566-1.5293-14.738-1.5293-15.513,0,0,2.294-2.327,9.1761-2.327,15.293,0,6.1174,7.7566,9.9408,10.084,9.9408,2.327,0,10.084-3.8234,10.084-9.9408s-2.327-12.999-2.327-15.293z"/>
    <path id="path2385" stroke-linejoin="round" style="stroke-dasharray:none;" d="m39.757,12.216a7.7566,1.5499,0,0,1,-15.513,0,7.7566,1.5499,0,1,1,15.513,0z" stroke="#919191" stroke-linecap="round" stroke-miterlimit="0" stroke-width="1.01098025" fill="none"/>
    <path id="path3157" stroke-linejoin="round" style="stroke-dasharray:none;" d="m40.532,50.429a8.5323,3.0793,0,0,1,-17.065,0,8.5323,3.0793,0,1,1,17.065,0z" stroke="#888a85" stroke-linecap="round" stroke-miterlimit="0" stroke-width="1.01098025" fill="url(#linearGradient3951)"/>
    <path id="path3236" stroke-linejoin="round" style="stroke-dasharray:none;" d="m39.5,50.408a7.5,1.9084,0,0,1,-15,0,7.5,1.9084,0,1,1,15,0z" stroke="url(#linearGradient3948)" stroke-linecap="round" stroke-miterlimit="0" stroke-width="1.01098025" fill="none"/>
    <path id="path3163" stroke-linejoin="miter" d="m28.122,35.9c1.5513,1.5293,3.1027,3.8234,3.1027,12.235,0,1.5293,0.20982,2.294,0.77566,2.294,0.56585,0,0.77566-0.76467,0.77566-2.294,0-8.4114,1.5513-10.705,3.1027-12.235" fill-rule="evenodd" stroke="#888a85" stroke-linecap="round" stroke-width="1px" fill="url(#linearGradient3945)"/>
    <path id="path3179" fill-rule="evenodd" fill="url(#radialGradient3942)" d="m22,25c0,9,7.673,12.429,10,12.429s10-3.429,10-12.429"/>
    <path id="path5788" stroke-linejoin="round" style="stroke-dasharray:none;" d="m41.5,25.195a9.5,2.294,0,0,1,-19,0,9.5,2.294,0,1,1,19,0z" stroke="url(#linearGradient3939)" stroke-linecap="round" stroke-miterlimit="0" stroke-width="1.01098025" fill="url(#radialGradient3937)"/>
    <path id="path3196" stroke-linejoin="miter" d="m23,25.5c-1.5,6.5,6.5,11,9,11s11-4.5,9-12c-0.5-4-1-6-2-9.5" stroke="url(#linearGradient3934)" stroke-linecap="round" stroke-width="1px" fill="none"/>
    <path id="path3266" fill-rule="evenodd" fill="url(#linearGradient3930)" d="M26.346,15,31,15s-2.327,9.1761-2.327,12.999c0,2.294,1.5513,3.8234,0.77566,4.588-0.77566,0.76468-4.654-2.2183-4.654-6.1174,0-1.5293,0.77566-6.1174,1.5513-11.47z"/>
    <path id="path3358" stroke-linejoin="round" d="M39.5,13.5c-0.5,0.5-3.462,1.05-7.743,1.05-4.282,0-6.757-0.55-7.257-1.05" stroke="#FFF" stroke-linecap="round" stroke-miterlimit="0" stroke-width="1.01098013" fill="none"/>
    <path id="path3450" stroke-linejoin="round" d="m41,24.5c0,0.85555-3.5,2-9.019,2.0499-5.519,0.05-8.981-1.194-8.981-2.05" stroke="url(#radialGradient3926)" stroke-linecap="round" stroke-miterlimit="0" stroke-width="1.01098013" fill="none"/>
    <path id="path3395" opacity="0.35" stroke-linejoin="round" d="m30,38s0.5,1,2,0.95884c1.5-0.041,2-0.959,2-0.959" stroke="#000" stroke-linecap="round" stroke-width="1px" fill="none"/>
    <path id="path3363" stroke-linejoin="round" d="m8,43.468,2.5-1,2.4688,0.125-4.9687,0.875z" fill-rule="evenodd" transform="matrix(1.551329,0,0,1.5293489,19.589369,-16.477177)" filter="url(#filter3391)" stroke="url(#linearGradient3054)" stroke-linecap="round" stroke-width="0.64922434px" fill="url(#linearGradient3052)"/>
    <path id="path3354" stroke-linejoin="miter" d="m39.757,12.195c-0.77566-2.294-14.738-2.294-15.513,0,0,2.294-2.327,9.1761-2.327,15.293,0,6.1174,7.7566,9.9408,10.084,9.9408,2.327,0,10.084-3.8234,10.084-9.9408s-2.327-12.999-2.327-15.293z" stroke="#919191" stroke-linecap="round" stroke-width="1px" fill="none"/>
    
   </g>
 </g>
</svg>
