<?xml version="1.0" encoding="UTF-8" standalone="no"?>
<!-- Created with Inkscape (http://www.inkscape.org/) -->
<svg id="svg2" xmlns:rdf="http://www.w3.org/1999/02/22-rdf-syntax-ns#" xmlns="http://www.w3.org/2000/svg" height="64" width="64" version="1.1" xmlns:cc="http://creativecommons.org/ns#" xmlns:xlink="http://www.w3.org/1999/xlink" xmlns:dc="http://purl.org/dc/elements/1.1/">
 <metadata id="metadata256">
  <rdf:RDF>
   <cc:Work rdf:about="">
    <dc:format>image/svg+xml</dc:format>
    <dc:type rdf:resource="http://purl.org/dc/dcmitype/StillImage"/>
   </cc:Work>
  </rdf:RDF>
 </metadata>
 <defs id="defs4">
  <linearGradient id="linearGradient5060">
   <stop id="stop5062" stop-color="#000" offset="0"/>
   <stop id="stop5064" stop-color="#000" stop-opacity="0" offset="1"/>
  </linearGradient>
  <radialGradient id="radialGradient3358" gradientUnits="userSpaceOnUse" cy="64.568" cx="20.892" gradientTransform="matrix(0.139938,0,0,0.139938,35.721513,27.674097)" r="5.257">
   <stop id="stop15573" stop-color="#F0F0F0" offset="0"/>
   <stop id="stop15575" stop-color="#9a9a9a" offset="1"/>
  </radialGradient>
  <radialGradient id="radialGradient3361" gradientUnits="userSpaceOnUse" cy="114.57" cx="20.892" gradientTransform="matrix(0.139938,0,0,0.139958,35.721513,25.675035)" r="5.256">
   <stop id="stop15566" stop-color="#F0F0F0" offset="0"/>
   <stop id="stop15568" stop-color="#9a9a9a" offset="1"/>
  </radialGradient>
  <radialGradient id="radialGradient3366" gradientUnits="userSpaceOnUse" cy="7.2679" cx="8.1436" gradientTransform="matrix(0.620387,0,0,0.664961,34.736907,27.964797)" r="38.159">
   <stop id="stop15664" stop-color="#FFF" offset="0"/>
   <stop id="stop15666" stop-color="#f8f8f8" offset="1"/>
  </radialGradient>
  <radialGradient id="radialGradient3385" gradientUnits="userSpaceOnUse" cy="35.737" cx="33.967" gradientTransform="matrix(0.633443,0,0,0.686955,32.144957,27.094026)" r="86.708">
   <stop id="stop260" stop-color="#fafafa" offset="0"/>
   <stop id="stop261" stop-color="#BBB" offset="1"/>
  </radialGradient>
  <radialGradient id="radialGradient3387" gradientUnits="userSpaceOnUse" cy="3.7561" cx="8.8244" gradientTransform="matrix(0.638574,0,0,0.681436,34.356618,27.520562)" r="37.752">
   <stop id="stop270" stop-color="#a3a3a3" offset="0"/>
   <stop id="stop271" stop-color="#4c4c4c" offset="1"/>
  </radialGradient>
  <linearGradient id="linearGradient3407" y2="46.689" gradientUnits="userSpaceOnUse" x2="12.854" gradientTransform="matrix(1.317489,0,0,0.816256,7.120414,6.681844)" y1="32.567" x1="13.036">
   <stop id="stop320" stop-color="#FFF" offset="0"/>
   <stop id="stop321" stop-color="#FFF" stop-opacity="0" offset="1"/>
  </linearGradient>
  <linearGradient id="linearGradient3410" y2="32.05" gradientUnits="userSpaceOnUse" x2="22.065" gradientTransform="translate(7.999987,8.00001)" y1="36.988" x1="22.176">
   <stop id="stop9768" stop-color="#6194cb" offset="0"/>
   <stop id="stop9770" stop-color="#729fcf" offset="1"/>
  </linearGradient>
  <linearGradient id="linearGradient3415" y2="66.834" gradientUnits="userSpaceOnUse" x2="9.8981" gradientTransform="matrix(1.516844,0,0,0.708978,7.120414,6.681844)" y1="13.773" x1="6.2298">
   <stop id="stop3984" stop-color="#FFF" stop-opacity="0.87628865" offset="0"/>
   <stop id="stop3985" stop-color="#fffffe" stop-opacity="0" offset="1"/>
  </linearGradient>
  <radialGradient id="radialGradient3433" gradientUnits="userSpaceOnUse" cy="37.518" cx="20.706" gradientTransform="matrix(1.055022,-0.02734504,0.177703,1.190929,4.42781,0.874709)" r="30.905">
   <stop id="stop1790" stop-color="#202020" offset="0"/>
   <stop id="stop1791" stop-color="#b9b9b9" offset="1"/>
  </radialGradient>
  <linearGradient id="linearGradient3435" y2="6.1803" gradientUnits="userSpaceOnUse" x2="15.515" gradientTransform="translate(7.999987,8.00001)" y1="31.368" x1="18.113">
   <stop id="stop3098" stop-color="#424242" offset="0"/>
   <stop id="stop3100" stop-color="#777" offset="1"/>
  </linearGradient>
  <radialGradient id="radialGradient3449" xlink:href="#linearGradient5060" gradientUnits="userSpaceOnUse" cy="486.65" cx="605.71" gradientTransform="matrix(-0.06276731,0,0,0.041103,53.934532,26.154624)" r="117.14"/>
  <radialGradient id="radialGradient3452" xlink:href="#linearGradient5060" gradientUnits="userSpaceOnUse" cy="486.65" cx="605.71" gradientTransform="matrix(0.06276731,0,0,0.041103,8.5874336,26.154624)" r="117.14"/>
  <linearGradient id="linearGradient3455" y2="609.51" gradientUnits="userSpaceOnUse" x2="302.86" gradientTransform="matrix(0.06276731,0,0,0.041103,8.575081,26.154624)" y1="366.65" x1="302.86">
   <stop id="stop5050" stop-color="#000" stop-opacity="0" offset="0"/>
   <stop id="stop5056" stop-color="#000" offset="0.5"/>
   <stop id="stop5052" stop-color="#000" stop-opacity="0" offset="1"/>
  </linearGradient>
  <linearGradient id="linearGradient3474" y2="7.1091" gradientUnits="userSpaceOnUse" x2="21.933" gradientTransform="matrix(0.2897962,0,0,-0.19680807,39.531107,42.306854)" y1="24.627" x1="21.933">
   <stop id="stop7650" stop-color="#8595bc" offset="0"/>
   <stop id="stop7652" stop-color="#041a3b" offset="1"/>
  </linearGradient>
  <linearGradient id="linearGradient3078" y2="7.1091" gradientUnits="userSpaceOnUse" x2="21.933" gradientTransform="matrix(0.22539705,0,0,-0.13120538,194.91986,49.701408)" y1="24.627" x1="21.933">
   <stop id="stop7650-5" stop-color="#8595bc" offset="0"/>
   <stop id="stop7652-9" stop-color="#041a3b" offset="1"/>
  </linearGradient>
  <radialGradient id="radialGradient3082" gradientUnits="userSpaceOnUse" cy="7.2679" cx="8.1436" gradientTransform="matrix(0.620387,0,0,0.664961,191.68814,35.961633)" r="38.159">
   <stop id="stop15664-4" stop-color="#FFF" offset="0"/>
   <stop id="stop15666-1" stop-color="#f8f8f8" offset="1"/>
  </radialGradient>
  <radialGradient id="radialGradient3085" gradientUnits="userSpaceOnUse" cy="35.737" cx="33.967" gradientTransform="matrix(0.633443,0,0,0.686955,189.09619,35.090862)" r="86.708">
   <stop id="stop260-2" stop-color="#fafafa" offset="0"/>
   <stop id="stop261-1" stop-color="#BBB" offset="1"/>
  </radialGradient>
  <radialGradient id="radialGradient3087" gradientUnits="userSpaceOnUse" cy="3.7561" cx="8.8244" gradientTransform="matrix(0.638574,0,0,0.681436,191.30785,35.517398)" r="37.752">
   <stop id="stop270-8" stop-color="#a3a3a3" offset="0"/>
   <stop id="stop271-5" stop-color="#4c4c4c" offset="1"/>
  </radialGradient>
  <linearGradient id="linearGradient3091" y2="46.689" gradientUnits="userSpaceOnUse" x2="12.854" gradientTransform="matrix(0.862152,0,0,0.517484,176.11979,24.226639)" y1="32.567" x1="13.036">
   <stop id="stop320-5" stop-color="#FFF" offset="0"/>
   <stop id="stop321-9" stop-color="#FFF" stop-opacity="0" offset="1"/>
  </linearGradient>
  <linearGradient id="linearGradient3094" y2="32.05" gradientUnits="userSpaceOnUse" x2="22.065" gradientTransform="matrix(0.671517,0,0,0.665524,176.28709,24.203769)" y1="36.988" x1="22.176">
   <stop id="stop9768-3" stop-color="#6194cb" offset="0"/>
   <stop id="stop9770-1" stop-color="#729fcf" offset="1"/>
  </linearGradient>
  <linearGradient id="linearGradient3109" y2="66.834" gradientUnits="userSpaceOnUse" x2="9.8981" gradientTransform="matrix(0.984921,0,0,0.473262,175.78747,23.086278)" y1="13.773" x1="6.2298">
   <stop id="stop3984-4" stop-color="#FFF" stop-opacity="0.87628865" offset="0"/>
   <stop id="stop3985-7" stop-color="#fffffe" stop-opacity="0" offset="1"/>
  </linearGradient>
  <radialGradient id="radialGradient3112" gradientUnits="userSpaceOnUse" cy="37.518" cx="20.706" gradientTransform="matrix(0.699211,-0.01853653,0.117772,0.807302,173.77967,18.880289)" r="30.905">
   <stop id="stop1790-0" stop-color="#202020" offset="0"/>
   <stop id="stop1791-3" stop-color="#b9b9b9" offset="1"/>
  </radialGradient>
  <linearGradient id="linearGradient3114" y2="6.1803" gradientUnits="userSpaceOnUse" x2="15.515" gradientTransform="matrix(0.662746,0,0,0.677875,176.14712,23.710354)" y1="31.368" x1="18.113">
   <stop id="stop3098-4" stop-color="#424242" offset="0"/>
   <stop id="stop3100-4" stop-color="#777" offset="1"/>
  </linearGradient>
  <radialGradient id="radialGradient3118" xlink:href="#linearGradient5060" gradientUnits="userSpaceOnUse" cy="486.65" cx="605.71" gradientTransform="matrix(-0.0400465,0,0,0.02500006,205.90458,37.543574)" r="117.14"/>
  <radialGradient id="radialGradient3121" xlink:href="#linearGradient5060" gradientUnits="userSpaceOnUse" cy="486.65" cx="605.71" gradientTransform="matrix(0.0400465,0,0,0.02500006,176.97244,37.543574)" r="117.14"/>
  <linearGradient id="linearGradient3124" y2="609.51" gradientUnits="userSpaceOnUse" x2="302.86" gradientTransform="matrix(0.0400465,0,0,0.02500006,176.96456,37.543574)" y1="366.65" x1="302.86">
   <stop id="stop5050-1" stop-color="#000" stop-opacity="0" offset="0"/>
   <stop id="stop5056-5" stop-color="#000" offset="0.5"/>
   <stop id="stop5052-9" stop-color="#000" stop-opacity="0" offset="1"/>
  </linearGradient>
  <linearGradient id="linearGradient3933">
   <stop id="stop3935" stop-color="#000" stop-opacity="0.302" offset="0"/>
   <stop id="stop3941" stop-color="#000" stop-opacity="0.2" offset="0.88501"/>
   <stop id="stop3937" stop-color="#000" stop-opacity="0" offset="1"/>
  </linearGradient>
  <filter id="filter3391" height="1.336" width="1.1344" color-interpolation-filters="sRGB" y="-0.168" x="-0.067199998">
   <feGaussianBlur id="feGaussianBlur3393" stdDeviation="0.14"/>
  </filter>
  <linearGradient id="linearGradient3198">
   <stop id="stop3200" stop-color="#FFF" offset="0"/>
   <stop id="stop3202" stop-color="#FFF" stop-opacity="0" offset="1"/>
  </linearGradient>
  <filter id="filter3391-9" height="1.336" width="1.1344" color-interpolation-filters="sRGB" y="-0.168" x="-0.067199998">
   <feGaussianBlur id="feGaussianBlur3393-0" stdDeviation="0.14"/>
  </filter>
  <linearGradient id="linearGradient3052" y2="25.5" gradientUnits="userSpaceOnUse" x2="20.5" gradientTransform="translate(-8.0000004,15.967633)" y1="27.5" x1="16">
   <stop id="stop3375" stop-color="#000" offset="0"/>
   <stop id="stop3377" stop-color="#373737" stop-opacity="0" offset="1"/>
  </linearGradient>
  <linearGradient id="linearGradient3054" y2="27" gradientUnits="userSpaceOnUse" x2="21.5" gradientTransform="translate(-8.0000004,15.967633)" y1="27" x1="16">
   <stop id="stop3444" stop-color="#000" offset="0"/>
   <stop id="stop3446" stop-color="#000" stop-opacity="0" offset="1"/>
  </linearGradient>
  <radialGradient id="radialGradient3319" gradientUnits="userSpaceOnUse" cy="14.19" cx="18" gradientTransform="matrix(0.5171097,0,0,0.09372595,295.71991,44.846526)" r="5.5055">
   <stop id="stop3454-5" stop-color="#FFF" offset="0"/>
   <stop id="stop3456-4" stop-color="#FFF" stop-opacity="0" offset="1"/>
  </radialGradient>
  <linearGradient id="linearGradient3324" y2="18.312" xlink:href="#linearGradient3198" gradientUnits="userSpaceOnUse" x2="23" gradientTransform="matrix(0.5171097,0,0,0.509783,292.0317,35.706174)" y1="18.312" x1="17.605"/>
  <linearGradient id="linearGradient3327" y2="19" xlink:href="#linearGradient3198" gradientUnits="userSpaceOnUse" x2="22" gradientTransform="matrix(0.51465215,0,0,0.51427415,291.66575,36.071594)" y1="25.27" x1="30.376"/>
  <radialGradient id="radialGradient3330" gradientUnits="userSpaceOnUse" cy="13.192" cx="25.017" gradientTransform="matrix(0.6409233,0,0,0.23260484,289.25876,43.172933)" r="9.7513">
   <stop id="stop3173-2" stop-color="#fd0000" offset="0"/>
   <stop id="stop3175-4" stop-color="#6a0000" offset="1"/>
  </radialGradient>
  <linearGradient id="linearGradient3332" y2="7.1352" gradientUnits="userSpaceOnUse" x2="22.036" gradientTransform="matrix(0.6409233,0,0,0.4699064,289.25876,40.562616)" y1="15.984" x1="27.217">
   <stop id="stop4404-2" stop-color="#e80000" offset="0"/>
   <stop id="stop4406-1" stop-color="#490000" offset="1"/>
  </linearGradient>
  <radialGradient id="radialGradient3335" gradientUnits="userSpaceOnUse" cy="26.577" cx="26.625" gradientTransform="matrix(0.4905733,-0.1612076,0.0594676,0.1758752,290.71541,48.376273)" r="12.5">
   <stop id="stop3191-6" stop-color="#e40000" offset="0"/>
   <stop id="stop3193-5" stop-color="#490000" offset="1"/>
  </radialGradient>
  <linearGradient id="linearGradient3338" y2="27" gradientUnits="userSpaceOnUse" x2="19" gradientTransform="matrix(0.5171097,0,0,0.5097831,291.58937,36.045709)" y1="33" x1="29">
   <stop id="stop3222-8" stop-color="#373737" offset="0"/>
   <stop id="stop3224-5" stop-color="#FFF" offset="1"/>
  </linearGradient>
  <linearGradient id="linearGradient3341" y2="5.0354" xlink:href="#linearGradient3198" gradientUnits="userSpaceOnUse" x2="17.799" gradientTransform="matrix(0.7042341,0,0,0.4625263,287.80262,49.412231)" y1="12.038" x1="25.269"/>
  <linearGradient id="linearGradient3344" y2="9.277" gradientUnits="userSpaceOnUse" x2="21.44" gradientTransform="matrix(0.6372376,0,0,0.5144393,289.34354,48.841188)" y1="14.243" x1="27.681">
   <stop id="stop3230-47" stop-color="#373737" offset="0"/>
   <stop id="stop3232-9" stop-color="#cfcfcf" stop-opacity="0.67826086" offset="1"/>
  </linearGradient>
  <radialGradient id="radialGradient3347" gradientUnits="userSpaceOnUse" cy="22.614" cx="27.5" gradientTransform="matrix(0.7955532,-0.039214,0.04965997,0.9791288,282.80915,27.21674)" r="6.5">
   <stop id="stop3348-2" stop-color="#737373" offset="0"/>
   <stop id="stop3350-2" stop-color="#000" stop-opacity="0" offset="1"/>
  </radialGradient>
  <radialGradient id="radialGradient3350" gradientUnits="userSpaceOnUse" cy="33.188" cx="37.375" gradientTransform="matrix(0.2103491,0,0,0.05208649,295.79979,45.30668)" r="14.625">
   <stop id="stop4335-63" stop-color="#000" offset="0"/>
   <stop id="stop4337-0" stop-color="#000" stop-opacity="0" offset="1"/>
  </radialGradient>
  <radialGradient id="radialGradient3115" gradientUnits="userSpaceOnUse" cy="14.19" cx="18" gradientTransform="matrix(1.0342194,0,0,0.1874519,175.43981,33.693031)" r="5.5055">
   <stop id="stop3454-4" stop-color="#FFF" offset="0"/>
   <stop id="stop3456-9" stop-color="#FFF" stop-opacity="0" offset="1"/>
  </radialGradient>
  <linearGradient id="linearGradient3120" y2="18.312" xlink:href="#linearGradient3198" gradientUnits="userSpaceOnUse" x2="23" gradientTransform="matrix(1.0342194,0,0,1.019566,168.0634,15.412329)" y1="18.312" x1="17.605"/>
  <linearGradient id="linearGradient3123" y2="19" xlink:href="#linearGradient3198" gradientUnits="userSpaceOnUse" x2="22" gradientTransform="matrix(1.0293043,0,0,1.0285483,167.3315,16.143168)" y1="25.27" x1="30.376"/>
  <radialGradient id="radialGradient3126" gradientUnits="userSpaceOnUse" cy="13.192" cx="25.017" gradientTransform="matrix(1.2818465,0,0,0.46520969,162.51753,30.345846)" r="9.7513">
   <stop id="stop3173-5" stop-color="#fd0000" offset="0"/>
   <stop id="stop3175-8" stop-color="#6a0000" offset="1"/>
  </radialGradient>
  <linearGradient id="linearGradient3128" y2="7.1352" gradientUnits="userSpaceOnUse" x2="22.036" gradientTransform="matrix(1.2818465,0,0,0.9398128,162.51753,25.125212)" y1="15.984" x1="27.217">
   <stop id="stop4404-1" stop-color="#e80000" offset="0"/>
   <stop id="stop4406-5" stop-color="#490000" offset="1"/>
  </linearGradient>
  <radialGradient id="radialGradient3132" gradientUnits="userSpaceOnUse" cy="26.577" cx="26.625" gradientTransform="matrix(0.9811466,-0.3224151,0.1189352,0.3517503,165.43081,40.752527)" r="12.5">
   <stop id="stop3191-9" stop-color="#e40000" offset="0"/>
   <stop id="stop3193-7" stop-color="#490000" offset="1"/>
  </radialGradient>
  <linearGradient id="linearGradient3135" y2="27" gradientUnits="userSpaceOnUse" x2="19" gradientTransform="matrix(1.0342194,0,0,1.0195661,167.17874,16.091399)" y1="33" x1="29">
   <stop id="stop3222-6" stop-color="#373737" offset="0"/>
   <stop id="stop3224-3" stop-color="#FFF" offset="1"/>
  </linearGradient>
  <linearGradient id="linearGradient3138" y2="5.0354" xlink:href="#linearGradient3198" gradientUnits="userSpaceOnUse" x2="17.799" gradientTransform="matrix(1.2818465,0,0,0.9398128,162.51753,42.162079)" y1="12.038" x1="25.269"/>
  <linearGradient id="linearGradient3141" y2="9.277" gradientUnits="userSpaceOnUse" x2="21.44" gradientTransform="matrix(1.2744752,0,0,1.0288787,162.68707,41.182354)" y1="14.243" x1="27.681">
   <stop id="stop3230-4" stop-color="#373737" offset="0"/>
   <stop id="stop3232-6" stop-color="#cfcfcf" stop-opacity="0.67826086" offset="1"/>
  </linearGradient>
  <radialGradient id="radialGradient3144" gradientUnits="userSpaceOnUse" cy="22.614" cx="27.5" gradientTransform="matrix(1.5911065,-0.078428,0.09931994,1.9582576,149.61831,-1.566539)" r="6.5">
   <stop id="stop3348-7" stop-color="#737373" offset="0"/>
   <stop id="stop3350-0" stop-color="#000" stop-opacity="0" offset="1"/>
  </radialGradient>
  <radialGradient id="radialGradient3148" gradientUnits="userSpaceOnUse" cy="33.188" cx="37.375" gradientTransform="matrix(0.4206982,0,0,0.10417298,175.59958,34.613341)" r="14.625">
   <stop id="stop4335-6" stop-color="#000" offset="0"/>
   <stop id="stop4337-5" stop-color="#000" stop-opacity="0" offset="1"/>
  </radialGradient>
  <radialGradient id="radialGradient3926" gradientUnits="userSpaceOnUse" cy="14.19" cx="18" gradientTransform="matrix(1.551329,0,0,0.2811779,7.1597166,22.539516)" r="5.5055">
   <stop id="stop3454" stop-color="#FFF" offset="0"/>
   <stop id="stop3456" stop-color="#FFF" stop-opacity="0" offset="1"/>
  </radialGradient>
  <linearGradient id="linearGradient3930" y2="18.312" xlink:href="#linearGradient3198" gradientUnits="userSpaceOnUse" x2="23" gradientTransform="matrix(1.551329,0,0,1.5293489,-3.904902,-4.881536)" y1="18.312" x1="17.605"/>
  <linearGradient id="linearGradient3934" y2="19" xlink:href="#linearGradient3198" gradientUnits="userSpaceOnUse" x2="22" gradientTransform="matrix(1.5439563,0,0,1.5428223,-5.002754,-3.785278)" y1="25.27" x1="30.376"/>
  <radialGradient id="radialGradient3937" gradientUnits="userSpaceOnUse" cy="13.192" cx="25.017" gradientTransform="matrix(1.9227697,0,0,0.69781448,-12.223704,17.518739)" r="9.7513">
   <stop id="stop3173" stop-color="#fd0000" offset="0"/>
   <stop id="stop3175" stop-color="#6a0000" offset="1"/>
  </radialGradient>
  <linearGradient id="linearGradient3939" y2="7.1352" gradientUnits="userSpaceOnUse" x2="22.036" gradientTransform="matrix(1.9227697,0,0,1.4097191,-12.223704,9.6877877)" y1="15.984" x1="27.217">
   <stop id="stop4404" stop-color="#e80000" offset="0"/>
   <stop id="stop4406" stop-color="#490000" offset="1"/>
  </linearGradient>
  <radialGradient id="radialGradient3942" gradientUnits="userSpaceOnUse" cy="26.577" cx="26.625" gradientTransform="matrix(1.4717199,-0.4836227,0.1784028,0.5276254,-7.853782,33.128759)" r="12.5">
   <stop id="stop3191" stop-color="#e40000" offset="0"/>
   <stop id="stop3193" stop-color="#490000" offset="1"/>
  </radialGradient>
  <linearGradient id="linearGradient3945" y2="27" gradientUnits="userSpaceOnUse" x2="19" gradientTransform="matrix(1.551329,0,0,1.529349,-5.231894,-3.862931)" y1="33" x1="29">
   <stop id="stop3222" stop-color="#373737" offset="0"/>
   <stop id="stop3224" stop-color="#FFF" offset="1"/>
  </linearGradient>
  <linearGradient id="linearGradient3948" y2="5.0354" xlink:href="#linearGradient3198" gradientUnits="userSpaceOnUse" x2="17.799" gradientTransform="matrix(1.9227697,0,0,1.4097191,-12.223704,34.901493)" y1="12.038" x1="25.269"/>
  <linearGradient id="linearGradient3951" y2="9.277" gradientUnits="userSpaceOnUse" x2="21.44" gradientTransform="matrix(1.9227697,0,0,1.4097191,-12.223704,34.922047)" y1="19.122" x1="29.455">
   <stop id="stop3230" stop-color="#373737" offset="0"/>
   <stop id="stop3232" stop-color="#373737" stop-opacity="0" offset="1"/>
  </linearGradient>
  <radialGradient id="radialGradient3955" gradientUnits="userSpaceOnUse" cy="22.614" cx="27.5" gradientTransform="matrix(2.3866597,-0.117642,0.1489799,2.9373862,-31.572536,-30.349836)" r="6.5">
   <stop id="stop3348" stop-color="#737373" offset="0"/>
   <stop id="stop3350" stop-color="#000" stop-opacity="0" offset="1"/>
  </radialGradient>
  <radialGradient id="radialGradient3958" xlink:href="#linearGradient3933" gradientUnits="userSpaceOnUse" cy="55.076" cx="31.071" gradientTransform="matrix(1.1299037,0.00293243,-0.00104388,0.40221964,-2.8919247,29.673628)" r="8.5533"/>
  <radialGradient id="radialGradient3961" gradientUnits="userSpaceOnUse" cy="33.188" cx="37.375" gradientTransform="matrix(0.6310473,0,0,0.15625948,7.3993769,23.919982)" r="14.625">
   <stop id="stop4335" stop-color="#000" offset="0"/>
   <stop id="stop4337" stop-color="#000" stop-opacity="0" offset="1"/>
  </radialGradient>
  <radialGradient id="radialGradient3965" xlink:href="#linearGradient3933" gradientUnits="userSpaceOnUse" cy="55.076" cx="31.071" gradientTransform="matrix(0.76667705,0.00198975,-7.0830713e-4,0.27291933,168.20209,38.465153)" r="8.5533"/>
 </defs>
 <rect id="icon:48-32" height="48" width="48" y="8" x="8" fill="none"/>
 <g id="g3491">
  <rect id="rect6709" opacity="0.40206" style="color:#000000;" fill-rule="nonzero" height="9.9822" width="30.308" y="41.225" x="16.107" fill="url(#linearGradient3455)"/>
  <path id="path6711" opacity="0.40206185" style="color:#000000;" d="m46.415,41.225v9.9816c3.2324,0.01879,7.8143-2.2364,7.8143-4.9914,0-2.7551-3.6071-4.9902-7.8143-4.9902z" fill-rule="nonzero" fill="url(#radialGradient3452)"/>
  <path id="path6713" opacity="0.40206185" style="color:#000000;" d="m16.107,41.225v9.9816c-3.2324,0.01879-7.8143-2.2364-7.8143-4.9914,0-2.7551,3.6071-4.9902,7.8143-4.9902z" fill-rule="nonzero" fill="url(#radialGradient3449)"/>
  <path id="path216" stroke-linejoin="round" style="stroke-dasharray:none;" d="m12.522,46.687c0.0218,0.4163,0.4599,0.83261,0.87621,0.83261h31.327c0.4163,0,0.81081-0.4163,0.78902-0.83261l-0.936-27.226c-0.0218-0.4163-0.4599-0.83262-0.8762-0.83262h-13.271c-0.48506,0-1.2345-0.31559-1.4016-1.1066l-0.61139-2.8931c-0.15547-0.73567-0.88221-1.0379-1.2985-1.0379h-14.779c-0.41631,0-0.81082,0.4163-0.78902,0.83261l0.97071,32.264z" fill-rule="nonzero" stroke="url(#linearGradient3435)" stroke-linecap="round" stroke-miterlimit="4" stroke-width="1" fill="url(#radialGradient3433)"/>
  <path id="path9788" opacity="0.11363633" stroke-linejoin="round" style="color:#000000;stroke-dasharray:none;" d="m13.227,30.563,30.266,0" fill-rule="nonzero" stroke-dashoffset="0" stroke="#000" stroke-linecap="round" stroke-miterlimit="4" stroke-width="1.00000024" fill="#729fcf"/>
  <path id="path9784" opacity="0.11363633" stroke-linejoin="round" style="color:#000000;stroke-dasharray:none;" d="m13.042,26.563,30.447,0" fill-rule="nonzero" stroke-dashoffset="0" stroke="#000" stroke-linecap="round" stroke-miterlimit="4" stroke-width="1.00000036" fill="#729fcf"/>
  <path id="path9778" opacity="0.11363633" stroke-linejoin="round" style="color:#000000;stroke-dasharray:none;" d="m12.981,20.563,30.507,0" fill-rule="nonzero" stroke-dashoffset="0" stroke="#000" stroke-linecap="round" stroke-miterlimit="4" stroke-width="1" fill="#729fcf"/>
  <path id="path9798" opacity="0.11363633" stroke-linejoin="round" style="color:#000000;stroke-dasharray:none;" d="m13.386,40.563,30.109,0" fill-rule="nonzero" stroke-dashoffset="0" stroke="#000" stroke-linecap="round" stroke-miterlimit="4" stroke-width="1.00000036" fill="#729fcf"/>
  <path id="path9800" opacity="0.11363633" stroke-linejoin="round" style="color:#000000;stroke-dasharray:none;" d="m13.509,42.563,29.988,0" fill-rule="nonzero" stroke-dashoffset="0" stroke="#000" stroke-linecap="round" stroke-miterlimit="4" stroke-width="1.00000024" fill="#729fcf"/>
  <path id="path9782" opacity="0.11363633" stroke-linejoin="round" style="color:#000000;stroke-dasharray:none;" d="m13.042,24.563,30.447,0" fill-rule="nonzero" stroke-dashoffset="0" stroke="#000" stroke-linecap="round" stroke-miterlimit="4" stroke-width="1.00000036" fill="#729fcf"/>
  <path id="path9780" opacity="0.11363633" stroke-linejoin="round" style="color:#000000;stroke-dasharray:none;" d="m13.011,22.563,30.477,0" fill-rule="nonzero" stroke-dashoffset="0" stroke="#000" stroke-linecap="round" stroke-miterlimit="4" stroke-width="1.00000024" fill="#729fcf"/>
  <path id="path9776" opacity="0.11363633" stroke-linejoin="round" style="color:#000000;stroke-dasharray:none;" d="m12.922,18.563,15.281,0" fill-rule="nonzero" stroke-dashoffset="0" stroke="#000" stroke-linecap="round" stroke-miterlimit="4" stroke-width="1.00000024" fill="#729fcf"/>
  <path id="path9774" opacity="0.11363633" stroke-linejoin="round" style="color:#000000;stroke-dasharray:none;" d="m12.874,16.563,14.784,0" fill-rule="nonzero" stroke-dashoffset="0" stroke="#000" stroke-linecap="round" stroke-miterlimit="4" stroke-width="0.99999982" fill="#729fcf"/>
  <path id="path9794" opacity="0.11363633" stroke-linejoin="round" style="color:#000000;stroke-dasharray:none;" d="m13.325,36.563,30.169,0" fill-rule="nonzero" stroke-dashoffset="0" stroke="#000" stroke-linecap="round" stroke-miterlimit="4" stroke-width="1.00000036" fill="#729fcf"/>
  <path id="path9792" opacity="0.11363633" stroke-linejoin="round" style="color:#000000;stroke-dasharray:none;" d="m13.288,34.563,30.205,0" fill-rule="nonzero" stroke-dashoffset="0" stroke="#000" stroke-linecap="round" stroke-miterlimit="4" stroke-width="1" fill="#729fcf"/>
  <path id="path9790" opacity="0.11363633" stroke-linejoin="round" style="color:#000000;stroke-dasharray:none;" d="m13.227,32.563,30.266,0" fill-rule="nonzero" stroke-dashoffset="0" stroke="#000" stroke-linecap="round" stroke-miterlimit="4" stroke-width="1.00000024" fill="#729fcf"/>
  <path id="path9786" opacity="0.11363633" stroke-linejoin="round" style="color:#000000;stroke-dasharray:none;" d="m13.196,28.563,30.296,0" fill-rule="nonzero" stroke-dashoffset="0" stroke="#000" stroke-linecap="round" stroke-miterlimit="4" stroke-width="1.00000012" fill="#729fcf"/>
  <path id="path9796" opacity="0.11363633" stroke-linejoin="round" style="color:#000000;stroke-dasharray:none;" d="m13.325,38.563,30.169,0" fill-rule="nonzero" stroke-dashoffset="0" stroke="#000" stroke-linecap="round" stroke-miterlimit="4" stroke-width="1.00000036" fill="#729fcf"/>
  <path id="path9802" opacity="0.11363633" stroke-linejoin="round" style="color:#000000;stroke-dasharray:none;" d="m13.509,44.563,29.988,0" fill-rule="nonzero" stroke-dashoffset="0" stroke="#000" stroke-linecap="round" stroke-miterlimit="4" stroke-width="1.00000024" fill="#729fcf"/>
  <path id="path219" opacity="0.45142858" style="color:#000000;" d="m14.068,46.864c0.01634,0.31223-0.18091,0.52038-0.49858,0.4163-0.317-0.104-0.536-0.312-0.552-0.624l-0.94772-32.064c-0.01634-0.31223,0.16519-0.50077,0.47741-0.50077l14.422-0.04769c0.31223,0,0.93194,0.30047,1.1329,1.3222l0.57349,2.8155c-0.42705-0.46526-0.41919-0.47962-0.63756-1.1567l-0.4061-1.2592c-0.21905-0.72765-0.6982-0.8319-1.0104-0.8319h-12.888c-0.31223,0-0.50948,0.20815-0.49313,0.52039l0.93801,31.515-0.10952-0.10408z" fill-rule="nonzero" display="block" fill="url(#linearGradient3415)"/>
  <path id="path221" d="m43.94,19.533c0.000015-0.10107-0.14684-0.25706-0.25816-0.25708l-13.563-0.0022s0.98092,0.61192,2.3241,0.62055l11.508,0.07391c0.000004-0.22036-0.01114-0.26647-0.01112-0.43518z" fill-opacity="0.50847461" fill-rule="nonzero" fill="#FFF"/>
  <path id="path233" stroke-linejoin="round" style="color:#000000;stroke-dasharray:none;" d="m47.784,47.511c1.1439-0.04406,1.9631-1.0963,2.047-2.321,0.79179-11.549,1.6594-21.232,1.6594-21.232,0.07215-0.24748-0.16791-0.49497-0.48014-0.49497h-34.371s-1.8503,21.867-1.8503,21.867c-0.11456,0.98207-0.46601,1.8047-1.5498,2.1837l34.545-0.0027z" fill-rule="nonzero" stroke-dashoffset="0" display="block" stroke="#3465a4" stroke-linecap="butt" stroke-miterlimit="4" stroke-width="1" fill="url(#linearGradient3410)"/>
  <path id="path304" opacity="0.46590911" stroke-linejoin="miter" d="m17.62,24.464,32.791,0.06481-1.574,20.002c-0.08432,1.0715-0.45068,1.4282-1.8727,1.4282-1.8715,0-28.678-0.03241-31.395-0.03241,0.2336-0.32081,0.33376-0.98862,0.3351-1.0046l1.7152-20.458z" stroke="url(#linearGradient3407)" stroke-linecap="round" stroke-width="0.9999997px" fill="none"/>
  <path id="path323" d="m17.62,24.223-1.1666,15.643s8.2962-4.1481,18.666-4.1481,15.555-11.495,15.555-11.495h-33.055z" fill-opacity="0.0892857" fill-rule="evenodd" fill="#FFF"/>
  <rect id="rect15391" stroke-linejoin="round" style="color:#000000;" fill-rule="nonzero" stroke-dashoffset="0" rx="1" ry="1" height="19" width="17" stroke="url(#radialGradient3387)" stroke-linecap="round" stroke-miterlimit="4" display="block" y="29.5" x="36.5" stroke-width="1" fill="url(#radialGradient3385)"/>
  <path id="path7644" opacity="0.66477272" d="m41.5,40.5,9,0,0-2.5589-9,0,0,2.5589z" fill-rule="nonzero" fill="url(#linearGradient3474)"/>
  <path id="path16203" opacity="0.66477272" d="m41.5,34.5,9,0,0,3.4411-9,0,0-3.4411z" fill-rule="nonzero" fill="#729fcf"/>
  <path id="path16209" opacity="0.03323861" d="m44.887,36.005c0,0.64544-0.56446,1.2029-1.2857,1.2029-0.6899,0-1.2857-0.52809-1.2857-1.2029,0-0.64544,0.56446-1.2029,1.2857-1.2029,0.6899,0,1.2857,0.52809,1.2857,1.2029z" fill-rule="nonzero" fill="#e8f52f"/>
  <path id="path16211" opacity="0.13847213" d="m44.761,36.005c0,0.58676-0.50174,1.0855-1.1603,1.0855-0.62718,0-1.1603-0.46941-1.1603-1.0855,0-0.58676,0.50174-1.0855,1.1603-1.0855,0.62718,0,1.1603,0.46941,1.1603,1.0855z" fill-rule="nonzero" fill="#ecf751"/>
  <path id="path16213" opacity="0.24377214" d="m44.636,36.005c0,0.52809-0.47038,0.96816-1.0348,0.96816-0.56446,0-1.0348-0.44007-1.0348-0.96816s0.47038-0.96816,1.0348-0.96816c0.56446,0,1.0348,0.44007,1.0348,0.96816z" fill-rule="nonzero" fill="#f0f972"/>
  <path id="path16215" opacity="0.34900567" d="m44.51,36.005c0,0.46941-0.40766,0.85081-0.90941,0.85081-0.50174,0-0.90941-0.3814-0.90941-0.85081s0.40766-0.85081,0.90941-0.85081c0.50174,0,0.90941,0.3814,0.90941,0.85081z" fill-rule="nonzero" fill="#f4fa95"/>
  <path id="path16217" opacity="0.45423919" d="m44.385,36.005c0,0.41074-0.34495,0.73346-0.78397,0.73346s-0.78397-0.32272-0.78397-0.73346,0.34495-0.73346,0.78397-0.73346,0.78397,0.32272,0.78397,0.73346z" fill-rule="nonzero" fill="#f7fcb7"/>
  <path id="path16219" opacity="0.5595392" d="m44.26,36.005c0,0.35206-0.31359,0.6161-0.65854,0.6161s-0.65854-0.29338-0.65854-0.6161,0.31359-0.6161,0.65854-0.6161,0.65854,0.29338,0.65854,0.6161z" fill-rule="nonzero" fill="#fbfddb"/>
  <path id="path16221" opacity="0.66477272" d="m44.134,36.005c0,0.29338-0.25087,0.52809-0.56446,0.52809s-0.56446-0.23471-0.56446-0.52809,0.25087-0.52809,0.56446-0.52809,0.56446,0.2347,0.56446,0.52809z" fill-rule="nonzero" fill="#FFF"/>
  <path id="path16223" opacity="0.19943183" fill-rule="nonzero" d="m46.643,38.44,2.2892,0,0.43902,0.11735-0.75261,0s0.75261,0.05868,1.1289,0.49875c0.37631,0.41074-0.43902,0.90948-0.43902,0.90948-0.03136-0.08801-0.21951-0.79213-0.59582-1.0855-0.28223-0.23471-0.59582-0.29338-0.59582-0.29338h-1.4739v-0.11735-0.02934z"/>
  <path id="path16225" opacity="0.19943183" fill-rule="nonzero" d="m48.148,38.616-1.3171,0,2.446,1.2909-1.1289-1.2909,0,0z"/>
  <path id="path16227" opacity="0.66477272" d="m46.643,38.469,2.2892,0,0.34495-0.20537-0.75261,0s0.6899-0.11735,0.78397-0.85081c0.09408-0.73346-1.0662-1.5549-1.0662-1.5549v0.02934c0.03136,0.17603,0.34495,1.4082,0.12544,1.8776-0.09408,0.41074-0.37631,0.49875-0.37631,0.49875h-1.4425l0.06272,0.20537h0.03136z" fill-rule="nonzero" fill="#515151"/>
  <path id="path16229" opacity="0.66477272" d="m48.023,38.146-1.3171,0,1.5679-2.2297-0.25087,2.2297z" fill-rule="nonzero" fill="#515151"/>
  <rect id="rect15660" stroke-linejoin="round" style="color:#000000;" display="block" stroke-dashoffset="0" rx="0.095498" ry="0.095967" height="17" width="15" stroke="url(#radialGradient3366)" stroke-linecap="round" stroke-miterlimit="4" y="30.5" x="37.5" stroke-width="1" fill="none"/>
  <path id="path2912" fill-rule="nonzero" fill="#FFF" d="m39.187,41.734c0,0.27614-0.2239,0.49993-0.5,0.49993-0.27624,0-0.5-0.22393-0.5-0.49993,0-0.27628,0.2239-0.50007,0.5-0.50007s0.5,0.22393,0.5,0.50007z"/>
  <path id="path2914" fill-rule="nonzero" fill="#FFF" d="m39.187,36.734c0,0.2761-0.2239,0.5-0.5,0.5-0.27624,0-0.5-0.2239-0.5-0.5,0-0.27624,0.2239-0.5,0.5-0.5s0.5,0.2239,0.5,0.5z"/>
  <path id="path15570" fill-rule="nonzero" fill="url(#radialGradient3361)" d="m39,41.5c0,0.27614-0.2239,0.49993-0.5,0.49993-0.27624,0-0.5-0.22393-0.5-0.49993,0-0.27628,0.2239-0.50007,0.5-0.50007s0.5,0.22393,0.5,0.50007z"/>
  <path id="path15577" fill-rule="nonzero" fill="url(#radialGradient3358)" d="m39,36.5c0,0.2761-0.2239,0.5-0.5,0.5-0.27624,0-0.5-0.2239-0.5-0.5,0-0.27624,0.2239-0.5,0.5-0.5s0.5,0.2239,0.5,0.5z"/>
  <rect id="rect2248" fill-opacity="0.54902" rx="0.5502" ry="0.20645" height="1" width="10" y="32" x="41" fill="#9b9b9b"/>
  <rect id="rect3186" fill-opacity="0.54902" rx="0.5502" ry="0.20645" height="1" width="10" y="42" x="41" fill="#9b9b9b"/>
  <rect id="rect3190" fill-opacity="0.54902" rx="0.5502" ry="0.20645" height="1" width="9" y="44" x="41" fill="#9b9b9b"/>
  <rect id="rect8163" stroke-linejoin="miter" style="color:#000000;stroke-dasharray:none;" stroke-dashoffset="0" height="6.266" width="9.266" stroke="#729ed1" stroke-linecap="butt" stroke-miterlimit="4" y="34.367" x="41.367" stroke-width="0.73403" fill="none"/>
  <g transform="matrix(0.66,0,0,0.66,28,16)" id="g3985">
    <path id="path4331" opacity="0.07000002" fill="url(#radialGradient3961)" d="m40.214,29.106a9.2291,2.2853,0,0,1,-18.458,0,9.2291,2.2853,0,1,1,18.458,0z"/>
    <path id="path3420" fill="url(#radialGradient3958)" d="m42.261,52a10.426,3.4403,0,0,1,-20.852,0,10.426,3.4403,0,1,1,20.852,0z"/>
    <path id="path3159" fill-rule="evenodd" fill="url(#radialGradient3955)" d="m39.757,12.195c-0.77566-1.5293-14.738-1.5293-15.513,0,0,2.294-2.327,9.1761-2.327,15.293,0,6.1174,7.7566,9.9408,10.084,9.9408,2.327,0,10.084-3.8234,10.084-9.9408s-2.327-12.999-2.327-15.293z"/>
    <path id="path2385" stroke-linejoin="round" style="stroke-dasharray:none;" d="m39.757,12.216a7.7566,1.5499,0,0,1,-15.513,0,7.7566,1.5499,0,1,1,15.513,0z" stroke="#919191" stroke-linecap="round" stroke-miterlimit="0" stroke-width="1.01098025" fill="none"/>
    <path id="path3157" stroke-linejoin="round" style="stroke-dasharray:none;" d="m40.532,50.429a8.5323,3.0793,0,0,1,-17.065,0,8.5323,3.0793,0,1,1,17.065,0z" stroke="#888a85" stroke-linecap="round" stroke-miterlimit="0" stroke-width="1.01098025" fill="url(#linearGradient3951)"/>
    <path id="path3236" stroke-linejoin="round" style="stroke-dasharray:none;" d="m39.5,50.408a7.5,1.9084,0,0,1,-15,0,7.5,1.9084,0,1,1,15,0z" stroke="url(#linearGradient3948)" stroke-linecap="round" stroke-miterlimit="0" stroke-width="1.01098025" fill="none"/>
    <path id="path3163" stroke-linejoin="miter" d="m28.122,35.9c1.5513,1.5293,3.1027,3.8234,3.1027,12.235,0,1.5293,0.20982,2.294,0.77566,2.294,0.56585,0,0.77566-0.76467,0.77566-2.294,0-8.4114,1.5513-10.705,3.1027-12.235" fill-rule="evenodd" stroke="#888a85" stroke-linecap="round" stroke-width="1px" fill="url(#linearGradient3945)"/>
    <path id="path3179" fill-rule="evenodd" fill="url(#radialGradient3942)" d="m22,25c0,9,7.673,12.429,10,12.429s10-3.429,10-12.429"/>
    <path id="path5788" stroke-linejoin="round" style="stroke-dasharray:none;" d="m41.5,25.195a9.5,2.294,0,0,1,-19,0,9.5,2.294,0,1,1,19,0z" stroke="url(#linearGradient3939)" stroke-linecap="round" stroke-miterlimit="0" stroke-width="1.01098025" fill="url(#radialGradient3937)"/>
    <path id="path3196" stroke-linejoin="miter" d="m23,25.5c-1.5,6.5,6.5,11,9,11s11-4.5,9-12c-0.5-4-1-6-2-9.5" stroke="url(#linearGradient3934)" stroke-linecap="round" stroke-width="1px" fill="none"/>
    <path id="path3266" fill-rule="evenodd" fill="url(#linearGradient3930)" d="M26.346,15,31,15s-2.327,9.1761-2.327,12.999c0,2.294,1.5513,3.8234,0.77566,4.588-0.77566,0.76468-4.654-2.2183-4.654-6.1174,0-1.5293,0.77566-6.1174,1.5513-11.47z"/>
    <path id="path3358" stroke-linejoin="round" d="M39.5,13.5c-0.5,0.5-3.462,1.05-7.743,1.05-4.282,0-6.757-0.55-7.257-1.05" stroke="#FFF" stroke-linecap="round" stroke-miterlimit="0" stroke-width="1.01098013" fill="none"/>
    <path id="path3450" stroke-linejoin="round" d="m41,24.5c0,0.85555-3.5,2-9.019,2.0499-5.519,0.05-8.981-1.194-8.981-2.05" stroke="url(#radialGradient3926)" stroke-linecap="round" stroke-miterlimit="0" stroke-width="1.01098013" fill="none"/>
    <path id="path3395" opacity="0.35" stroke-linejoin="round" d="m30,38s0.5,1,2,0.95884c1.5-0.041,2-0.959,2-0.959" stroke="#000" stroke-linecap="round" stroke-width="1px" fill="none"/>
    <path id="path3363" stroke-linejoin="round" d="m8,43.468,2.5-1,2.4688,0.125-4.9687,0.875z" fill-rule="evenodd" transform="matrix(1.551329,0,0,1.5293489,19.589369,-16.477177)" filter="url(#filter3391)" stroke="url(#linearGradient3054)" stroke-linecap="round" stroke-width="0.64922434px" fill="url(#linearGradient3052)"/>
    <path id="path3354" stroke-linejoin="miter" d="m39.757,12.195c-0.77566-2.294-14.738-2.294-15.513,0,0,2.294-2.327,9.1761-2.327,15.293,0,6.1174,7.7566,9.9408,10.084,9.9408,2.327,0,10.084-3.8234,10.084-9.9408s-2.327-12.999-2.327-15.293z" stroke="#919191" stroke-linecap="round" stroke-width="1px" fill="none"/>
    
   </g>
 </g>
</svg>
