<?xml version="1.0" encoding="UTF-8" standalone="no"?>
<!-- Created with Inkscape (http://www.inkscape.org/) -->
<svg xmlns="http://www.w3.org/2000/svg" height="64" width="64" version="1.1" xmlns:xlink="http://www.w3.org/1999/xlink">
 <defs id="defs4">
  <linearGradient id="linearGradient5060">
   <stop id="stop5062" stop-color="#000" offset="0"/>
   <stop id="stop5064" stop-color="#000" stop-opacity="0" offset="1"/>
  </linearGradient>
  <linearGradient id="linearGradient3234" y2="72.064" gradientUnits="userSpaceOnUse" x2="9.9128" gradientTransform="matrix(2.772086,0,0,0.360739,8.618718,10.883883)" y1="57.228" x1="9.8698">
   <stop id="stop4735" stop-color="#000" stop-opacity="0.2371134" offset="0"/>
   <stop id="stop4737" stop-color="#000" stop-opacity="0" offset="1"/>
  </linearGradient>
  <radialGradient id="radialGradient3237" gradientUnits="userSpaceOnUse" cy="26.926" cx="9.1295" gradientTransform="translate(8,10)" r="2.1227">
   <stop id="stop4700" stop-color="#fffffd" offset="0"/>
   <stop id="stop4706" stop-color="#bbbbb9" offset="0.5"/>
   <stop id="stop4702" stop-color="#000" offset="1"/>
  </radialGradient>
  <linearGradient id="linearGradient3240" y2="54.136" gradientUnits="userSpaceOnUse" x2="10.338" gradientTransform="matrix(2.369844,0,0,0.421969,8,10)" y1="64.652" x1="10.338">
   <stop id="stop4682" stop-color="#f7f6f5" offset="0"/>
   <stop id="stop4684" stop-color="#f7f6f5" stop-opacity="0" offset="1"/>
  </linearGradient>
  <linearGradient id="linearGradient3242" y2="62.282" gradientUnits="userSpaceOnUse" x2="9.7053" gradientTransform="matrix(2.369844,0,0,0.421969,8,10)" y1="70.725" x1="9.7317">
   <stop id="stop4690" stop-color="#666" offset="0"/>
   <stop id="stop4692" stop-color="#000" stop-opacity="0" offset="1"/>
  </linearGradient>
  <linearGradient id="linearGradient3245" y2="19.337" gradientUnits="userSpaceOnUse" x2="20.718" gradientTransform="matrix(1.198769,0,0,0.853565,7.856914,10.034513)" y1="25.14" x1="20.771">
   <stop id="stop15664" stop-color="#FFF" stop-opacity="0" offset="0"/>
   <stop id="stop15666" stop-color="#f8f8f8" offset="1"/>
  </linearGradient>
  <linearGradient id="linearGradient3248" y2="25.247" gradientUnits="userSpaceOnUse" x2="24.79" gradientTransform="matrix(0.94571,0,0,1.076032,8.0501668,12.095404)" y1="3.6785" x1="25.057">
   <stop id="stop260" stop-color="#e0e0e0" offset="0"/>
   <stop id="stop4886" stop-color="#FFF" offset="0.40547"/>
   <stop id="stop4884" stop-color="#cdcdcd" offset="0.53448"/>
   <stop id="stop261" stop-color="#494949" offset="1"/>
  </linearGradient>
  <linearGradient id="linearGradient3251" y2="58.831" gradientUnits="userSpaceOnUse" x2="15.488" gradientTransform="matrix(1.492569,0,0,0.668741,8.0818807,10)" y1="32.539" x1="15.388">
   <stop id="stop4764" stop-color="#FFF" stop-opacity="0.12371134" offset="0"/>
   <stop id="stop4768" stop-color="#FFF" offset="0.10345"/>
   <stop id="stop4766" stop-color="#FFF" stop-opacity="0" offset="1"/>
  </linearGradient>
  <linearGradient id="linearGradient3255" y2="88.295" gradientUnits="userSpaceOnUse" x2="18.972" gradientTransform="matrix(2.291824,0,0,0.434269,8.0885518,10)" y1="88.295" x1="1.8456">
   <stop id="stop4743" stop-color="#dcdcda" offset="0"/>
   <stop id="stop4745" stop-color="#bab9b7" offset="1"/>
  </linearGradient>
  <linearGradient id="linearGradient3258" y2="88.295" gradientUnits="userSpaceOnUse" x2="18.972" gradientTransform="matrix(2.30272,0,0,0.437918,8,8.584034)" y1="88.295" x1="1.8456">
   <stop id="stop4670" stop-color="#8e8d87" offset="0"/>
   <stop id="stop4676" stop-color="#cbc9c1" offset="0.27586"/>
   <stop id="stop4672" stop-color="#8e8d87" offset="1"/>
  </linearGradient>
  <radialGradient id="radialGradient3261" xlink:href="#linearGradient5060" gradientUnits="userSpaceOnUse" cy="486.65" cx="605.71" gradientTransform="matrix(-0.06411657,0,0,0.04474252,55.290975,27.533109)" r="117.14"/>
  <radialGradient id="radialGradient3264" xlink:href="#linearGradient5060" gradientUnits="userSpaceOnUse" cy="486.65" cx="605.71" gradientTransform="matrix(0.06411657,0,0,0.04474252,8.9690787,27.533109)" r="117.14"/>
  <linearGradient id="linearGradient3267" y2="609.51" gradientUnits="userSpaceOnUse" x2="302.86" gradientTransform="matrix(0.06411657,0,0,0.04474252,8.9564606,27.533109)" y1="366.65" x1="302.86">
   <stop id="stop5050" stop-color="#000" stop-opacity="0" offset="0"/>
   <stop id="stop5056" stop-color="#000" offset="0.5"/>
   <stop id="stop5052" stop-color="#000" stop-opacity="0" offset="1"/>
  </linearGradient>
  <linearGradient id="linearGradient3452" y2="72.064" gradientUnits="userSpaceOnUse" x2="9.9128" gradientTransform="matrix(1.848058,0,0,0.217548,176.16504,27.417691)" y1="57.228" x1="9.8698">
   <stop id="stop4735-7" stop-color="#000" stop-opacity="0.2371134" offset="0"/>
   <stop id="stop4737-8" stop-color="#000" stop-opacity="0" offset="1"/>
  </linearGradient>
  <radialGradient id="radialGradient3455" gradientUnits="userSpaceOnUse" cy="26.926" cx="9.1295" gradientTransform="matrix(0.666667,0,0,0.666667,176.485,24.977912)" r="2.1227">
   <stop id="stop4700-5" stop-color="#fffffd" offset="0"/>
   <stop id="stop4706-9" stop-color="#bbbbb9" offset="0.5"/>
   <stop id="stop4702-6" stop-color="#000" offset="1"/>
  </radialGradient>
  <linearGradient id="linearGradient3458" y2="54.136" gradientUnits="userSpaceOnUse" x2="10.338" gradientTransform="matrix(1.544788,0,0,0.264367,175.91753,26.352368)" y1="64.652" x1="10.338">
   <stop id="stop4682-4" stop-color="#f7f6f5" offset="0"/>
   <stop id="stop4684-7" stop-color="#f7f6f5" stop-opacity="0" offset="1"/>
  </linearGradient>
  <linearGradient id="linearGradient3460" y2="62.282" gradientUnits="userSpaceOnUse" x2="9.7053" gradientTransform="matrix(1.544788,0,0,0.264367,175.91753,26.352368)" y1="70.725" x1="9.7317">
   <stop id="stop4690-3" stop-color="#666" offset="0"/>
   <stop id="stop4692-1" stop-color="#000" stop-opacity="0" offset="1"/>
  </linearGradient>
  <linearGradient id="linearGradient3463" y2="19.337" gradientUnits="userSpaceOnUse" x2="20.718" gradientTransform="matrix(0.814222,0,0,0.576573,175.51108,25.159616)" y1="25.14" x1="20.771">
   <stop id="stop15664-4" stop-color="#FFF" stop-opacity="0" offset="0"/>
   <stop id="stop15666-4" stop-color="#f8f8f8" offset="1"/>
  </linearGradient>
  <linearGradient id="linearGradient3466" y2="25.247" gradientUnits="userSpaceOnUse" x2="24.79" gradientTransform="matrix(0.665463,0,0,0.744457,175.04703,26.220115)" y1="3.6785" x1="25.057">
   <stop id="stop260-8" stop-color="#e0e0e0" offset="0"/>
   <stop id="stop4886-1" stop-color="#FFF" offset="0.40547"/>
   <stop id="stop4884-0" stop-color="#cdcdcd" offset="0.53448"/>
   <stop id="stop261-3" stop-color="#494949" offset="1"/>
  </linearGradient>
  <linearGradient id="linearGradient3469" y2="62.101" gradientUnits="userSpaceOnUse" x2="15.488" gradientTransform="matrix(0.955896,0,0,0.432698,176.56051,26.244382)" y1="32.539" x1="15.388">
   <stop id="stop4764-5" stop-color="#FFF" stop-opacity="0.12371134" offset="0"/>
   <stop id="stop4768-9" stop-color="#FFF" offset="0.10345"/>
   <stop id="stop4766-8" stop-color="#FFF" stop-opacity="0" offset="1"/>
  </linearGradient>
  <linearGradient id="linearGradient3473" y2="88.295" gradientUnits="userSpaceOnUse" x2="18.972" gradientTransform="matrix(1.510349,0,0,0.297131,176.15139,25.157883)" y1="88.295" x1="1.8456">
   <stop id="stop4743-6" stop-color="#dcdcda" offset="0"/>
   <stop id="stop4745-1" stop-color="#bab9b7" offset="1"/>
  </linearGradient>
  <linearGradient id="linearGradient3476" y2="88.295" gradientUnits="userSpaceOnUse" x2="18.972" gradientTransform="matrix(1.501108,0,0,0.291945,176.30256,24.55882)" y1="88.295" x1="1.8456">
   <stop id="stop4670-6" stop-color="#8e8d87" offset="0"/>
   <stop id="stop4676-3" stop-color="#cbc9c1" offset="0.27586"/>
   <stop id="stop4672-8" stop-color="#8e8d87" offset="1"/>
  </linearGradient>
  <radialGradient id="radialGradient3479" xlink:href="#linearGradient5060" gradientUnits="userSpaceOnUse" cy="486.65" cx="605.71" gradientTransform="matrix(-0.04107216,0,0,0.02533308,205.76489,39.275035)" r="117.14"/>
  <radialGradient id="radialGradient3482" xlink:href="#linearGradient5060" gradientUnits="userSpaceOnUse" cy="486.65" cx="605.71" gradientTransform="matrix(0.04460119,0,0,0.02533308,175.66896,39.275035)" r="117.14"/>
  <linearGradient id="linearGradient3485" y2="609.51" gradientUnits="userSpaceOnUse" x2="302.86" gradientTransform="matrix(0.04460119,0,0,0.02533308,175.66018,39.275035)" y1="366.65" x1="302.86">
   <stop id="stop5050-9" stop-color="#000" stop-opacity="0" offset="0"/>
   <stop id="stop5056-3" stop-color="#000" offset="0.5"/>
   <stop id="stop5052-9" stop-color="#000" stop-opacity="0" offset="1"/>
  </linearGradient>
  <linearGradient id="linearGradient3933">
   <stop id="stop3935" stop-color="#000" stop-opacity="0.302" offset="0"/>
   <stop id="stop3941" stop-color="#000" stop-opacity="0.2" offset="0.88501"/>
   <stop id="stop3937" stop-color="#000" stop-opacity="0" offset="1"/>
  </linearGradient>
  <filter id="filter3391" height="1.336" width="1.1344" color-interpolation-filters="sRGB" y="-0.168" x="-0.067199998">
   <feGaussianBlur id="feGaussianBlur3393" stdDeviation="0.14"/>
  </filter>
  <linearGradient id="linearGradient3198">
   <stop id="stop3200" stop-color="#FFF" offset="0"/>
   <stop id="stop3202" stop-color="#FFF" stop-opacity="0" offset="1"/>
  </linearGradient>
  <filter id="filter3391-9" height="1.336" width="1.1344" color-interpolation-filters="sRGB" y="-0.168" x="-0.067199998">
   <feGaussianBlur id="feGaussianBlur3393-0" stdDeviation="0.14"/>
  </filter>
  <linearGradient id="linearGradient3052" y2="25.5" gradientUnits="userSpaceOnUse" x2="20.5" gradientTransform="translate(-8.0000004,15.967633)" y1="27.5" x1="16">
   <stop id="stop3375" stop-color="#000" offset="0"/>
   <stop id="stop3377" stop-color="#373737" stop-opacity="0" offset="1"/>
  </linearGradient>
  <linearGradient id="linearGradient3054" y2="27" gradientUnits="userSpaceOnUse" x2="21.5" gradientTransform="translate(-8.0000004,15.967633)" y1="27" x1="16">
   <stop id="stop3444" stop-color="#000" offset="0"/>
   <stop id="stop3446" stop-color="#000" stop-opacity="0" offset="1"/>
  </linearGradient>
  <radialGradient id="radialGradient3319" gradientUnits="userSpaceOnUse" cy="14.19" cx="18" gradientTransform="matrix(0.5171097,0,0,0.09372595,295.71991,44.846526)" r="5.5055">
   <stop id="stop3454-5" stop-color="#FFF" offset="0"/>
   <stop id="stop3456-4" stop-color="#FFF" stop-opacity="0" offset="1"/>
  </radialGradient>
  <linearGradient id="linearGradient3324" y2="18.312" xlink:href="#linearGradient3198" gradientUnits="userSpaceOnUse" x2="23" gradientTransform="matrix(0.5171097,0,0,0.509783,292.0317,35.706174)" y1="18.312" x1="17.605"/>
  <linearGradient id="linearGradient3327" y2="19" xlink:href="#linearGradient3198" gradientUnits="userSpaceOnUse" x2="22" gradientTransform="matrix(0.51465215,0,0,0.51427415,291.66575,36.071594)" y1="25.27" x1="30.376"/>
  <radialGradient id="radialGradient3330" gradientUnits="userSpaceOnUse" cy="13.192" cx="25.017" gradientTransform="matrix(0.6409233,0,0,0.23260484,289.25876,43.172933)" r="9.7513">
   <stop id="stop3173-2" stop-color="#fd0000" offset="0"/>
   <stop id="stop3175-4" stop-color="#6a0000" offset="1"/>
  </radialGradient>
  <linearGradient id="linearGradient3332" y2="7.1352" gradientUnits="userSpaceOnUse" x2="22.036" gradientTransform="matrix(0.6409233,0,0,0.4699064,289.25876,40.562616)" y1="15.984" x1="27.217">
   <stop id="stop4404-2" stop-color="#e80000" offset="0"/>
   <stop id="stop4406-1" stop-color="#490000" offset="1"/>
  </linearGradient>
  <radialGradient id="radialGradient3335" gradientUnits="userSpaceOnUse" cy="26.577" cx="26.625" gradientTransform="matrix(0.4905733,-0.1612076,0.0594676,0.1758752,290.71541,48.376273)" r="12.5">
   <stop id="stop3191-6" stop-color="#e40000" offset="0"/>
   <stop id="stop3193-5" stop-color="#490000" offset="1"/>
  </radialGradient>
  <linearGradient id="linearGradient3338" y2="27" gradientUnits="userSpaceOnUse" x2="19" gradientTransform="matrix(0.5171097,0,0,0.5097831,291.58937,36.045709)" y1="33" x1="29">
   <stop id="stop3222-8" stop-color="#373737" offset="0"/>
   <stop id="stop3224-5" stop-color="#FFF" offset="1"/>
  </linearGradient>
  <linearGradient id="linearGradient3341" y2="5.0354" xlink:href="#linearGradient3198" gradientUnits="userSpaceOnUse" x2="17.799" gradientTransform="matrix(0.7042341,0,0,0.4625263,287.80262,49.412231)" y1="12.038" x1="25.269"/>
  <linearGradient id="linearGradient3344" y2="9.277" gradientUnits="userSpaceOnUse" x2="21.44" gradientTransform="matrix(0.6372376,0,0,0.5144393,289.34354,48.841188)" y1="14.243" x1="27.681">
   <stop id="stop3230-47" stop-color="#373737" offset="0"/>
   <stop id="stop3232-9" stop-color="#cfcfcf" stop-opacity="0.67826086" offset="1"/>
  </linearGradient>
  <radialGradient id="radialGradient3347" gradientUnits="userSpaceOnUse" cy="22.614" cx="27.5" gradientTransform="matrix(0.7955532,-0.039214,0.04965997,0.9791288,282.80915,27.21674)" r="6.5">
   <stop id="stop3348-2" stop-color="#737373" offset="0"/>
   <stop id="stop3350-2" stop-color="#000" stop-opacity="0" offset="1"/>
  </radialGradient>
  <radialGradient id="radialGradient3350" gradientUnits="userSpaceOnUse" cy="33.188" cx="37.375" gradientTransform="matrix(0.2103491,0,0,0.05208649,295.79979,45.30668)" r="14.625">
   <stop id="stop4335-63" stop-color="#000" offset="0"/>
   <stop id="stop4337-0" stop-color="#000" stop-opacity="0" offset="1"/>
  </radialGradient>
  <radialGradient id="radialGradient3115" gradientUnits="userSpaceOnUse" cy="14.19" cx="18" gradientTransform="matrix(1.0342194,0,0,0.1874519,175.43981,33.693031)" r="5.5055">
   <stop id="stop3454-4" stop-color="#FFF" offset="0"/>
   <stop id="stop3456-9" stop-color="#FFF" stop-opacity="0" offset="1"/>
  </radialGradient>
  <linearGradient id="linearGradient3120" y2="18.312" xlink:href="#linearGradient3198" gradientUnits="userSpaceOnUse" x2="23" gradientTransform="matrix(1.0342194,0,0,1.019566,168.0634,15.412329)" y1="18.312" x1="17.605"/>
  <linearGradient id="linearGradient3123" y2="19" xlink:href="#linearGradient3198" gradientUnits="userSpaceOnUse" x2="22" gradientTransform="matrix(1.0293043,0,0,1.0285483,167.3315,16.143168)" y1="25.27" x1="30.376"/>
  <radialGradient id="radialGradient3126" gradientUnits="userSpaceOnUse" cy="13.192" cx="25.017" gradientTransform="matrix(1.2818465,0,0,0.46520969,162.51753,30.345846)" r="9.7513">
   <stop id="stop3173-5" stop-color="#fd0000" offset="0"/>
   <stop id="stop3175-8" stop-color="#6a0000" offset="1"/>
  </radialGradient>
  <linearGradient id="linearGradient3128" y2="7.1352" gradientUnits="userSpaceOnUse" x2="22.036" gradientTransform="matrix(1.2818465,0,0,0.9398128,162.51753,25.125212)" y1="15.984" x1="27.217">
   <stop id="stop4404-1" stop-color="#e80000" offset="0"/>
   <stop id="stop4406-5" stop-color="#490000" offset="1"/>
  </linearGradient>
  <radialGradient id="radialGradient3132" gradientUnits="userSpaceOnUse" cy="26.577" cx="26.625" gradientTransform="matrix(0.9811466,-0.3224151,0.1189352,0.3517503,165.43081,40.752527)" r="12.5">
   <stop id="stop3191-9" stop-color="#e40000" offset="0"/>
   <stop id="stop3193-7" stop-color="#490000" offset="1"/>
  </radialGradient>
  <linearGradient id="linearGradient3135" y2="27" gradientUnits="userSpaceOnUse" x2="19" gradientTransform="matrix(1.0342194,0,0,1.0195661,167.17874,16.091399)" y1="33" x1="29">
   <stop id="stop3222-6" stop-color="#373737" offset="0"/>
   <stop id="stop3224-3" stop-color="#FFF" offset="1"/>
  </linearGradient>
  <linearGradient id="linearGradient3138" y2="5.0354" xlink:href="#linearGradient3198" gradientUnits="userSpaceOnUse" x2="17.799" gradientTransform="matrix(1.2818465,0,0,0.9398128,162.51753,42.162079)" y1="12.038" x1="25.269"/>
  <linearGradient id="linearGradient3141" y2="9.277" gradientUnits="userSpaceOnUse" x2="21.44" gradientTransform="matrix(1.2744752,0,0,1.0288787,162.68707,41.182354)" y1="14.243" x1="27.681">
   <stop id="stop3230-4" stop-color="#373737" offset="0"/>
   <stop id="stop3232-6" stop-color="#cfcfcf" stop-opacity="0.67826086" offset="1"/>
  </linearGradient>
  <radialGradient id="radialGradient3144" gradientUnits="userSpaceOnUse" cy="22.614" cx="27.5" gradientTransform="matrix(1.5911065,-0.078428,0.09931994,1.9582576,149.61831,-1.566539)" r="6.5">
   <stop id="stop3348-7" stop-color="#737373" offset="0"/>
   <stop id="stop3350-0" stop-color="#000" stop-opacity="0" offset="1"/>
  </radialGradient>
  <radialGradient id="radialGradient3148" gradientUnits="userSpaceOnUse" cy="33.188" cx="37.375" gradientTransform="matrix(0.4206982,0,0,0.10417298,175.59958,34.613341)" r="14.625">
   <stop id="stop4335-6" stop-color="#000" offset="0"/>
   <stop id="stop4337-5" stop-color="#000" stop-opacity="0" offset="1"/>
  </radialGradient>
  <radialGradient id="radialGradient3926" gradientUnits="userSpaceOnUse" cy="14.19" cx="18" gradientTransform="matrix(1.551329,0,0,0.2811779,7.1597166,22.539516)" r="5.5055">
   <stop id="stop3454" stop-color="#FFF" offset="0"/>
   <stop id="stop3456" stop-color="#FFF" stop-opacity="0" offset="1"/>
  </radialGradient>
  <linearGradient id="linearGradient3930" y2="18.312" xlink:href="#linearGradient3198" gradientUnits="userSpaceOnUse" x2="23" gradientTransform="matrix(1.551329,0,0,1.5293489,-3.904902,-4.881536)" y1="18.312" x1="17.605"/>
  <linearGradient id="linearGradient3934" y2="19" xlink:href="#linearGradient3198" gradientUnits="userSpaceOnUse" x2="22" gradientTransform="matrix(1.5439563,0,0,1.5428223,-5.002754,-3.785278)" y1="25.27" x1="30.376"/>
  <radialGradient id="radialGradient3937" gradientUnits="userSpaceOnUse" cy="13.192" cx="25.017" gradientTransform="matrix(1.9227697,0,0,0.69781448,-12.223704,17.518739)" r="9.7513">
   <stop id="stop3173" stop-color="#fd0000" offset="0"/>
   <stop id="stop3175" stop-color="#6a0000" offset="1"/>
  </radialGradient>
  <linearGradient id="linearGradient3939" y2="7.1352" gradientUnits="userSpaceOnUse" x2="22.036" gradientTransform="matrix(1.9227697,0,0,1.4097191,-12.223704,9.6877877)" y1="15.984" x1="27.217">
   <stop id="stop4404" stop-color="#e80000" offset="0"/>
   <stop id="stop4406" stop-color="#490000" offset="1"/>
  </linearGradient>
  <radialGradient id="radialGradient3942" gradientUnits="userSpaceOnUse" cy="26.577" cx="26.625" gradientTransform="matrix(1.4717199,-0.4836227,0.1784028,0.5276254,-7.853782,33.128759)" r="12.5">
   <stop id="stop3191" stop-color="#e40000" offset="0"/>
   <stop id="stop3193" stop-color="#490000" offset="1"/>
  </radialGradient>
  <linearGradient id="linearGradient3945" y2="27" gradientUnits="userSpaceOnUse" x2="19" gradientTransform="matrix(1.551329,0,0,1.529349,-5.231894,-3.862931)" y1="33" x1="29">
   <stop id="stop3222" stop-color="#373737" offset="0"/>
   <stop id="stop3224" stop-color="#FFF" offset="1"/>
  </linearGradient>
  <linearGradient id="linearGradient3948" y2="5.0354" xlink:href="#linearGradient3198" gradientUnits="userSpaceOnUse" x2="17.799" gradientTransform="matrix(1.9227697,0,0,1.4097191,-12.223704,34.901493)" y1="12.038" x1="25.269"/>
  <linearGradient id="linearGradient3951" y2="9.277" gradientUnits="userSpaceOnUse" x2="21.44" gradientTransform="matrix(1.9227697,0,0,1.4097191,-12.223704,34.922047)" y1="19.122" x1="29.455">
   <stop id="stop3230" stop-color="#373737" offset="0"/>
   <stop id="stop3232" stop-color="#373737" stop-opacity="0" offset="1"/>
  </linearGradient>
  <radialGradient id="radialGradient3955" gradientUnits="userSpaceOnUse" cy="22.614" cx="27.5" gradientTransform="matrix(2.3866597,-0.117642,0.1489799,2.9373862,-31.572536,-30.349836)" r="6.5">
   <stop id="stop3348" stop-color="#737373" offset="0"/>
   <stop id="stop3350" stop-color="#000" stop-opacity="0" offset="1"/>
  </radialGradient>
  <radialGradient id="radialGradient3958" xlink:href="#linearGradient3933" gradientUnits="userSpaceOnUse" cy="55.076" cx="31.071" gradientTransform="matrix(1.1299037,0.00293243,-0.00104388,0.40221964,-2.8919247,29.673628)" r="8.5533"/>
  <radialGradient id="radialGradient3961" gradientUnits="userSpaceOnUse" cy="33.188" cx="37.375" gradientTransform="matrix(0.6310473,0,0,0.15625948,7.3993769,23.919982)" r="14.625">
   <stop id="stop4335" stop-color="#000" offset="0"/>
   <stop id="stop4337" stop-color="#000" stop-opacity="0" offset="1"/>
  </radialGradient>
  <radialGradient id="radialGradient3965" xlink:href="#linearGradient3933" gradientUnits="userSpaceOnUse" cy="55.076" cx="31.071" gradientTransform="matrix(0.76667705,0.00198975,-7.0830713e-4,0.27291933,168.20209,38.465153)" r="8.5533"/>
 </defs>
 <g id="g3271">
  <rect id="rect6709" opacity="0.40206" style="color:#000000;" fill-rule="nonzero" height="10.866" width="30.959" y="43.938" x="16.65" fill="url(#linearGradient3267)"/>
  <path id="path6711" opacity="0.40206185" style="color:#000000;" d="m47.61,43.938v10.865c3.3018,0.0205,7.9823-2.4344,7.9823-5.4334s-3.6846-5.432-7.9823-5.432z" fill-rule="nonzero" fill="url(#radialGradient3264)"/>
  <path id="path6713" opacity="0.40206185" style="color:#000000;" d="m16.65,43.938v10.865c-3.3018,0.0205-7.9823-2.4344-7.9823-5.4334s3.6846-5.432,7.9823-5.432z" fill-rule="nonzero" fill="url(#radialGradient3261)"/>
  <rect id="rect4652" rx="1.7115" ry="1.7115" height="6.4916" width="38.438" stroke="#595959" stroke-miterlimit="4" y="44.004" x="12.75" stroke-width="1" fill="url(#linearGradient3258)"/>
  <path id="rect4609" stroke-linejoin="miter" style="color:#000000;" d="m15.131,29.5,33.74,0c0.38505,0,0.87703,0.28816,1.1804,0.72392,0.3034,0.43576,1.7365,2.61,2.0584,3.074,0.32193,0.46402,0.39295,0.90388,0.39295,1.4761v12.077c0,0.91357-0.732,1.649-1.6412,1.649h-37.721c-0.90925,0-1.6412-0.73548-1.6412-1.649v-12.077c0-0.49402,0.10117-1.2024,0.44641-1.6533,0.43565-0.56901,1.6043-2.548,1.9126-2.9676,0.30826-0.41965,0.87432-0.65312,1.2728-0.65312z" fill-rule="nonzero" stroke-dashoffset="0" stroke="#676767" stroke-linecap="butt" stroke-miterlimit="4" stroke-width="1.00000036" fill="url(#linearGradient3255)"/>
  <path id="path4718" fill-rule="evenodd" fill="#fbfbfb" d="m15.425,29.976c-0.50273,0-1.1197,0.0783-1.37,0.4915l-1.9004,3.1378c-0.28212,0.46583,0.03395,1.2633,0.93306,1.2633h37.643c1.3099,0,1.2197-1.0101,0.93306-1.4401l-1.7678-2.6516c-0.32053-0.4808-0.43688-0.80086-1.2374-0.80086h-33.234z"/>
  <path id="path4750" stroke-linejoin="miter" style="color:#000000;" d="m15.605,30.446,32.827,0c0.36568,0,0.83292,0.27287,1.1211,0.68552,0.28814,0.41266,1.2962,2.0297,1.602,2.4691,0.30574,0.43942,0.43557,0.85595,0.43557,1.3978v11.281c0,0.86513-0.13372,1.2491-0.99724,1.2491h-37.062c-0.86352,0-1.0596-0.38397-1.0596-1.2491v-11.281c0-0.46782,0.22084-1.1386,0.54872-1.5657,0.41373-0.53882,1.0825-1.9709,1.3753-2.3683,0.29276-0.3974,0.83034-0.61848,1.2088-0.61848z" stroke-dashoffset="0" stroke="url(#linearGradient3251)" stroke-linecap="butt" stroke-miterlimit="4" stroke-width="0.94696712" fill="none"/>
  <path id="rect15391" stroke-linejoin="miter" style="color:#000000;" d="m19.673,12.5,24.652,0c0.65076,0,1.1747,0.51013,1.1747,1.1438v18.704h-27.001v-18.704c0-0.63366,0.5239-1.1438,1.1747-1.1438z" fill-rule="nonzero" stroke-dashoffset="0" display="block" stroke="#898989" stroke-linecap="round" stroke-miterlimit="4" stroke-width="1.00000036" fill="url(#linearGradient3248)"/>
  <rect id="rect15660" stroke-linejoin="round" style="color:#000000;" display="block" stroke-dashoffset="0" rx="0.17678" ry="0.17678" height="18.836" width="25.001" stroke="url(#linearGradient3245)" stroke-linecap="round" stroke-miterlimit="4" y="13.499" x="19.499" stroke-width="1" fill="none"/>
  <rect id="rect4678" rx="1.7115" ry="1.7115" height="5.1875" width="33.75" stroke="url(#linearGradient3242)" stroke-miterlimit="4" y="35.375" x="14.875" stroke-width="1" fill="url(#linearGradient3240)"/>
  <path id="path4696" fill="url(#radialGradient3237)" d="m18.872,37.626a1.2816,1.2816,0,0,1,-2.5633,0,1.2816,1.2816,0,1,1,2.5633,0z"/>
  <path id="path4731" opacity="0.36571428" d="m19.744,33.416,25.562,0.0625c0.6875,0.002,0.98782-0.37099,0.9375-1l-0.125-1.5625h1.8661c0.8125,0,0.9902,0.19257,1.1875,0.5625l0.5,0.9375c0.5268,0.98774,1.8112,1.9741,0.49816,1.9741-4.5027,0-28.177-0.34912-30.427-0.97412z" fill-rule="evenodd" fill="url(#linearGradient3234)"/>
  <path id="path4760" stroke-linejoin="round" d="m51.489,34.5-38.978,0" stroke="#FFF" stroke-linecap="round" stroke-width="0.99999994px" fill="none"/>
  <rect id="rect4833" opacity="0.43575" style="color:#000000;" fill-rule="nonzero" fill-opacity="0.2924" height="1" width="19" y="17" x="22" fill="#000"/>
  <rect id="rect4835" opacity="0.43575" style="color:#000000;" fill-rule="nonzero" fill-opacity="0.2924" height="1" width="19" y="19" x="22" fill="#000"/>
  <rect id="rect4837" opacity="0.43575" style="color:#000000;" fill-rule="nonzero" fill-opacity="0.2924" height="1" width="19" y="21" x="22" fill="#000"/>
  <rect id="rect4839" opacity="0.43575" style="color:#000000;" fill-rule="nonzero" fill-opacity="0.2924" height="1" width="11" y="23" x="22" fill="#000"/>
  <rect id="rect4843" opacity="0.43575" style="color:#000000;" fill-rule="nonzero" fill-opacity="0.2924" height="1" width="19" y="27" x="22" fill="#000"/>
  <rect id="rect4845" opacity="0.43575" style="color:#000000;" fill-rule="nonzero" fill-opacity="0.2924" height="1" width="19" y="29" x="22" fill="#000"/>
  <g transform="matrix(0.66,0,0,0.66,28,16)" id="g3985">
    <path id="path4331" opacity="0.07000002" fill="url(#radialGradient3961)" d="m40.214,29.106a9.2291,2.2853,0,0,1,-18.458,0,9.2291,2.2853,0,1,1,18.458,0z"/>
    <path id="path3420" fill="url(#radialGradient3958)" d="m42.261,52a10.426,3.4403,0,0,1,-20.852,0,10.426,3.4403,0,1,1,20.852,0z"/>
    <path id="path3159" fill-rule="evenodd" fill="url(#radialGradient3955)" d="m39.757,12.195c-0.77566-1.5293-14.738-1.5293-15.513,0,0,2.294-2.327,9.1761-2.327,15.293,0,6.1174,7.7566,9.9408,10.084,9.9408,2.327,0,10.084-3.8234,10.084-9.9408s-2.327-12.999-2.327-15.293z"/>
    <path id="path2385" stroke-linejoin="round" style="stroke-dasharray:none;" d="m39.757,12.216a7.7566,1.5499,0,0,1,-15.513,0,7.7566,1.5499,0,1,1,15.513,0z" stroke="#919191" stroke-linecap="round" stroke-miterlimit="0" stroke-width="1.01098025" fill="none"/>
    <path id="path3157" stroke-linejoin="round" style="stroke-dasharray:none;" d="m40.532,50.429a8.5323,3.0793,0,0,1,-17.065,0,8.5323,3.0793,0,1,1,17.065,0z" stroke="#888a85" stroke-linecap="round" stroke-miterlimit="0" stroke-width="1.01098025" fill="url(#linearGradient3951)"/>
    <path id="path3236" stroke-linejoin="round" style="stroke-dasharray:none;" d="m39.5,50.408a7.5,1.9084,0,0,1,-15,0,7.5,1.9084,0,1,1,15,0z" stroke="url(#linearGradient3948)" stroke-linecap="round" stroke-miterlimit="0" stroke-width="1.01098025" fill="none"/>
    <path id="path3163" stroke-linejoin="miter" d="m28.122,35.9c1.5513,1.5293,3.1027,3.8234,3.1027,12.235,0,1.5293,0.20982,2.294,0.77566,2.294,0.56585,0,0.77566-0.76467,0.77566-2.294,0-8.4114,1.5513-10.705,3.1027-12.235" fill-rule="evenodd" stroke="#888a85" stroke-linecap="round" stroke-width="1px" fill="url(#linearGradient3945)"/>
    <path id="path3179" fill-rule="evenodd" fill="url(#radialGradient3942)" d="m22,25c0,9,7.673,12.429,10,12.429s10-3.429,10-12.429"/>
    <path id="path5788" stroke-linejoin="round" style="stroke-dasharray:none;" d="m41.5,25.195a9.5,2.294,0,0,1,-19,0,9.5,2.294,0,1,1,19,0z" stroke="url(#linearGradient3939)" stroke-linecap="round" stroke-miterlimit="0" stroke-width="1.01098025" fill="url(#radialGradient3937)"/>
    <path id="path3196" stroke-linejoin="miter" d="m23,25.5c-1.5,6.5,6.5,11,9,11s11-4.5,9-12c-0.5-4-1-6-2-9.5" stroke="url(#linearGradient3934)" stroke-linecap="round" stroke-width="1px" fill="none"/>
    <path id="path3266" fill-rule="evenodd" fill="url(#linearGradient3930)" d="M26.346,15,31,15s-2.327,9.1761-2.327,12.999c0,2.294,1.5513,3.8234,0.77566,4.588-0.77566,0.76468-4.654-2.2183-4.654-6.1174,0-1.5293,0.77566-6.1174,1.5513-11.47z"/>
    <path id="path3358" stroke-linejoin="round" d="M39.5,13.5c-0.5,0.5-3.462,1.05-7.743,1.05-4.282,0-6.757-0.55-7.257-1.05" stroke="#FFF" stroke-linecap="round" stroke-miterlimit="0" stroke-width="1.01098013" fill="none"/>
    <path id="path3450" stroke-linejoin="round" d="m41,24.5c0,0.85555-3.5,2-9.019,2.0499-5.519,0.05-8.981-1.194-8.981-2.05" stroke="url(#radialGradient3926)" stroke-linecap="round" stroke-miterlimit="0" stroke-width="1.01098013" fill="none"/>
    <path id="path3395" opacity="0.35" stroke-linejoin="round" d="m30,38s0.5,1,2,0.95884c1.5-0.041,2-0.959,2-0.959" stroke="#000" stroke-linecap="round" stroke-width="1px" fill="none"/>
    <path id="path3363" stroke-linejoin="round" d="m8,43.468,2.5-1,2.4688,0.125-4.9687,0.875z" fill-rule="evenodd" transform="matrix(1.551329,0,0,1.5293489,19.589369,-16.477177)" filter="url(#filter3391)" stroke="url(#linearGradient3054)" stroke-linecap="round" stroke-width="0.64922434px" fill="url(#linearGradient3052)"/>
    <path id="path3354" stroke-linejoin="miter" d="m39.757,12.195c-0.77566-2.294-14.738-2.294-15.513,0,0,2.294-2.327,9.1761-2.327,15.293,0,6.1174,7.7566,9.9408,10.084,9.9408,2.327,0,10.084-3.8234,10.084-9.9408s-2.327-12.999-2.327-15.293z" stroke="#919191" stroke-linecap="round" stroke-width="1px" fill="none"/>
    
   </g>
 </g>
 <rect id="icon:48-32" height="48" width="48" y="8" x="8" fill="none"/>
</svg>
