<?xml version="1.0" encoding="UTF-8" standalone="no"?>
<!-- Created with Inkscape (http://www.inkscape.org/) -->

<svg
   xmlns:dc="http://purl.org/dc/elements/1.1/"
   xmlns:cc="http://creativecommons.org/ns#"
   xmlns:rdf="http://www.w3.org/1999/02/22-rdf-syntax-ns#"
   xmlns:svg="http://www.w3.org/2000/svg"
   xmlns="http://www.w3.org/2000/svg"
   xmlns:xlink="http://www.w3.org/1999/xlink"
   xmlns:sodipodi="http://sodipodi.sourceforge.net/DTD/sodipodi-0.dtd"
   xmlns:inkscape="http://www.inkscape.org/namespaces/inkscape"
   x="48"
   y="48"
   viewBox="320 -40 352 352"
   height="352"
   width="352"
   version="1.1"
   id="svg2"
   inkscape:version="0.92"
   sodipodi:docname="winhelp.svg">
  <metadata
     id="metadata194">
    <rdf:RDF>
      <cc:Work
         rdf:about="">
        <dc:format>image/svg+xml</dc:format>
        <dc:type
           rdf:resource="http://purl.org/dc/dcmitype/StillImage" />
      </cc:Work>
    </rdf:RDF>
  </metadata>
  <sodipodi:namedview
     pagecolor="#ffffff"
     bordercolor="#666666"
     borderopacity="1"
     objecttolerance="10"
     gridtolerance="10"
     guidetolerance="10"
     inkscape:pageopacity="0"
     inkscape:pageshadow="2"
     inkscape:window-width="1301"
     inkscape:window-height="883"
     id="namedview192"
     showgrid="false"
     inkscape:zoom="0.96195652"
     inkscape:cx="184"
     inkscape:cy="32"
     inkscape:window-x="0"
     inkscape:window-y="0"
     inkscape:window-maximized="0"
     inkscape:current-layer="svg2" />
  <defs
     id="defs4">
    <filter
       id="filter3436"
       height="1.2801698"
       width="1.1580106"
       color-interpolation-filters="sRGB"
       y="-0.14008497"
       x="-0.079005308">
      <feGaussianBlur
         id="feGaussianBlur3438"
         stdDeviation="0.3190069" />
    </filter>
    <linearGradient
       id="linearGradient3198">
      <stop
         id="stop3200"
         stop-color="#FFF"
         offset="0" />
      <stop
         id="stop3202"
         stop-color="#FFF"
         stop-opacity="0"
         offset="1" />
    </linearGradient>
    <filter
       id="filter3391"
       height="1.336"
       width="1.1344"
       color-interpolation-filters="sRGB"
       y="-0.168"
       x="-0.067199998">
      <feGaussianBlur
         id="feGaussianBlur3393"
         stdDeviation="0.14" />
    </filter>
    <radialGradient
       id="radialGradient3316"
       gradientUnits="userSpaceOnUse"
       cy="36.75"
       cx="25.125"
       gradientTransform="matrix(1.173803,0,0,0.3571428,-5.004403,29.25)"
       r="15.75">
      <stop
         id="stop21646"
         stop-color="#000"
         offset="0" />
      <stop
         id="stop21648"
         stop-color="#000"
         stop-opacity="0"
         offset="1" />
    </radialGradient>
    <radialGradient
       id="radialGradient3318"
       gradientUnits="userSpaceOnUse"
       cy="28.459"
       cx="26.544001"
       gradientTransform="matrix(1.1621121,0.0055897,-0.00610716,1.268412,-4.9979929,-7.5133823)"
       r="22.375999">
      <stop
         id="stop2935"
         stop-color="#9cbcde"
         offset="0" />
      <stop
         id="stop2937"
         stop-color="#204a87"
         offset="1" />
    </radialGradient>
    <radialGradient
       id="radialGradient3320"
       gradientUnits="userSpaceOnUse"
       cy="33.188"
       cx="37.375"
       gradientTransform="matrix(0.4206982,0,0,0.10417298,23.099585,25.679537)"
       r="14.625">
      <stop
         id="stop4335"
         stop-color="#000"
         offset="0" />
      <stop
         id="stop4337"
         stop-color="#000"
         stop-opacity="0"
         offset="1" />
    </radialGradient>
    <radialGradient
       id="radialGradient3322"
       gradientUnits="userSpaceOnUse"
       cy="22.614"
       cx="27.5"
       gradientTransform="matrix(1.5911065,-0.078428,0.09931994,1.9582576,-2.881692,-10.500343)"
       r="6.5">
      <stop
         id="stop3348"
         stop-color="#737373"
         offset="0" />
      <stop
         id="stop3350"
         stop-color="#000"
         stop-opacity="0"
         offset="1" />
    </radialGradient>
    <linearGradient
       id="linearGradient3324"
       y2="9.2770004"
       gradientUnits="userSpaceOnUse"
       x2="21.440001"
       gradientTransform="matrix(1.2744752,0,0,1.0288787,10.18707,32.24855)"
       y1="14.243"
       x1="27.681">
      <stop
         id="stop3230"
         stop-color="#373737"
         offset="0" />
      <stop
         id="stop3232"
         stop-color="#cfcfcf"
         stop-opacity="0.67826086"
         offset="1" />
    </linearGradient>
    <linearGradient
       id="linearGradient3326"
       y2="5.0353999"
       xlink:href="#linearGradient3198"
       gradientUnits="userSpaceOnUse"
       x2="17.799"
       gradientTransform="matrix(1.2818465,0,0,0.9398128,10.017531,33.228275)"
       y1="12.038"
       x1="25.268999" />
    <linearGradient
       id="linearGradient3328"
       y2="27"
       gradientUnits="userSpaceOnUse"
       x2="19"
       gradientTransform="matrix(1.0342194,0,0,1.0195661,14.678737,7.1575947)"
       y1="33"
       x1="29">
      <stop
         id="stop3222"
         stop-color="#373737"
         offset="0" />
      <stop
         id="stop3224"
         stop-color="#FFF"
         offset="1" />
    </linearGradient>
    <radialGradient
       id="radialGradient3330"
       gradientUnits="userSpaceOnUse"
       cy="26.577"
       cx="26.625"
       gradientTransform="matrix(0.9811466,-0.3224151,0.1189352,0.3517503,12.930811,31.818723)"
       r="12.5">
      <stop
         id="stop3191"
         stop-color="#e40000"
         offset="0" />
      <stop
         id="stop3193"
         stop-color="#490000"
         offset="1" />
    </radialGradient>
    <radialGradient
       id="radialGradient3332"
       gradientUnits="userSpaceOnUse"
       cy="13.192"
       cx="25.017"
       gradientTransform="matrix(1.2818465,0,0,0.46520969,10.01753,21.412042)"
       r="9.7512999">
      <stop
         id="stop3173"
         stop-color="#fd0000"
         offset="0" />
      <stop
         id="stop3175"
         stop-color="#6a0000"
         offset="1" />
    </radialGradient>
    <linearGradient
       id="linearGradient3334"
       y2="7.1352"
       gradientUnits="userSpaceOnUse"
       x2="22.035999"
       gradientTransform="matrix(1.2818465,0,0,0.9398128,10.01753,16.191408)"
       y1="15.984"
       x1="27.216999">
      <stop
         id="stop4404"
         stop-color="#e80000"
         offset="0" />
      <stop
         id="stop4406"
         stop-color="#490000"
         offset="1" />
    </linearGradient>
    <linearGradient
       id="linearGradient3337"
       y2="19"
       xlink:href="#linearGradient3198"
       gradientUnits="userSpaceOnUse"
       x2="22"
       gradientTransform="matrix(1.0293043,0,0,1.0285483,14.831497,7.2093636)"
       y1="25.27"
       x1="30.375999" />
    <linearGradient
       id="linearGradient3339"
       y2="18.312"
       xlink:href="#linearGradient3198"
       gradientUnits="userSpaceOnUse"
       x2="23"
       gradientTransform="matrix(1.0342194,0,0,1.019566,15.563398,6.4785247)"
       y1="18.312"
       x1="17.605" />
    <radialGradient
       id="radialGradient3341"
       gradientUnits="userSpaceOnUse"
       cy="14.19"
       cx="18"
       gradientTransform="matrix(1.0342194,0,0,0.1874519,22.939811,24.759227)"
       r="5.5054998">
      <stop
         id="stop3454"
         stop-color="#FFF"
         offset="0" />
      <stop
         id="stop3456"
         stop-color="#FFF"
         stop-opacity="0"
         offset="1" />
    </radialGradient>
    <linearGradient
       id="linearGradient3343"
       y2="25.5"
       gradientUnits="userSpaceOnUse"
       x2="20.5"
       gradientTransform="translate(-8.0000004,15.967633)"
       y1="27.5"
       x1="16">
      <stop
         id="stop3375"
         stop-color="#000"
         offset="0" />
      <stop
         id="stop3377"
         stop-color="#373737"
         stop-opacity="0"
         offset="1" />
    </linearGradient>
    <linearGradient
       id="linearGradient3345"
       y2="27"
       gradientUnits="userSpaceOnUse"
       x2="21.5"
       gradientTransform="translate(-8.0000004,15.967633)"
       y1="27"
       x1="16">
      <stop
         id="stop3444"
         stop-color="#000"
         offset="0" />
      <stop
         id="stop3446"
         stop-color="#000"
         stop-opacity="0"
         offset="1" />
    </linearGradient>
    <radialGradient
       id="radialGradient3347"
       gradientUnits="userSpaceOnUse"
       cy="16.856001"
       cx="-19.516001"
       gradientTransform="matrix(3.7786255,0,0,5.7349351,98.885852,-78.870826)"
       r="8.7536001">
      <stop
         id="stop2433"
         stop-color="#FFF"
         offset="0" />
      <stop
         id="stop2435"
         stop-color="#b8b8b8"
         offset="1" />
    </radialGradient>
    <filter
       id="filter3391-1"
       height="1.336"
       width="1.1344"
       color-interpolation-filters="sRGB"
       y="-0.168"
       x="-0.067199998">
      <feGaussianBlur
         id="feGaussianBlur3393-7"
         stdDeviation="0.14" />
    </filter>
    <radialGradient
       id="radialGradient3608"
       gradientUnits="userSpaceOnUse"
       cy="14.19"
       cx="18"
       gradientTransform="matrix(0.7756645,0,0,0.1405889,190.07986,38.809403)"
       r="5.5054998">
      <stop
         id="stop3454-9"
         stop-color="#FFF"
         offset="0" />
      <stop
         id="stop3456-7"
         stop-color="#FFF"
         stop-opacity="0"
         offset="1" />
    </radialGradient>
    <linearGradient
       id="linearGradient3611"
       y2="18.312"
       xlink:href="#linearGradient3198"
       gradientUnits="userSpaceOnUse"
       x2="23"
       gradientTransform="matrix(0.7756645,0,0,0.7646744,184.54755,25.098877)"
       y1="18.312"
       x1="17.605" />
    <linearGradient
       id="linearGradient3614"
       y2="19"
       xlink:href="#linearGradient3198"
       gradientUnits="userSpaceOnUse"
       x2="22"
       gradientTransform="matrix(0.7719782,0,0,0.7714112,183.99862,25.647005)"
       y1="25.27"
       x1="30.375999" />
    <radialGradient
       id="radialGradient3617"
       gradientUnits="userSpaceOnUse"
       cy="13.192"
       cx="25.017"
       gradientTransform="matrix(0.9613848,0,0,0.34890721,180.38815,36.299013)"
       r="9.7512999">
      <stop
         id="stop3173-5"
         stop-color="#fd0000"
         offset="0" />
      <stop
         id="stop3175-7"
         stop-color="#6a0000"
         offset="1" />
    </radialGradient>
    <linearGradient
       id="linearGradient3619"
       y2="7.1352"
       gradientUnits="userSpaceOnUse"
       x2="22.035999"
       gradientTransform="matrix(0.9613848,0,0,0.7048595,180.38815,32.383538)"
       y1="15.984"
       x1="27.216999">
      <stop
         id="stop4404-1"
         stop-color="#e80000"
         offset="0" />
      <stop
         id="stop4406-8"
         stop-color="#490000"
         offset="1" />
    </linearGradient>
    <radialGradient
       id="radialGradient3622"
       gradientUnits="userSpaceOnUse"
       cy="26.577"
       cx="26.625"
       gradientTransform="matrix(0.73586,-0.2418113,0.0892014,0.2638127,182.57311,44.104023)"
       r="12.5">
      <stop
         id="stop3191-1"
         stop-color="#e40000"
         offset="0" />
      <stop
         id="stop3193-7"
         stop-color="#490000"
         offset="1" />
    </radialGradient>
    <linearGradient
       id="linearGradient3625"
       y2="27"
       gradientUnits="userSpaceOnUse"
       x2="19"
       gradientTransform="matrix(0.7756645,0,0,0.7646745,183.88405,25.608445)"
       y1="33"
       x1="29">
      <stop
         id="stop3222-9"
         stop-color="#373737"
         offset="0" />
      <stop
         id="stop3224-6"
         stop-color="#FFF"
         offset="1" />
    </linearGradient>
    <linearGradient
       id="linearGradient3629"
       y2="5.0353999"
       xlink:href="#linearGradient3198"
       gradientUnits="userSpaceOnUse"
       x2="17.799"
       gradientTransform="matrix(0.9670244,0,0,0.5702668,180.48644,46.717046)"
       y1="12.038"
       x1="25.268999" />
    <linearGradient
       id="linearGradient3632"
       y2="9.2770004"
       gradientUnits="userSpaceOnUse"
       x2="21.440001"
       gradientTransform="matrix(1.012819,0,0,0.6841522,179.43901,45.464307)"
       y1="19.122"
       x1="29.455">
      <stop
         id="stop3230-1"
         stop-color="#373737"
         offset="0" />
      <stop
         id="stop3232-0"
         stop-color="#373737"
         stop-opacity="0"
         offset="1" />
    </linearGradient>
    <radialGradient
       id="radialGradient3636"
       gradientUnits="userSpaceOnUse"
       cy="22.614"
       cx="27.5"
       gradientTransform="matrix(1.1933298,-0.058821,0.07448995,1.468693,170.71373,12.364726)"
       r="6.5">
      <stop
         id="stop3348-8"
         stop-color="#737373"
         offset="0" />
      <stop
         id="stop3350-4"
         stop-color="#000"
         stop-opacity="0"
         offset="1" />
    </radialGradient>
    <radialGradient
       id="radialGradient3639"
       gradientUnits="userSpaceOnUse"
       cy="33.188"
       cx="37.375"
       gradientTransform="matrix(0.3155237,0,0,0.07812973,190.19969,39.499634)"
       r="14.625">
      <stop
         id="stop4335-1"
         stop-color="#000"
         offset="0" />
      <stop
         id="stop4337-5"
         stop-color="#000"
         stop-opacity="0"
         offset="1" />
    </radialGradient>
    <radialGradient
       id="radialGradient3643"
       gradientUnits="userSpaceOnUse"
       cy="16.856001"
       cx="-19.516001"
       gradientTransform="matrix(2.828299,0,0,4.35457,248.19634,-38.10365)"
       r="8.7536001">
      <stop
         id="stop2433-5"
         stop-color="#FFF"
         offset="0" />
      <stop
         id="stop2435-6"
         stop-color="#b8b8b8"
         offset="1" />
    </radialGradient>
    <radialGradient
       id="radialGradient3647"
       gradientUnits="userSpaceOnUse"
       cy="28.459"
       cx="26.544001"
       gradientTransform="matrix(0.82254143,0.00381996,-0.00432264,0.86682342,171.47433,17.962336)"
       r="22.375999">
      <stop
         id="stop2935-6"
         stop-color="#9cbcde"
         offset="0" />
      <stop
         id="stop2937-3"
         stop-color="#204a87"
         offset="1" />
    </radialGradient>
    <radialGradient
       id="radialGradient3650"
       gradientUnits="userSpaceOnUse"
       cy="36.75"
       cx="25.125"
       gradientTransform="matrix(0.773935,0,0,0.23685353,172.87539,42.565211)"
       r="15.75">
      <stop
         id="stop21646-5"
         stop-color="#000"
         offset="0" />
      <stop
         id="stop21648-0"
         stop-color="#000"
         stop-opacity="0"
         offset="1" />
    </radialGradient>
    <radialGradient
       inkscape:collect="always"
       xlink:href="#radialGradient3316"
       id="radialGradient3313"
       gradientUnits="userSpaceOnUse"
       gradientTransform="matrix(1.173803,0,0,0.3571428,-5.004403,29.25)"
       cx="25.125"
       cy="36.75"
       r="15.75" />
    <radialGradient
       inkscape:collect="always"
       xlink:href="#radialGradient3318"
       id="radialGradient3315"
       gradientUnits="userSpaceOnUse"
       gradientTransform="matrix(1.1621121,0.0055897,-0.00610716,1.268412,-4.9979929,-7.5133823)"
       cx="26.544001"
       cy="28.459"
       r="22.375999" />
    <radialGradient
       inkscape:collect="always"
       xlink:href="#radialGradient3320"
       id="radialGradient3317"
       gradientUnits="userSpaceOnUse"
       gradientTransform="matrix(0.4206982,0,0,0.10417298,23.099585,25.679537)"
       cx="37.375"
       cy="33.188"
       r="14.625" />
    <radialGradient
       inkscape:collect="always"
       xlink:href="#radialGradient3322"
       id="radialGradient3319"
       gradientUnits="userSpaceOnUse"
       gradientTransform="matrix(1.5911065,-0.078428,0.09931994,1.9582576,-2.881692,-10.500343)"
       cx="27.5"
       cy="22.614"
       r="6.5" />
    <linearGradient
       inkscape:collect="always"
       xlink:href="#linearGradient3324"
       id="linearGradient3321"
       gradientUnits="userSpaceOnUse"
       gradientTransform="matrix(1.2744752,0,0,1.0288787,10.18707,32.24855)"
       x1="27.681"
       y1="14.243"
       x2="21.440001"
       y2="9.2770004" />
    <linearGradient
       inkscape:collect="always"
       xlink:href="#linearGradient3198"
       id="linearGradient3323"
       gradientUnits="userSpaceOnUse"
       gradientTransform="matrix(1.2818465,0,0,0.9398128,10.017531,33.228275)"
       x1="25.268999"
       y1="12.038"
       x2="17.799"
       y2="5.0353999" />
    <linearGradient
       inkscape:collect="always"
       xlink:href="#linearGradient3328"
       id="linearGradient3325"
       gradientUnits="userSpaceOnUse"
       gradientTransform="matrix(1.0342194,0,0,1.0195661,14.678737,7.1575947)"
       x1="29"
       y1="33"
       x2="19"
       y2="27" />
    <radialGradient
       inkscape:collect="always"
       xlink:href="#radialGradient3330"
       id="radialGradient3327"
       gradientUnits="userSpaceOnUse"
       gradientTransform="matrix(0.9811466,-0.3224151,0.1189352,0.3517503,12.930811,31.818723)"
       cx="26.625"
       cy="26.577"
       r="12.5" />
    <radialGradient
       inkscape:collect="always"
       xlink:href="#radialGradient3332"
       id="radialGradient3329"
       gradientUnits="userSpaceOnUse"
       gradientTransform="matrix(1.2818465,0,0,0.46520969,10.01753,21.412042)"
       cx="25.017"
       cy="13.192"
       r="9.7512999" />
    <linearGradient
       inkscape:collect="always"
       xlink:href="#linearGradient3334"
       id="linearGradient3331"
       gradientUnits="userSpaceOnUse"
       gradientTransform="matrix(1.2818465,0,0,0.9398128,10.01753,16.191408)"
       x1="27.216999"
       y1="15.984"
       x2="22.035999"
       y2="7.1352" />
    <linearGradient
       inkscape:collect="always"
       xlink:href="#linearGradient3198"
       id="linearGradient3333"
       gradientUnits="userSpaceOnUse"
       gradientTransform="matrix(1.0293043,0,0,1.0285483,14.831497,7.2093636)"
       x1="30.375999"
       y1="25.27"
       x2="22"
       y2="19" />
    <linearGradient
       inkscape:collect="always"
       xlink:href="#linearGradient3198"
       id="linearGradient3335"
       gradientUnits="userSpaceOnUse"
       gradientTransform="matrix(1.0342194,0,0,1.019566,15.563398,6.4785247)"
       x1="17.605"
       y1="18.312"
       x2="23"
       y2="18.312" />
    <radialGradient
       inkscape:collect="always"
       xlink:href="#radialGradient3341"
       id="radialGradient3337"
       gradientUnits="userSpaceOnUse"
       gradientTransform="matrix(1.0342194,0,0,0.1874519,22.939811,24.759227)"
       cx="18"
       cy="14.19"
       r="5.5054998" />
    <linearGradient
       inkscape:collect="always"
       xlink:href="#linearGradient3343"
       id="linearGradient3340"
       gradientUnits="userSpaceOnUse"
       gradientTransform="translate(-8.0000004,15.967633)"
       x1="16"
       y1="27.5"
       x2="20.5"
       y2="25.5" />
    <linearGradient
       inkscape:collect="always"
       xlink:href="#linearGradient3345"
       id="linearGradient3342"
       gradientUnits="userSpaceOnUse"
       gradientTransform="translate(-8.0000004,15.967633)"
       x1="16"
       y1="27"
       x2="21.5"
       y2="27" />
    <radialGradient
       inkscape:collect="always"
       xlink:href="#radialGradient3347"
       id="radialGradient3344"
       gradientUnits="userSpaceOnUse"
       gradientTransform="matrix(3.7786255,0,0,5.7349351,98.885852,-78.870826)"
       cx="-19.516001"
       cy="16.856001"
       r="8.7536001" />
    <radialGradient
       inkscape:collect="always"
       xlink:href="#radialGradient3316"
       id="radialGradient3346"
       gradientUnits="userSpaceOnUse"
       gradientTransform="matrix(1.173803,0,0,0.3571428,-5.004403,29.25)"
       cx="25.125"
       cy="36.75"
       r="15.75" />
    <radialGradient
       inkscape:collect="always"
       xlink:href="#radialGradient3318"
       id="radialGradient3348"
       gradientUnits="userSpaceOnUse"
       gradientTransform="matrix(1.1621121,0.0055897,-0.00610716,1.268412,-4.9979929,-7.5133823)"
       cx="26.544001"
       cy="28.459"
       r="22.375999" />
    <radialGradient
       inkscape:collect="always"
       xlink:href="#radialGradient3320"
       id="radialGradient3350"
       gradientUnits="userSpaceOnUse"
       gradientTransform="matrix(0.4206982,0,0,0.10417298,23.099585,25.679537)"
       cx="37.375"
       cy="33.188"
       r="14.625" />
    <radialGradient
       inkscape:collect="always"
       xlink:href="#radialGradient3322"
       id="radialGradient3352"
       gradientUnits="userSpaceOnUse"
       gradientTransform="matrix(1.5911065,-0.078428,0.09931994,1.9582576,-2.881692,-10.500343)"
       cx="27.5"
       cy="22.614"
       r="6.5" />
    <linearGradient
       inkscape:collect="always"
       xlink:href="#linearGradient3324"
       id="linearGradient3354"
       gradientUnits="userSpaceOnUse"
       gradientTransform="matrix(1.2744752,0,0,1.0288787,10.18707,32.24855)"
       x1="27.681"
       y1="14.243"
       x2="21.440001"
       y2="9.2770004" />
    <linearGradient
       inkscape:collect="always"
       xlink:href="#linearGradient3328"
       id="linearGradient3356"
       gradientUnits="userSpaceOnUse"
       gradientTransform="matrix(1.0342194,0,0,1.0195661,14.678737,7.1575947)"
       x1="29"
       y1="33"
       x2="19"
       y2="27" />
    <radialGradient
       inkscape:collect="always"
       xlink:href="#radialGradient3330"
       id="radialGradient3358"
       gradientUnits="userSpaceOnUse"
       gradientTransform="matrix(0.9811466,-0.3224151,0.1189352,0.3517503,12.930811,31.818723)"
       cx="26.625"
       cy="26.577"
       r="12.5" />
    <radialGradient
       inkscape:collect="always"
       xlink:href="#radialGradient3332"
       id="radialGradient3360"
       gradientUnits="userSpaceOnUse"
       gradientTransform="matrix(1.2818465,0,0,0.46520969,10.01753,21.412042)"
       cx="25.017"
       cy="13.192"
       r="9.7512999" />
    <linearGradient
       inkscape:collect="always"
       xlink:href="#linearGradient3334"
       id="linearGradient3362"
       gradientUnits="userSpaceOnUse"
       gradientTransform="matrix(1.2818465,0,0,0.9398128,10.01753,16.191408)"
       x1="27.216999"
       y1="15.984"
       x2="22.035999"
       y2="7.1352" />
    <radialGradient
       inkscape:collect="always"
       xlink:href="#radialGradient3341"
       id="radialGradient3364"
       gradientUnits="userSpaceOnUse"
       gradientTransform="matrix(1.0342194,0,0,0.1874519,22.939811,24.759227)"
       cx="18"
       cy="14.19"
       r="5.5054998" />
    <linearGradient
       inkscape:collect="always"
       xlink:href="#linearGradient3343"
       id="linearGradient3366"
       gradientUnits="userSpaceOnUse"
       gradientTransform="translate(-8.0000004,15.967633)"
       x1="16"
       y1="27.5"
       x2="20.5"
       y2="25.5" />
    <linearGradient
       inkscape:collect="always"
       xlink:href="#linearGradient3345"
       id="linearGradient3368"
       gradientUnits="userSpaceOnUse"
       gradientTransform="translate(-8.0000004,15.967633)"
       x1="16"
       y1="27"
       x2="21.5"
       y2="27" />
    <radialGradient
       inkscape:collect="always"
       xlink:href="#radialGradient3347"
       id="radialGradient3370"
       gradientUnits="userSpaceOnUse"
       gradientTransform="matrix(3.7786255,0,0,5.7349351,98.885852,-78.870826)"
       cx="-19.516001"
       cy="16.856001"
       r="8.7536001" />
    <linearGradient
       inkscape:collect="always"
       xlink:href="#linearGradient3343"
       id="linearGradient3372"
       gradientUnits="userSpaceOnUse"
       gradientTransform="translate(-8.0000004,15.967633)"
       x1="16"
       y1="27.5"
       x2="20.5"
       y2="25.5" />
    <linearGradient
       inkscape:collect="always"
       xlink:href="#linearGradient3345"
       id="linearGradient3374"
       gradientUnits="userSpaceOnUse"
       gradientTransform="translate(-8.0000004,15.967633)"
       x1="16"
       y1="27"
       x2="21.5"
       y2="27" />
  </defs>
  <rect
     id="icon:32-32"
     height="256"
     width="256"
     y="8"
     x="368"
     style="fill:none" />
  <g
     transform="matrix(5.5992618,0,0,5.5992618,356.18999,-6.7654187)"
     id="g3171">
    <path
       d="m 42.975,42.375 a 18.4875,5.6251521 0 0 1 -36.975,0 18.4875,5.6251521 0 1 1 36.975,0 z"
       style="opacity:0.63068183;color:#000000;fill:url(#radialGradient3313);fill-rule:evenodd"
       id="path3173"
       inkscape:connector-curvature="0" />
    <path
       d="m 44.531,23.999 a 20.5295,20.5355 0 1 1 -41.059,0 20.5295,20.5355 0 1 1 41.059,0 z"
       id="path3175"
       style="fill:url(#radialGradient3315);stroke:#204a87;stroke-width:0.93856096"
       inkscape:connector-curvature="0" />
    <path
       stroke-miterlimit="4"
       d="m 42.706,24.001 a 18.7065,18.7095 0 1 1 -37.413,0 18.7065,18.7095 0 1 1 37.413,0 z"
       style="opacity:0.96022728;fill:none;stroke:#ffffff;stroke-width:2.59179091;stroke-miterlimit:4;stroke-dasharray:none"
       id="path3177"
       inkscape:connector-curvature="0" />
    <path
       d="M 44.671,17.863 C 44,16.066 35,16.066 34.329,17.863 c 0,1.5294 -1.8289,6.1249 -1.8289,10.203 0,4.0783 5.4487,6.6197 7,6.6197 1.5513,0 7,-2.5414 7,-6.6197 0,-4.0783 -1.8289,-8.6738 -1.8289,-10.203 z"
       id="path3180"
       inkscape:connector-curvature="0"
       style="fill:#eeeeec;fill-opacity:0.41960784;fill-rule:evenodd" />
    <path
       d="m 44.976,29.137 a 6.1527,1.5235 0 0 1 -12.305,0 6.1527,1.5235 0 1 1 12.305,0 z"
       id="path3182"
       style="opacity:0.07000002;fill:url(#radialGradient3317)"
       inkscape:connector-curvature="0" />
    <path
       stroke-miterlimit="0"
       transform="matrix(1.2818465,0,0,0.9398128,10.01753,34.047514)"
       d="m 27.438,11 a 4.4375,2.1843 0 1 1 -8.875,0 4.4375,2.1843 0 1 1 8.875,0 z"
       style="opacity:0.2;fill:#000000;stroke:#000000;stroke-width:0.61406273;stroke-linecap:round;stroke-linejoin:round;stroke-miterlimit:0;stroke-dasharray:none;filter:url(#filter3436)"
       id="path3184"
       inkscape:connector-curvature="0" />
    <path
       d="m 44.671,17.863 c -0.51711,-1.0196 -9.8251,-1.0196 -10.342,0 0,1.5293 -1.5513,6.1174 -1.5513,10.196 0,4.0783 5.1711,6.6272 6.7224,6.6272 1.5513,0 6.7224,-2.5489 6.7224,-6.6272 0,-4.0783 -1.5513,-8.6663 -1.5513,-10.196 z"
       id="path3186"
       style="fill:url(#radialGradient3319);fill-rule:evenodd"
       inkscape:connector-curvature="0" />
    <path
       stroke-miterlimit="0"
       d="m 44.978,43.566 a 5.4785,1.9784361 0 1 1 -10.957,0 5.4785,1.9784361 0 1 1 10.957,0 z"
       style="fill:url(#linearGradient3321);stroke:#888a85;stroke-width:1.04329979;stroke-linecap:round;stroke-linejoin:round;stroke-miterlimit:0;stroke-dasharray:none"
       id="path3188"
       inkscape:connector-curvature="0" />
    <path
       stroke-miterlimit="0"
       d="m 44,43.566 a 4.5,1.2723 0 1 1 -9,0 4.5,1.2723 0 1 1 9,0 z"
       style="fill:none;stroke:url(#linearGradient3323);stroke-width:1;stroke-linecap:round;stroke-linejoin:round;stroke-miterlimit:0;stroke-dasharray:none"
       id="path3190"
       inkscape:connector-curvature="0" />
    <path
       d="m 36.914,33.666 c 1.0342,1.0196 2.0684,2.5489 2.0684,8.1565 0,1.0196 0.13988,1.5293 0.51711,1.5293 0.37723,0 0.51711,-0.50978 0.51711,-1.5293 0,-5.6076 1.0342,-7.137 2.0684,-8.1565"
       id="path3192"
       style="fill:url(#linearGradient3325);fill-rule:evenodd;stroke:#888a85;stroke-width:1;stroke-linecap:round;stroke-linejoin:miter"
       inkscape:connector-curvature="0" />
    <path
       d="m 32.5,26.566 c 0,6 5.4487,8.1197 7,8.1197 1.5513,0 7,-2.1197 7,-8.1197"
       id="path3194"
       style="fill:url(#radialGradient3327);fill-rule:evenodd"
       inkscape:connector-curvature="0" />
    <path
       stroke-miterlimit="0"
       d="m 45.833,26.529 a 6.3335,1.5293483 0 0 1 -12.667,0 6.3335,1.5293483 0 1 1 12.667,0 z"
       style="fill:url(#radialGradient3329);stroke:url(#linearGradient3331);stroke-width:0.67398685;stroke-linecap:round;stroke-linejoin:round;stroke-miterlimit:0;stroke-dasharray:none"
       id="path3196"
       inkscape:connector-curvature="0" />
    <path
       d="m 44.094,19.879 -10.5,6.9062 c -0.47185,2.1071 0.57612,3.8839 1.9688,5.1562 0.69977,0.63931 1.4779,1.1545 2.1875,1.5 0.70965,0.3455 1.3655,0.53125 1.75,0.53125 0.38459,0 1.0458,-0.20765 1.7812,-0.5625 0.73541,-0.35485 1.5613,-0.85244 2.2812,-1.5312 1.4399,-1.3576 2.4993,-3.3228 1.8438,-5.7812 a 0.10694,0.10694 0 0 1 0,-0.03125 C 45.08022,23.4563 44.73507,22.1285 44.094,19.879 z"
       id="path3198"
       style="fill:none;stroke:url(#linearGradient3333);stroke-width:1;stroke-linecap:round;stroke-linejoin:miter"
       inkscape:connector-curvature="0" />
    <path
       d="m 35.731,19.733 3.1027,0 c 0,0 -1.5513,6.1174 -1.5513,8.6663 0,1.5293 1.0342,2.5489 0.51711,3.0587 -0.51711,0.50978 -3.1027,-1.4789 -3.1027,-4.0783 0,-1.0196 0.51711,-4.0783 1.0342,-7.6467 z"
       id="path3200"
       style="fill:url(#linearGradient3335);fill-rule:evenodd"
       inkscape:connector-curvature="0" />
    <path
       stroke-miterlimit="0"
       d="m 44.684,17.793 a 5.1841,1.2399 0 1 1 -7.84e-4,-0.02154"
       style="fill:none;stroke:#919191;stroke-width:0.97392541;stroke-linecap:round;stroke-linejoin:round;stroke-miterlimit:0;stroke-dasharray:none"
       id="path3202"
       inkscape:connector-curvature="0" />
    <path
       stroke-miterlimit="0"
       d="m 44.5,19.031 c -0.33333,0.33333 -2.3078,0.69994 -5.1622,0.69994 -2.8544,0 -4.5044,-0.3666 -4.8378,-0.69994"
       id="path3204"
       inkscape:connector-curvature="0"
       style="fill:none;stroke:#ffffff;stroke-width:0.67398679;stroke-linecap:round;stroke-linejoin:round;stroke-miterlimit:0" />
    <path
       stroke-miterlimit="0"
       d="m 45.5,26.066 c 0,0.57036 -2.3333,1.3333 -6.0127,1.3666 -3.679,0.033 -5.987,-0.796 -5.987,-1.367"
       id="path3206"
       style="fill:none;stroke:url(#radialGradient3337);stroke-width:0.67398679;stroke-linecap:round;stroke-linejoin:round;stroke-miterlimit:0"
       inkscape:connector-curvature="0" />
    <path
       d="m 38.167,35.066 c 0,0 0.33333,0.66667 1.3333,0.63923 1,-0.02744 1.3333,-0.63923 1.3333,-0.63923"
       id="path3208"
       inkscape:connector-curvature="0"
       style="opacity:0.35;fill:none;stroke:#000000;stroke-width:0.66666669px;stroke-linecap:round;stroke-linejoin:round" />
    <path
       transform="matrix(1.0342194,0,0,1.019566,31.226246,-1.2519032)"
       d="m 8,43.468 2.5,-1 2.4688,0.125 -4.9687,0.875 z"
       id="path3210"
       style="fill:url(#linearGradient3340);fill-rule:evenodd;stroke:url(#linearGradient3342);stroke-width:0.64922434px;stroke-linecap:round;stroke-linejoin:round;filter:url(#filter3391)"
       inkscape:connector-curvature="0" />
    <path
       d="M 44.671,17.863 C 44,16.066 35,16.066 34.329,17.863 c 0,1.5294 -1.8289,6.1249 -1.8289,10.203 0,4.0783 5.4487,6.6197 7,6.6197 1.5513,0 7,-2.5414 7,-6.6197 0,-4.0783 -1.8289,-8.6738 -1.8289,-10.203 z"
       id="path3212"
       inkscape:connector-curvature="0"
       style="fill:none;stroke:#919191;stroke-width:1;stroke-linecap:round;stroke-linejoin:miter" />
    <path
       d="m 24.519,13.455 c -0.90006,2.2e-5 -1.8253,0.10293 -2.7887,0.2871 -0.96287,0.1841 -2.0229,0.44893 -3.1871,0.8352 a 0.1147,0.11272 0 0 0 -0.02656,0 0.1147,0.11272 0 0 0 -0.02656,0.0261 0.1147,0.11272 0 0 0 -0.02656,0.0261 0.1147,0.11272 0 0 0 0,0.0261 0.1147,0.11272 0 0 0 0,0.0261 v 4.3065 a 0.1147,0.11272 0 0 0 0,0.0261 0.1147,0.11272 0 0 0 0,0.0261 0.1147,0.11272 0 0 0 0.02656,0.0261 0.1147,0.11272 0 0 0 0.02656,0.0261 0.1147,0.11272 0 0 0 0.02656,0 0.1147,0.11272 0 0 0 0.02656,0 0.1147,0.11272 0 0 0 0.02656,0 0.1147,0.11272 0 0 0 0.02656,0 c 0.97095,-0.60055 1.8981,-1.0583 2.7887,-1.3572 0.89081,-0.30799 1.7364,-0.46978 2.4966,-0.4698 0.80674,1.8e-5 1.398,0.17585 1.8326,0.522 0.43236,0.33583 0.66397,0.82104 0.66398,1.4355 -9e-6,0.40145 -0.12254,0.79462 -0.37183,1.2006 -0.24051,0.40676 -0.62915,0.86068 -1.1686,1.3311 l -0.92957,0.783 c -1.0211,0.90243 -1.6906,1.6629 -2.0185,2.2707 -0.32561,0.5942 -0.47807,1.2689 -0.47807,2.0358 v 0.6786 a 0.1147,0.11272 0 0 0 0,0.0261 0.1147,0.11272 0 0 0 0,0.0261 0.1147,0.11272 0 0 0 0.02656,0.0261 0.1147,0.11272 0 0 0 0.02656,0.0261 0.1147,0.11272 0 0 0 0.02656,0 0.1147,0.11272 0 0 0 0.02656,0 h 5.179 a 0.1147,0.11272 0 0 0 0.02656,0 0.1147,0.11272 0 0 0 0.02656,0 0.1147,0.11272 0 0 0 0.02656,-0.0261 0.1147,0.11272 0 0 0 0.02656,-0.0261 0.1147,0.11272 0 0 0 0,-0.0261 0.1147,0.11272 0 0 0 0,-0.0261 v -0.6264 c -9e-6,-0.39104 0.1261,-0.74571 0.31871,-1.0701 0.18893,-0.3268 0.60179,-0.79374 1.2483,-1.3572 l 0.90301,-0.783 c 0.90649,-0.82043 1.5559,-1.5741 1.9388,-2.2968 0.38183,-0.73001 0.58429,-1.5647 0.5843,-2.4795 -1.5e-5,-1.7759 -0.63212,-3.1187 -1.8857,-4.0455 -1.2538,-0.93629 -3.0649,-1.4094 -5.4181,-1.4094 z m -3.0278,15.999 a 0.1147,0.11272 0 0 0 -0.02656,0.0261 0.1147,0.11272 0 0 0 -0.02656,0.0261 0.1147,0.11272 0 0 0 0,0.0261 0.1147,0.11272 0 0 0 0,0.0261 v 4.8807 a 0.1147,0.11272 0 0 0 0,0.0261 0.1147,0.11272 0 0 0 0,0.0261 0.1147,0.11272 0 0 0 0.02656,0.0261 0.1147,0.11272 0 0 0 0.02656,0.0261 0.1147,0.11272 0 0 0 0.02656,0 0.1147,0.11272 0 0 0 0.02656,0 h 5.179 a 0.1147,0.11272 0 0 0 0.02656,0 0.1147,0.11272 0 0 0 0.02656,0 0.1147,0.11272 0 0 0 0.02656,-0.0261 0.1147,0.11272 0 0 0 0.02656,-0.0261 0.1147,0.11272 0 0 0 0,-0.0261 0.1147,0.11272 0 0 0 0,-0.0261 v -4.8807 a 0.1147,0.11272 0 0 0 0,-0.0261 0.1147,0.11272 0 0 0 0,-0.0261 0.1147,0.11272 0 0 0 -0.02656,-0.0261 0.1147,0.11272 0 0 0 -0.02656,-0.0261 0.1147,0.11272 0 0 0 -0.02656,0 0.1147,0.11272 0 0 0 -0.02656,0 h -5.179 a 0.1147,0.11272 0 0 0 -0.02656,0 0.1147,0.11272 0 0 0 -0.02656,0 z"
       style="text-align:start;fill:url(#radialGradient3344);stroke:#ffffff;stroke-width:0.92632556px;stroke-linecap:butt;stroke-linejoin:miter;stroke-opacity:0.78612713"
       id="path3214"
       inkscape:connector-curvature="0" />
    <path
       display="none"
       d="m -62.559,29.725 0,-24"
       id="path3216"
       inkscape:connector-curvature="0"
       style="fill:none;stroke:#000000;stroke-width:1px;stroke-linecap:butt;stroke-linejoin:miter;display:none" />
    <path
       display="none"
       d="m -52.559,29.725 0,-24"
       id="path3218"
       inkscape:connector-curvature="0"
       style="fill:none;stroke:#000000;stroke-width:1px;stroke-linecap:butt;stroke-linejoin:miter;display:none" />
    <path
       display="none"
       d="m -72.559,13.725 30,0"
       id="path3220"
       inkscape:connector-curvature="0"
       style="fill:none;stroke:#000000;stroke-width:1px;stroke-linecap:butt;stroke-linejoin:miter;display:none" />
    <path
       display="none"
       d="m -72.059,21.725 30,0"
       id="path3222"
       inkscape:connector-curvature="0"
       style="fill:none;stroke:#000000;stroke-width:1px;stroke-linecap:butt;stroke-linejoin:miter;display:none" />
    <path
       display="none"
       d="m -72.559,29.725 6,-9 17,0 6,9 -29,0 z"
       id="path3224"
       inkscape:connector-curvature="0"
       style="fill:none;stroke:#000000;stroke-width:1px;stroke-linecap:butt;stroke-linejoin:round;display:none" />
    <path
       display="none"
       d="m -72.559,5.7252 6,-7 18,0 6,7 -30,0 z"
       id="path3226"
       inkscape:connector-curvature="0"
       style="fill:none;stroke:#000000;stroke-width:1px;stroke-linecap:butt;stroke-linejoin:round;display:none" />
    <path
       display="none"
       d="m -70.059,3.2252 25,0"
       id="path3228"
       inkscape:connector-curvature="0"
       style="fill:none;stroke:#000000;stroke-width:1px;stroke-linecap:round;stroke-linejoin:miter;display:none" />
    <path
       display="none"
       d="m -68.059,0.72516 21,0"
       id="path3230"
       inkscape:connector-curvature="0"
       style="fill:none;stroke:#000000;stroke-width:1px;stroke-linecap:round;stroke-linejoin:miter;display:none" />
    <path
       display="none"
       d="m -62.559,5.7252 2,-7"
       id="path3232"
       inkscape:connector-curvature="0"
       style="fill:none;stroke:#000000;stroke-width:1px;stroke-linecap:butt;stroke-linejoin:miter;display:none" />
    <path
       display="none"
       d="m -52.559,5.7252 -2,-7"
       id="path3234"
       inkscape:connector-curvature="0"
       style="fill:none;stroke:#000000;stroke-width:1px;stroke-linecap:butt;stroke-linejoin:miter;display:none" />
    <path
       display="none"
       d="m -68.059,16.725 21,0"
       id="path3237"
       inkscape:connector-curvature="0"
       style="fill:none;stroke:#000000;stroke-width:1px;stroke-linecap:round;stroke-linejoin:miter;display:none" />
    <path
       display="none"
       d="m -72.559,21.725 6,-7 18,0 6,7 -30,0 z"
       id="path3239"
       inkscape:connector-curvature="0"
       style="fill:none;stroke:#000000;stroke-width:1px;stroke-linecap:butt;stroke-linejoin:round;display:none" />
    <path
       display="none"
       d="m -70.059,19.225 25,0"
       id="path3241"
       inkscape:connector-curvature="0"
       style="fill:none;stroke:#000000;stroke-width:1px;stroke-linecap:round;stroke-linejoin:miter;display:none" />
    <path
       display="none"
       d="m -68.059,16.725 21,0"
       id="path3243"
       inkscape:connector-curvature="0"
       style="fill:none;stroke:#000000;stroke-width:1px;stroke-linecap:round;stroke-linejoin:miter;display:none" />
    <path
       display="none"
       d="m -62.559,21.725 2,-7"
       id="path3245"
       inkscape:connector-curvature="0"
       style="fill:none;stroke:#000000;stroke-width:1px;stroke-linecap:butt;stroke-linejoin:miter;display:none" />
    <path
       display="none"
       d="m -52.559,21.725 -2,-7"
       id="path3247"
       inkscape:connector-curvature="0"
       style="fill:none;stroke:#000000;stroke-width:1px;stroke-linecap:butt;stroke-linejoin:miter;display:none" />
    <path
       display="none"
       d="m -155.94,49.441 0,-24"
       id="path3249"
       inkscape:connector-curvature="0"
       style="fill:none;stroke:#000000;stroke-width:1px;stroke-linecap:butt;stroke-linejoin:miter;display:none" />
    <path
       display="none"
       d="m -145.94,49.441 0,-24"
       id="path3251"
       inkscape:connector-curvature="0"
       style="fill:none;stroke:#000000;stroke-width:1px;stroke-linecap:butt;stroke-linejoin:miter;display:none" />
    <path
       display="none"
       d="m -165.94,33.441 30,0"
       id="path3253"
       inkscape:connector-curvature="0"
       style="fill:none;stroke:#000000;stroke-width:1px;stroke-linecap:butt;stroke-linejoin:miter;display:none" />
    <path
       display="none"
       d="m -165.44,41.441 30,0"
       id="path3255"
       inkscape:connector-curvature="0"
       style="fill:none;stroke:#000000;stroke-width:1px;stroke-linecap:butt;stroke-linejoin:miter;display:none" />
    <path
       display="none"
       d="m -165.94,49.441 6,-9 17,0 6,9 -29,0 z"
       id="path3257"
       inkscape:connector-curvature="0"
       style="fill:none;stroke:#000000;stroke-width:1px;stroke-linecap:butt;stroke-linejoin:round;display:none" />
    <path
       display="none"
       d="m -165.94,25.441 6,-7 18,0 6,7 -30,0 z"
       id="path3259"
       inkscape:connector-curvature="0"
       style="fill:none;stroke:#000000;stroke-width:1px;stroke-linecap:butt;stroke-linejoin:round;display:none" />
    <path
       display="none"
       d="m -163.44,22.941 25,0"
       id="path3261"
       inkscape:connector-curvature="0"
       style="fill:none;stroke:#000000;stroke-width:1px;stroke-linecap:round;stroke-linejoin:miter;display:none" />
    <path
       display="none"
       d="m -161.44,20.441 21,0"
       id="path3263"
       inkscape:connector-curvature="0"
       style="fill:none;stroke:#000000;stroke-width:1px;stroke-linecap:round;stroke-linejoin:miter;display:none" />
    <path
       display="none"
       d="m -155.94,25.441 2,-7"
       id="path3265"
       inkscape:connector-curvature="0"
       style="fill:none;stroke:#000000;stroke-width:1px;stroke-linecap:butt;stroke-linejoin:miter;display:none" />
    <path
       display="none"
       d="m -145.94,25.441 -2,-7"
       id="path3267"
       inkscape:connector-curvature="0"
       style="fill:none;stroke:#000000;stroke-width:1px;stroke-linecap:butt;stroke-linejoin:miter;display:none" />
    <path
       display="none"
       d="m -161.44,36.441 21,0"
       id="path3269"
       inkscape:connector-curvature="0"
       style="fill:none;stroke:#000000;stroke-width:1px;stroke-linecap:round;stroke-linejoin:miter;display:none" />
    <path
       display="none"
       d="m -165.94,41.441 6,-7 18,0 6,7 -30,0 z"
       id="path3271"
       inkscape:connector-curvature="0"
       style="fill:none;stroke:#000000;stroke-width:1px;stroke-linecap:butt;stroke-linejoin:round;display:none" />
    <path
       display="none"
       d="m -163.44,38.941 25,0"
       id="path3273"
       inkscape:connector-curvature="0"
       style="fill:none;stroke:#000000;stroke-width:1px;stroke-linecap:round;stroke-linejoin:miter;display:none" />
    <path
       display="none"
       d="m -161.44,36.441 21,0"
       id="path3275"
       inkscape:connector-curvature="0"
       style="fill:none;stroke:#000000;stroke-width:1px;stroke-linecap:round;stroke-linejoin:miter;display:none" />
    <path
       display="none"
       d="m -155.94,41.441 2,-7"
       id="path3277"
       inkscape:connector-curvature="0"
       style="fill:none;stroke:#000000;stroke-width:1px;stroke-linecap:butt;stroke-linejoin:miter;display:none" />
    <path
       display="none"
       d="m -145.94,41.441 -2,-7"
       id="path3279"
       inkscape:connector-curvature="0"
       style="fill:none;stroke:#000000;stroke-width:1px;stroke-linecap:butt;stroke-linejoin:miter;display:none" />
    <path
       display="none"
       d="m -114.69,41.566 0,-24"
       id="path3281"
       inkscape:connector-curvature="0"
       style="fill:none;stroke:#000000;stroke-width:1px;stroke-linecap:butt;stroke-linejoin:miter;display:none" />
    <path
       display="none"
       d="m -104.69,41.566 0,-24"
       id="path3283"
       inkscape:connector-curvature="0"
       style="fill:none;stroke:#000000;stroke-width:1px;stroke-linecap:butt;stroke-linejoin:miter;display:none" />
    <path
       display="none"
       d="m -124.69,25.566 30,0"
       id="path3285"
       inkscape:connector-curvature="0"
       style="fill:none;stroke:#000000;stroke-width:1px;stroke-linecap:butt;stroke-linejoin:miter;display:none" />
    <path
       display="none"
       d="m -124.19,33.566 30,0"
       id="path3287"
       inkscape:connector-curvature="0"
       style="fill:none;stroke:#000000;stroke-width:1px;stroke-linecap:butt;stroke-linejoin:miter;display:none" />
    <path
       display="none"
       d="m -124.69,41.566 6,-9 17,0 6,9 -29,0 z"
       id="path3289"
       inkscape:connector-curvature="0"
       style="fill:none;stroke:#000000;stroke-width:1px;stroke-linecap:butt;stroke-linejoin:round;display:none" />
    <path
       display="none"
       d="m -124.69,17.566 6,-7 18,0 6,7 -30,0 z"
       id="path3291"
       inkscape:connector-curvature="0"
       style="fill:none;stroke:#000000;stroke-width:1px;stroke-linecap:butt;stroke-linejoin:round;display:none" />
    <path
       display="none"
       d="m -122.19,15.066 25,0"
       id="path3293"
       inkscape:connector-curvature="0"
       style="fill:none;stroke:#000000;stroke-width:1px;stroke-linecap:round;stroke-linejoin:miter;display:none" />
    <path
       display="none"
       d="m -120.19,12.566 21,0"
       id="path3295"
       inkscape:connector-curvature="0"
       style="fill:none;stroke:#000000;stroke-width:1px;stroke-linecap:round;stroke-linejoin:miter;display:none" />
    <path
       display="none"
       d="m -114.69,17.566 2,-7"
       id="path3297"
       inkscape:connector-curvature="0"
       style="fill:none;stroke:#000000;stroke-width:1px;stroke-linecap:butt;stroke-linejoin:miter;display:none" />
    <path
       display="none"
       d="m -104.69,17.566 -2,-7"
       id="path3299"
       inkscape:connector-curvature="0"
       style="fill:none;stroke:#000000;stroke-width:1px;stroke-linecap:butt;stroke-linejoin:miter;display:none" />
    <path
       display="none"
       d="m -120.19,28.566 21,0"
       id="path3301"
       inkscape:connector-curvature="0"
       style="fill:none;stroke:#000000;stroke-width:1px;stroke-linecap:round;stroke-linejoin:miter;display:none" />
    <path
       display="none"
       d="m -124.69,33.566 6,-7 18,0 6,7 -30,0 z"
       id="path3303"
       inkscape:connector-curvature="0"
       style="fill:none;stroke:#000000;stroke-width:1px;stroke-linecap:butt;stroke-linejoin:round;display:none" />
    <path
       display="none"
       d="m -122.19,31.066 25,0"
       id="path3305"
       inkscape:connector-curvature="0"
       style="fill:none;stroke:#000000;stroke-width:1px;stroke-linecap:round;stroke-linejoin:miter;display:none" />
    <path
       display="none"
       d="m -120.19,28.566 21,0"
       id="path3307"
       inkscape:connector-curvature="0"
       style="fill:none;stroke:#000000;stroke-width:1px;stroke-linecap:round;stroke-linejoin:miter;display:none" />
    <path
       display="none"
       d="m -114.69,33.566 2,-7"
       id="path3309"
       inkscape:connector-curvature="0"
       style="fill:none;stroke:#000000;stroke-width:1px;stroke-linecap:butt;stroke-linejoin:miter;display:none" />
    <path
       display="none"
       d="m -104.69,33.566 -2,-7"
       id="path3311"
       inkscape:connector-curvature="0"
       style="fill:none;stroke:#000000;stroke-width:1px;stroke-linecap:butt;stroke-linejoin:miter;display:none" />
  
  </g>
</svg>
